%TF.GenerationSoftware,KiCad,Pcbnew,7.0.10*%
%TF.CreationDate,2024-05-23T22:52:30+02:00*%
%TF.ProjectId,teensy-eurorack,7465656e-7379-42d6-9575-726f7261636b,rev?*%
%TF.SameCoordinates,Original*%
%TF.FileFunction,Soldermask,Bot*%
%TF.FilePolarity,Negative*%
%FSLAX46Y46*%
G04 Gerber Fmt 4.6, Leading zero omitted, Abs format (unit mm)*
G04 Created by KiCad (PCBNEW 7.0.10) date 2024-05-23 22:52:30*
%MOMM*%
%LPD*%
G01*
G04 APERTURE LIST*
G04 Aperture macros list*
%AMRoundRect*
0 Rectangle with rounded corners*
0 $1 Rounding radius*
0 $2 $3 $4 $5 $6 $7 $8 $9 X,Y pos of 4 corners*
0 Add a 4 corners polygon primitive as box body*
4,1,4,$2,$3,$4,$5,$6,$7,$8,$9,$2,$3,0*
0 Add four circle primitives for the rounded corners*
1,1,$1+$1,$2,$3*
1,1,$1+$1,$4,$5*
1,1,$1+$1,$6,$7*
1,1,$1+$1,$8,$9*
0 Add four rect primitives between the rounded corners*
20,1,$1+$1,$2,$3,$4,$5,0*
20,1,$1+$1,$4,$5,$6,$7,0*
20,1,$1+$1,$6,$7,$8,$9,0*
20,1,$1+$1,$8,$9,$2,$3,0*%
G04 Aperture macros list end*
%ADD10R,1.700000X1.700000*%
%ADD11C,1.700000*%
%ADD12RoundRect,0.225000X0.225000X0.375000X-0.225000X0.375000X-0.225000X-0.375000X0.225000X-0.375000X0*%
%ADD13RoundRect,0.225000X-0.225000X-0.375000X0.225000X-0.375000X0.225000X0.375000X-0.225000X0.375000X0*%
%ADD14RoundRect,0.225000X-0.375000X0.225000X-0.375000X-0.225000X0.375000X-0.225000X0.375000X0.225000X0*%
%ADD15C,1.600000*%
%ADD16R,1.600000X1.600000*%
%ADD17C,1.524000*%
%ADD18O,1.700000X1.700000*%
%ADD19RoundRect,0.243750X0.243750X0.456250X-0.243750X0.456250X-0.243750X-0.456250X0.243750X-0.456250X0*%
%ADD20R,1.400000X1.300000*%
%ADD21RoundRect,0.075000X-0.075000X0.700000X-0.075000X-0.700000X0.075000X-0.700000X0.075000X0.700000X0*%
%ADD22RoundRect,0.075000X-0.700000X0.075000X-0.700000X-0.075000X0.700000X-0.075000X0.700000X0.075000X0*%
%ADD23R,0.900000X0.800000*%
%ADD24RoundRect,0.100000X0.675000X0.100000X-0.675000X0.100000X-0.675000X-0.100000X0.675000X-0.100000X0*%
%ADD25R,3.200000X5.000000*%
%ADD26RoundRect,0.243750X-0.243750X-0.456250X0.243750X-0.456250X0.243750X0.456250X-0.243750X0.456250X0*%
%ADD27RoundRect,0.243750X0.456250X-0.243750X0.456250X0.243750X-0.456250X0.243750X-0.456250X-0.243750X0*%
%ADD28RoundRect,0.243750X-0.456250X0.243750X-0.456250X-0.243750X0.456250X-0.243750X0.456250X0.243750X0*%
G04 APERTURE END LIST*
D10*
%TO.C,J28*%
X111506000Y-58293000D03*
D11*
X114046000Y-58293000D03*
X111506000Y-55753000D03*
X114046000Y-55753000D03*
X111506000Y-53213000D03*
X114046000Y-53213000D03*
X111506000Y-50673000D03*
X114046000Y-50673000D03*
X111506000Y-48133000D03*
X114046000Y-48133000D03*
X111506000Y-45593000D03*
X114046000Y-45593000D03*
X114046000Y-43053000D03*
X111506000Y-43053000D03*
X111506000Y-40513000D03*
X114046000Y-40513000D03*
%TD*%
D12*
%TO.C,D5*%
X122300000Y-105410000D03*
X119000000Y-105410000D03*
%TD*%
D13*
%TO.C,D4*%
X119000000Y-110490000D03*
X122300000Y-110490000D03*
%TD*%
D12*
%TO.C,D3*%
X117220000Y-111760000D03*
X113920000Y-111760000D03*
%TD*%
D13*
%TO.C,D2*%
X116600000Y-116800000D03*
X113300000Y-116800000D03*
%TD*%
D14*
%TO.C,D1*%
X165100000Y-103250000D03*
X165100000Y-99950000D03*
%TD*%
D15*
%TO.C,C34*%
X158750000Y-50768000D03*
D16*
X158750000Y-48768000D03*
%TD*%
D17*
%TO.C,BB1*%
X110490000Y-64770000D03*
X110490000Y-67310000D03*
X110490000Y-69850000D03*
X110490000Y-72390000D03*
X110490000Y-74930000D03*
X110490000Y-77470000D03*
X110490000Y-80010000D03*
X110490000Y-82550000D03*
X110490000Y-85090000D03*
X110490000Y-87630000D03*
X110490000Y-90170000D03*
X110490000Y-92710000D03*
X110490000Y-95250000D03*
X110490000Y-97790000D03*
X110490000Y-100330000D03*
X110490000Y-102870000D03*
X110490000Y-105410000D03*
X110490000Y-107950000D03*
X110490000Y-110490000D03*
X110490000Y-113030000D03*
X170180000Y-64770000D03*
X170180000Y-67310000D03*
X170180000Y-69850000D03*
X170180000Y-72390000D03*
X170180000Y-74930000D03*
X170180000Y-77470000D03*
X170180000Y-80010000D03*
X170180000Y-82550000D03*
X170180000Y-85090000D03*
X170180000Y-87630000D03*
X170180000Y-90170000D03*
X170180000Y-92710000D03*
X170180000Y-95250000D03*
X170180000Y-97790000D03*
X170180000Y-100330000D03*
X170180000Y-102870000D03*
X170180000Y-105410000D03*
X170180000Y-107950000D03*
X170180000Y-110490000D03*
X170180000Y-113030000D03*
X161925000Y-141478000D03*
X159385000Y-141478000D03*
X156845000Y-141478000D03*
X154305000Y-141478000D03*
X126555500Y-141478000D03*
X124015500Y-141478000D03*
X121475500Y-141478000D03*
X118935500Y-141478000D03*
X118935500Y-36068000D03*
X121475500Y-36068000D03*
X124015500Y-36068000D03*
X126555500Y-36068000D03*
X154305000Y-36068000D03*
X156845000Y-36068000D03*
X159385000Y-36068000D03*
X161925000Y-36068000D03*
%TD*%
D15*
%TO.C,C33*%
X166624000Y-50768000D03*
D16*
X166624000Y-48768000D03*
%TD*%
D15*
%TO.C,C32*%
X160020000Y-78708000D03*
D16*
X160020000Y-76708000D03*
%TD*%
D15*
%TO.C,C31*%
X158750000Y-57118000D03*
D16*
X158750000Y-55118000D03*
%TD*%
D15*
%TO.C,C25*%
X151130000Y-55150000D03*
D16*
X151130000Y-57150000D03*
%TD*%
D15*
%TO.C,C23*%
X152400000Y-76740000D03*
D16*
X152400000Y-78740000D03*
%TD*%
D15*
%TO.C,C21*%
X151130000Y-48800000D03*
D16*
X151130000Y-50800000D03*
%TD*%
D15*
%TO.C,C19*%
X143510000Y-48800000D03*
D16*
X143510000Y-50800000D03*
%TD*%
D18*
%TO.C,J3*%
X158115000Y-111760000D03*
X155575000Y-111760000D03*
D10*
X153035000Y-111760000D03*
%TD*%
D18*
%TO.C,J2*%
X161925000Y-112268000D03*
D10*
X161925000Y-114808000D03*
%TD*%
D18*
%TO.C,J1*%
X158115000Y-115570000D03*
X155575000Y-115570000D03*
D10*
X153035000Y-115570000D03*
%TD*%
D19*
%TO.C,R4*%
X121587500Y-107950000D03*
X119712500Y-107950000D03*
%TD*%
%TO.C,R3*%
X116507500Y-114300000D03*
X114632500Y-114300000D03*
%TD*%
D20*
%TO.C,U7*%
X159900000Y-97640000D03*
X159900000Y-100180000D03*
X159900000Y-102720000D03*
X159900000Y-105260000D03*
X150360000Y-105190000D03*
X150360000Y-102650000D03*
X150360000Y-100110000D03*
X150360000Y-97570000D03*
%TD*%
D21*
%TO.C,U6*%
X121345000Y-75605000D03*
X121845000Y-75605000D03*
X122345000Y-75605000D03*
X122845000Y-75605000D03*
X123345000Y-75605000D03*
X123845000Y-75605000D03*
X124345000Y-75605000D03*
X124845000Y-75605000D03*
X125345000Y-75605000D03*
X125845000Y-75605000D03*
X126345000Y-75605000D03*
X126845000Y-75605000D03*
X127345000Y-75605000D03*
X127845000Y-75605000D03*
X128345000Y-75605000D03*
X128845000Y-75605000D03*
D22*
X130770000Y-77530000D03*
X130770000Y-78030000D03*
X130770000Y-78530000D03*
X130770000Y-79030000D03*
X130770000Y-79530000D03*
X130770000Y-80030000D03*
X130770000Y-80530000D03*
X130770000Y-81030000D03*
X130770000Y-81530000D03*
X130770000Y-82030000D03*
X130770000Y-82530000D03*
X130770000Y-83030000D03*
X130770000Y-83530000D03*
X130770000Y-84030000D03*
X130770000Y-84530000D03*
X130770000Y-85030000D03*
D21*
X128845000Y-86955000D03*
X128345000Y-86955000D03*
X127845000Y-86955000D03*
X127345000Y-86955000D03*
X126845000Y-86955000D03*
X126345000Y-86955000D03*
X125845000Y-86955000D03*
X125345000Y-86955000D03*
X124845000Y-86955000D03*
X124345000Y-86955000D03*
X123845000Y-86955000D03*
X123345000Y-86955000D03*
X122845000Y-86955000D03*
X122345000Y-86955000D03*
X121845000Y-86955000D03*
X121345000Y-86955000D03*
D22*
X119420000Y-85030000D03*
X119420000Y-84530000D03*
X119420000Y-84030000D03*
X119420000Y-83530000D03*
X119420000Y-83030000D03*
X119420000Y-82530000D03*
X119420000Y-82030000D03*
X119420000Y-81530000D03*
X119420000Y-81030000D03*
X119420000Y-80530000D03*
X119420000Y-80030000D03*
X119420000Y-79530000D03*
X119420000Y-79030000D03*
X119420000Y-78530000D03*
X119420000Y-78030000D03*
X119420000Y-77530000D03*
%TD*%
D23*
%TO.C,U5*%
X142510000Y-73975000D03*
X142510000Y-72075000D03*
X144510000Y-73025000D03*
%TD*%
D24*
%TO.C,U3*%
X159555000Y-84455000D03*
X159555000Y-85105000D03*
X159555000Y-85755000D03*
X159555000Y-86405000D03*
X159555000Y-87055000D03*
X159555000Y-87705000D03*
X159555000Y-88355000D03*
X159555000Y-89005000D03*
X159555000Y-89655000D03*
X159555000Y-90305000D03*
X159555000Y-90955000D03*
X159555000Y-91605000D03*
X153805000Y-91605000D03*
X153805000Y-90955000D03*
X153805000Y-90305000D03*
X153805000Y-89655000D03*
X153805000Y-89005000D03*
X153805000Y-88355000D03*
X153805000Y-87705000D03*
X153805000Y-87055000D03*
X153805000Y-86405000D03*
X153805000Y-85755000D03*
X153805000Y-85105000D03*
X153805000Y-84455000D03*
D25*
X156680000Y-88030000D03*
%TD*%
D24*
%TO.C,U2*%
X159555000Y-62465000D03*
X159555000Y-63115000D03*
X159555000Y-63765000D03*
X159555000Y-64415000D03*
X159555000Y-65065000D03*
X159555000Y-65715000D03*
X159555000Y-66365000D03*
X159555000Y-67015000D03*
X159555000Y-67665000D03*
X159555000Y-68315000D03*
X159555000Y-68965000D03*
X159555000Y-69615000D03*
X153805000Y-69615000D03*
X153805000Y-68965000D03*
X153805000Y-68315000D03*
X153805000Y-67665000D03*
X153805000Y-67015000D03*
X153805000Y-66365000D03*
X153805000Y-65715000D03*
X153805000Y-65065000D03*
X153805000Y-64415000D03*
X153805000Y-63765000D03*
X153805000Y-63115000D03*
X153805000Y-62465000D03*
D25*
X156680000Y-66040000D03*
%TD*%
D26*
%TO.C,R38*%
X114632500Y-101600000D03*
X116507500Y-101600000D03*
%TD*%
D27*
%TO.C,R37*%
X165100000Y-97457500D03*
X165100000Y-95582500D03*
%TD*%
D19*
%TO.C,R36*%
X116507500Y-105410000D03*
X114632500Y-105410000D03*
%TD*%
D26*
%TO.C,R7*%
X136222500Y-91440000D03*
X138097500Y-91440000D03*
%TD*%
D28*
%TO.C,R6*%
X121920000Y-63832500D03*
X121920000Y-65707500D03*
%TD*%
%TO.C,R5*%
X118110000Y-63832500D03*
X118110000Y-65707500D03*
%TD*%
%TO.C,R1*%
X128270000Y-63832500D03*
X128270000Y-65707500D03*
%TD*%
D27*
%TO.C,C44*%
X129540000Y-94917500D03*
X129540000Y-93042500D03*
%TD*%
%TO.C,C43*%
X125730000Y-94917500D03*
X125730000Y-93042500D03*
%TD*%
%TO.C,C42*%
X120650000Y-94917500D03*
X120650000Y-93042500D03*
%TD*%
%TO.C,C41*%
X120650000Y-70787500D03*
X120650000Y-68912500D03*
%TD*%
%TO.C,C40*%
X130810000Y-72057500D03*
X130810000Y-70182500D03*
%TD*%
%TO.C,C39*%
X149098000Y-88821500D03*
X149098000Y-86946500D03*
%TD*%
D28*
%TO.C,C38*%
X116840000Y-89232500D03*
X116840000Y-91107500D03*
%TD*%
D27*
%TO.C,C37*%
X145415000Y-66977500D03*
X145415000Y-65102500D03*
%TD*%
D26*
%TO.C,C36*%
X136222500Y-85090000D03*
X138097500Y-85090000D03*
%TD*%
%TO.C,C35*%
X136222500Y-81280000D03*
X138097500Y-81280000D03*
%TD*%
D27*
%TO.C,C30*%
X149225000Y-66977500D03*
X149225000Y-65102500D03*
%TD*%
%TO.C,C29*%
X145415000Y-88870000D03*
X145415000Y-86995000D03*
%TD*%
%TO.C,C28*%
X145542000Y-81074500D03*
X145542000Y-79199500D03*
%TD*%
%TO.C,C27*%
X141605000Y-81074500D03*
X141605000Y-79199500D03*
%TD*%
D26*
%TO.C,C26*%
X165467500Y-72390000D03*
X167342500Y-72390000D03*
%TD*%
%TO.C,C24*%
X165432500Y-87630000D03*
X167307500Y-87630000D03*
%TD*%
%TO.C,C22*%
X165432500Y-68580000D03*
X167307500Y-68580000D03*
%TD*%
%TO.C,C20*%
X165432500Y-91440000D03*
X167307500Y-91440000D03*
%TD*%
D10*
%TO.C,J27*%
X121920000Y-48260000D03*
D18*
X121920000Y-45720000D03*
%TD*%
D15*
%TO.C,U4*%
X110617000Y-137668000D03*
X113157000Y-137668000D03*
X115697000Y-137668000D03*
X118237000Y-137668000D03*
X120777000Y-137668000D03*
X123317000Y-137668000D03*
X125857000Y-137668000D03*
X128397000Y-137668000D03*
X130937000Y-137668000D03*
X133477000Y-137668000D03*
X136017000Y-137668000D03*
X138557000Y-137668000D03*
X141097000Y-137668000D03*
X143637000Y-137668000D03*
D16*
X110617000Y-122428000D03*
D15*
X113157000Y-122428000D03*
X115697000Y-122428000D03*
X118237000Y-122428000D03*
X120777000Y-122428000D03*
X123317000Y-122428000D03*
X125857000Y-122428000D03*
X128397000Y-122428000D03*
X130937000Y-122428000D03*
X133477000Y-122428000D03*
X136017000Y-122428000D03*
X138557000Y-122428000D03*
X141097000Y-122428000D03*
X146177000Y-137668000D03*
X148717000Y-137668000D03*
X151257000Y-137668000D03*
X153797000Y-137668000D03*
X156337000Y-137668000D03*
X158877000Y-137668000D03*
X161417000Y-137668000D03*
X163957000Y-137668000D03*
X166497000Y-137668000D03*
X169037000Y-137668000D03*
X169037000Y-122428000D03*
X166497000Y-122428000D03*
X163957000Y-122428000D03*
X161417000Y-122428000D03*
X143637000Y-122428000D03*
X146177000Y-122428000D03*
X148717000Y-122428000D03*
X158877000Y-122428000D03*
X156337000Y-122428000D03*
X153797000Y-122428000D03*
X151257000Y-122428000D03*
%TD*%
M02*
