%TF.GenerationSoftware,KiCad,Pcbnew,7.0.10*%
%TF.CreationDate,2024-05-23T22:52:30+02:00*%
%TF.ProjectId,teensy-eurorack,7465656e-7379-42d6-9575-726f7261636b,rev?*%
%TF.SameCoordinates,Original*%
%TF.FileFunction,Legend,Top*%
%TF.FilePolarity,Positive*%
%FSLAX46Y46*%
G04 Gerber Fmt 4.6, Leading zero omitted, Abs format (unit mm)*
G04 Created by KiCad (PCBNEW 7.0.10) date 2024-05-23 22:52:30*
%MOMM*%
%LPD*%
G01*
G04 APERTURE LIST*
%ADD10C,0.127000*%
%ADD11C,0.150000*%
%ADD12C,0.300000*%
%ADD13R,1.700000X1.700000*%
%ADD14C,1.700000*%
%ADD15C,1.600000*%
%ADD16R,1.600000X1.600000*%
%ADD17C,1.524000*%
%ADD18O,1.700000X1.700000*%
G04 APERTURE END LIST*
D10*
X156555911Y-136397999D02*
X155793911Y-136397999D01*
X155793911Y-136397999D02*
X155793911Y-136216570D01*
X155793911Y-136216570D02*
X155830197Y-136107713D01*
X155830197Y-136107713D02*
X155902768Y-136035142D01*
X155902768Y-136035142D02*
X155975340Y-135998856D01*
X155975340Y-135998856D02*
X156120483Y-135962570D01*
X156120483Y-135962570D02*
X156229340Y-135962570D01*
X156229340Y-135962570D02*
X156374483Y-135998856D01*
X156374483Y-135998856D02*
X156447054Y-136035142D01*
X156447054Y-136035142D02*
X156519626Y-136107713D01*
X156519626Y-136107713D02*
X156555911Y-136216570D01*
X156555911Y-136216570D02*
X156555911Y-136397999D01*
X156338197Y-135672285D02*
X156338197Y-135309428D01*
X156555911Y-135744856D02*
X155793911Y-135490856D01*
X155793911Y-135490856D02*
X156555911Y-135236856D01*
X156483340Y-134547427D02*
X156519626Y-134583713D01*
X156519626Y-134583713D02*
X156555911Y-134692570D01*
X156555911Y-134692570D02*
X156555911Y-134765142D01*
X156555911Y-134765142D02*
X156519626Y-134873999D01*
X156519626Y-134873999D02*
X156447054Y-134946570D01*
X156447054Y-134946570D02*
X156374483Y-134982856D01*
X156374483Y-134982856D02*
X156229340Y-135019142D01*
X156229340Y-135019142D02*
X156120483Y-135019142D01*
X156120483Y-135019142D02*
X155975340Y-134982856D01*
X155975340Y-134982856D02*
X155902768Y-134946570D01*
X155902768Y-134946570D02*
X155830197Y-134873999D01*
X155830197Y-134873999D02*
X155793911Y-134765142D01*
X155793911Y-134765142D02*
X155793911Y-134692570D01*
X155793911Y-134692570D02*
X155830197Y-134583713D01*
X155830197Y-134583713D02*
X155866483Y-134547427D01*
X156628483Y-134402285D02*
X156628483Y-133821713D01*
X156519626Y-133676571D02*
X156555911Y-133567714D01*
X156555911Y-133567714D02*
X156555911Y-133386285D01*
X156555911Y-133386285D02*
X156519626Y-133313714D01*
X156519626Y-133313714D02*
X156483340Y-133277428D01*
X156483340Y-133277428D02*
X156410768Y-133241142D01*
X156410768Y-133241142D02*
X156338197Y-133241142D01*
X156338197Y-133241142D02*
X156265626Y-133277428D01*
X156265626Y-133277428D02*
X156229340Y-133313714D01*
X156229340Y-133313714D02*
X156193054Y-133386285D01*
X156193054Y-133386285D02*
X156156768Y-133531428D01*
X156156768Y-133531428D02*
X156120483Y-133603999D01*
X156120483Y-133603999D02*
X156084197Y-133640285D01*
X156084197Y-133640285D02*
X156011626Y-133676571D01*
X156011626Y-133676571D02*
X155939054Y-133676571D01*
X155939054Y-133676571D02*
X155866483Y-133640285D01*
X155866483Y-133640285D02*
X155830197Y-133603999D01*
X155830197Y-133603999D02*
X155793911Y-133531428D01*
X155793911Y-133531428D02*
X155793911Y-133349999D01*
X155793911Y-133349999D02*
X155830197Y-133241142D01*
X156193054Y-132769428D02*
X156555911Y-132769428D01*
X155793911Y-133023428D02*
X156193054Y-132769428D01*
X156193054Y-132769428D02*
X155793911Y-132515428D01*
X156555911Y-132261428D02*
X155793911Y-132261428D01*
X155793911Y-132261428D02*
X156555911Y-131825999D01*
X156555911Y-131825999D02*
X155793911Y-131825999D01*
X156483340Y-131027713D02*
X156519626Y-131063999D01*
X156519626Y-131063999D02*
X156555911Y-131172856D01*
X156555911Y-131172856D02*
X156555911Y-131245428D01*
X156555911Y-131245428D02*
X156519626Y-131354285D01*
X156519626Y-131354285D02*
X156447054Y-131426856D01*
X156447054Y-131426856D02*
X156374483Y-131463142D01*
X156374483Y-131463142D02*
X156229340Y-131499428D01*
X156229340Y-131499428D02*
X156120483Y-131499428D01*
X156120483Y-131499428D02*
X155975340Y-131463142D01*
X155975340Y-131463142D02*
X155902768Y-131426856D01*
X155902768Y-131426856D02*
X155830197Y-131354285D01*
X155830197Y-131354285D02*
X155793911Y-131245428D01*
X155793911Y-131245428D02*
X155793911Y-131172856D01*
X155793911Y-131172856D02*
X155830197Y-131063999D01*
X155830197Y-131063999D02*
X155866483Y-131027713D01*
D11*
X165155888Y-64224819D02*
X165489221Y-65224819D01*
X165489221Y-65224819D02*
X165822554Y-64224819D01*
X166155888Y-65224819D02*
X166155888Y-64224819D01*
X166632078Y-65224819D02*
X166632078Y-64224819D01*
X166632078Y-64224819D02*
X167203506Y-65224819D01*
X167203506Y-65224819D02*
X167203506Y-64224819D01*
X167822554Y-64653390D02*
X167727316Y-64605771D01*
X167727316Y-64605771D02*
X167679697Y-64558152D01*
X167679697Y-64558152D02*
X167632078Y-64462914D01*
X167632078Y-64462914D02*
X167632078Y-64415295D01*
X167632078Y-64415295D02*
X167679697Y-64320057D01*
X167679697Y-64320057D02*
X167727316Y-64272438D01*
X167727316Y-64272438D02*
X167822554Y-64224819D01*
X167822554Y-64224819D02*
X168013030Y-64224819D01*
X168013030Y-64224819D02*
X168108268Y-64272438D01*
X168108268Y-64272438D02*
X168155887Y-64320057D01*
X168155887Y-64320057D02*
X168203506Y-64415295D01*
X168203506Y-64415295D02*
X168203506Y-64462914D01*
X168203506Y-64462914D02*
X168155887Y-64558152D01*
X168155887Y-64558152D02*
X168108268Y-64605771D01*
X168108268Y-64605771D02*
X168013030Y-64653390D01*
X168013030Y-64653390D02*
X167822554Y-64653390D01*
X167822554Y-64653390D02*
X167727316Y-64701009D01*
X167727316Y-64701009D02*
X167679697Y-64748628D01*
X167679697Y-64748628D02*
X167632078Y-64843866D01*
X167632078Y-64843866D02*
X167632078Y-65034342D01*
X167632078Y-65034342D02*
X167679697Y-65129580D01*
X167679697Y-65129580D02*
X167727316Y-65177200D01*
X167727316Y-65177200D02*
X167822554Y-65224819D01*
X167822554Y-65224819D02*
X168013030Y-65224819D01*
X168013030Y-65224819D02*
X168108268Y-65177200D01*
X168108268Y-65177200D02*
X168155887Y-65129580D01*
X168155887Y-65129580D02*
X168203506Y-65034342D01*
X168203506Y-65034342D02*
X168203506Y-64843866D01*
X168203506Y-64843866D02*
X168155887Y-64748628D01*
X168155887Y-64748628D02*
X168108268Y-64701009D01*
X168108268Y-64701009D02*
X168013030Y-64653390D01*
X123359104Y-120570238D02*
X123359104Y-120094048D01*
X123644819Y-120665476D02*
X122644819Y-120332143D01*
X122644819Y-120332143D02*
X123644819Y-119998810D01*
X123644819Y-119665476D02*
X122644819Y-119665476D01*
X122644819Y-119665476D02*
X122644819Y-119427381D01*
X122644819Y-119427381D02*
X122692438Y-119284524D01*
X122692438Y-119284524D02*
X122787676Y-119189286D01*
X122787676Y-119189286D02*
X122882914Y-119141667D01*
X122882914Y-119141667D02*
X123073390Y-119094048D01*
X123073390Y-119094048D02*
X123216247Y-119094048D01*
X123216247Y-119094048D02*
X123406723Y-119141667D01*
X123406723Y-119141667D02*
X123501961Y-119189286D01*
X123501961Y-119189286D02*
X123597200Y-119284524D01*
X123597200Y-119284524D02*
X123644819Y-119427381D01*
X123644819Y-119427381D02*
X123644819Y-119665476D01*
X123549580Y-118094048D02*
X123597200Y-118141667D01*
X123597200Y-118141667D02*
X123644819Y-118284524D01*
X123644819Y-118284524D02*
X123644819Y-118379762D01*
X123644819Y-118379762D02*
X123597200Y-118522619D01*
X123597200Y-118522619D02*
X123501961Y-118617857D01*
X123501961Y-118617857D02*
X123406723Y-118665476D01*
X123406723Y-118665476D02*
X123216247Y-118713095D01*
X123216247Y-118713095D02*
X123073390Y-118713095D01*
X123073390Y-118713095D02*
X122882914Y-118665476D01*
X122882914Y-118665476D02*
X122787676Y-118617857D01*
X122787676Y-118617857D02*
X122692438Y-118522619D01*
X122692438Y-118522619D02*
X122644819Y-118379762D01*
X122644819Y-118379762D02*
X122644819Y-118284524D01*
X122644819Y-118284524D02*
X122692438Y-118141667D01*
X122692438Y-118141667D02*
X122740057Y-118094048D01*
X123740057Y-117903572D02*
X123740057Y-117141667D01*
X123644819Y-116332143D02*
X123168628Y-116665476D01*
X123644819Y-116903571D02*
X122644819Y-116903571D01*
X122644819Y-116903571D02*
X122644819Y-116522619D01*
X122644819Y-116522619D02*
X122692438Y-116427381D01*
X122692438Y-116427381D02*
X122740057Y-116379762D01*
X122740057Y-116379762D02*
X122835295Y-116332143D01*
X122835295Y-116332143D02*
X122978152Y-116332143D01*
X122978152Y-116332143D02*
X123073390Y-116379762D01*
X123073390Y-116379762D02*
X123121009Y-116427381D01*
X123121009Y-116427381D02*
X123168628Y-116522619D01*
X123168628Y-116522619D02*
X123168628Y-116903571D01*
X123121009Y-115903571D02*
X123121009Y-115570238D01*
X123644819Y-115427381D02*
X123644819Y-115903571D01*
X123644819Y-115903571D02*
X122644819Y-115903571D01*
X122644819Y-115903571D02*
X122644819Y-115427381D01*
X123597200Y-115046428D02*
X123644819Y-114903571D01*
X123644819Y-114903571D02*
X123644819Y-114665476D01*
X123644819Y-114665476D02*
X123597200Y-114570238D01*
X123597200Y-114570238D02*
X123549580Y-114522619D01*
X123549580Y-114522619D02*
X123454342Y-114475000D01*
X123454342Y-114475000D02*
X123359104Y-114475000D01*
X123359104Y-114475000D02*
X123263866Y-114522619D01*
X123263866Y-114522619D02*
X123216247Y-114570238D01*
X123216247Y-114570238D02*
X123168628Y-114665476D01*
X123168628Y-114665476D02*
X123121009Y-114855952D01*
X123121009Y-114855952D02*
X123073390Y-114951190D01*
X123073390Y-114951190D02*
X123025771Y-114998809D01*
X123025771Y-114998809D02*
X122930533Y-115046428D01*
X122930533Y-115046428D02*
X122835295Y-115046428D01*
X122835295Y-115046428D02*
X122740057Y-114998809D01*
X122740057Y-114998809D02*
X122692438Y-114951190D01*
X122692438Y-114951190D02*
X122644819Y-114855952D01*
X122644819Y-114855952D02*
X122644819Y-114617857D01*
X122644819Y-114617857D02*
X122692438Y-114475000D01*
X123121009Y-114046428D02*
X123121009Y-113713095D01*
X123644819Y-113570238D02*
X123644819Y-114046428D01*
X123644819Y-114046428D02*
X122644819Y-114046428D01*
X122644819Y-114046428D02*
X122644819Y-113570238D01*
X122644819Y-113284523D02*
X122644819Y-112713095D01*
X123644819Y-112998809D02*
X122644819Y-112998809D01*
X158808009Y-128380714D02*
X158808009Y-128047381D01*
X159331819Y-127904524D02*
X159331819Y-128380714D01*
X159331819Y-128380714D02*
X158331819Y-128380714D01*
X158331819Y-128380714D02*
X158331819Y-127904524D01*
X159331819Y-127475952D02*
X158331819Y-127475952D01*
X158331819Y-127475952D02*
X159331819Y-126904524D01*
X159331819Y-126904524D02*
X158331819Y-126904524D01*
X159236580Y-125856905D02*
X159284200Y-125904524D01*
X159284200Y-125904524D02*
X159331819Y-126047381D01*
X159331819Y-126047381D02*
X159331819Y-126142619D01*
X159331819Y-126142619D02*
X159284200Y-126285476D01*
X159284200Y-126285476D02*
X159188961Y-126380714D01*
X159188961Y-126380714D02*
X159093723Y-126428333D01*
X159093723Y-126428333D02*
X158903247Y-126475952D01*
X158903247Y-126475952D02*
X158760390Y-126475952D01*
X158760390Y-126475952D02*
X158569914Y-126428333D01*
X158569914Y-126428333D02*
X158474676Y-126380714D01*
X158474676Y-126380714D02*
X158379438Y-126285476D01*
X158379438Y-126285476D02*
X158331819Y-126142619D01*
X158331819Y-126142619D02*
X158331819Y-126047381D01*
X158331819Y-126047381D02*
X158379438Y-125904524D01*
X158379438Y-125904524D02*
X158427057Y-125856905D01*
X159331819Y-124904524D02*
X159331819Y-125475952D01*
X159331819Y-125190238D02*
X158331819Y-125190238D01*
X158331819Y-125190238D02*
X158474676Y-125285476D01*
X158474676Y-125285476D02*
X158569914Y-125380714D01*
X158569914Y-125380714D02*
X158617533Y-125475952D01*
X159046104Y-124523571D02*
X159046104Y-124047381D01*
X159331819Y-124618809D02*
X158331819Y-124285476D01*
X158331819Y-124285476D02*
X159331819Y-123952143D01*
X161348009Y-128523571D02*
X161348009Y-128190238D01*
X161871819Y-128047381D02*
X161871819Y-128523571D01*
X161871819Y-128523571D02*
X160871819Y-128523571D01*
X160871819Y-128523571D02*
X160871819Y-128047381D01*
X161871819Y-127618809D02*
X160871819Y-127618809D01*
X160871819Y-127618809D02*
X161871819Y-127047381D01*
X161871819Y-127047381D02*
X160871819Y-127047381D01*
X161776580Y-125999762D02*
X161824200Y-126047381D01*
X161824200Y-126047381D02*
X161871819Y-126190238D01*
X161871819Y-126190238D02*
X161871819Y-126285476D01*
X161871819Y-126285476D02*
X161824200Y-126428333D01*
X161824200Y-126428333D02*
X161728961Y-126523571D01*
X161728961Y-126523571D02*
X161633723Y-126571190D01*
X161633723Y-126571190D02*
X161443247Y-126618809D01*
X161443247Y-126618809D02*
X161300390Y-126618809D01*
X161300390Y-126618809D02*
X161109914Y-126571190D01*
X161109914Y-126571190D02*
X161014676Y-126523571D01*
X161014676Y-126523571D02*
X160919438Y-126428333D01*
X160919438Y-126428333D02*
X160871819Y-126285476D01*
X160871819Y-126285476D02*
X160871819Y-126190238D01*
X160871819Y-126190238D02*
X160919438Y-126047381D01*
X160919438Y-126047381D02*
X160967057Y-125999762D01*
X161871819Y-125047381D02*
X161871819Y-125618809D01*
X161871819Y-125333095D02*
X160871819Y-125333095D01*
X160871819Y-125333095D02*
X161014676Y-125428333D01*
X161014676Y-125428333D02*
X161109914Y-125523571D01*
X161109914Y-125523571D02*
X161157533Y-125618809D01*
X161348009Y-124285476D02*
X161395628Y-124142619D01*
X161395628Y-124142619D02*
X161443247Y-124095000D01*
X161443247Y-124095000D02*
X161538485Y-124047381D01*
X161538485Y-124047381D02*
X161681342Y-124047381D01*
X161681342Y-124047381D02*
X161776580Y-124095000D01*
X161776580Y-124095000D02*
X161824200Y-124142619D01*
X161824200Y-124142619D02*
X161871819Y-124237857D01*
X161871819Y-124237857D02*
X161871819Y-124618809D01*
X161871819Y-124618809D02*
X160871819Y-124618809D01*
X160871819Y-124618809D02*
X160871819Y-124285476D01*
X160871819Y-124285476D02*
X160919438Y-124190238D01*
X160919438Y-124190238D02*
X160967057Y-124142619D01*
X160967057Y-124142619D02*
X161062295Y-124095000D01*
X161062295Y-124095000D02*
X161157533Y-124095000D01*
X161157533Y-124095000D02*
X161252771Y-124142619D01*
X161252771Y-124142619D02*
X161300390Y-124190238D01*
X161300390Y-124190238D02*
X161348009Y-124285476D01*
X161348009Y-124285476D02*
X161348009Y-124618809D01*
X163761009Y-129618809D02*
X163761009Y-129285476D01*
X164284819Y-129142619D02*
X164284819Y-129618809D01*
X164284819Y-129618809D02*
X163284819Y-129618809D01*
X163284819Y-129618809D02*
X163284819Y-129142619D01*
X164284819Y-128714047D02*
X163284819Y-128714047D01*
X163284819Y-128714047D02*
X164284819Y-128142619D01*
X164284819Y-128142619D02*
X163284819Y-128142619D01*
X164189580Y-127095000D02*
X164237200Y-127142619D01*
X164237200Y-127142619D02*
X164284819Y-127285476D01*
X164284819Y-127285476D02*
X164284819Y-127380714D01*
X164284819Y-127380714D02*
X164237200Y-127523571D01*
X164237200Y-127523571D02*
X164141961Y-127618809D01*
X164141961Y-127618809D02*
X164046723Y-127666428D01*
X164046723Y-127666428D02*
X163856247Y-127714047D01*
X163856247Y-127714047D02*
X163713390Y-127714047D01*
X163713390Y-127714047D02*
X163522914Y-127666428D01*
X163522914Y-127666428D02*
X163427676Y-127618809D01*
X163427676Y-127618809D02*
X163332438Y-127523571D01*
X163332438Y-127523571D02*
X163284819Y-127380714D01*
X163284819Y-127380714D02*
X163284819Y-127285476D01*
X163284819Y-127285476D02*
X163332438Y-127142619D01*
X163332438Y-127142619D02*
X163380057Y-127095000D01*
X164284819Y-126142619D02*
X164284819Y-126714047D01*
X164284819Y-126428333D02*
X163284819Y-126428333D01*
X163284819Y-126428333D02*
X163427676Y-126523571D01*
X163427676Y-126523571D02*
X163522914Y-126618809D01*
X163522914Y-126618809D02*
X163570533Y-126714047D01*
X164237200Y-125761666D02*
X164284819Y-125618809D01*
X164284819Y-125618809D02*
X164284819Y-125380714D01*
X164284819Y-125380714D02*
X164237200Y-125285476D01*
X164237200Y-125285476D02*
X164189580Y-125237857D01*
X164189580Y-125237857D02*
X164094342Y-125190238D01*
X164094342Y-125190238D02*
X163999104Y-125190238D01*
X163999104Y-125190238D02*
X163903866Y-125237857D01*
X163903866Y-125237857D02*
X163856247Y-125285476D01*
X163856247Y-125285476D02*
X163808628Y-125380714D01*
X163808628Y-125380714D02*
X163761009Y-125571190D01*
X163761009Y-125571190D02*
X163713390Y-125666428D01*
X163713390Y-125666428D02*
X163665771Y-125714047D01*
X163665771Y-125714047D02*
X163570533Y-125761666D01*
X163570533Y-125761666D02*
X163475295Y-125761666D01*
X163475295Y-125761666D02*
X163380057Y-125714047D01*
X163380057Y-125714047D02*
X163332438Y-125666428D01*
X163332438Y-125666428D02*
X163284819Y-125571190D01*
X163284819Y-125571190D02*
X163284819Y-125333095D01*
X163284819Y-125333095D02*
X163332438Y-125190238D01*
X163284819Y-124856904D02*
X164284819Y-124618809D01*
X164284819Y-124618809D02*
X163570533Y-124428333D01*
X163570533Y-124428333D02*
X164284819Y-124237857D01*
X164284819Y-124237857D02*
X163284819Y-123999762D01*
X166539104Y-136143570D02*
X166539104Y-135667380D01*
X166824819Y-136238808D02*
X165824819Y-135905475D01*
X165824819Y-135905475D02*
X166824819Y-135572142D01*
X166824819Y-135238808D02*
X165824819Y-135238808D01*
X165824819Y-135238808D02*
X165824819Y-135000713D01*
X165824819Y-135000713D02*
X165872438Y-134857856D01*
X165872438Y-134857856D02*
X165967676Y-134762618D01*
X165967676Y-134762618D02*
X166062914Y-134714999D01*
X166062914Y-134714999D02*
X166253390Y-134667380D01*
X166253390Y-134667380D02*
X166396247Y-134667380D01*
X166396247Y-134667380D02*
X166586723Y-134714999D01*
X166586723Y-134714999D02*
X166681961Y-134762618D01*
X166681961Y-134762618D02*
X166777200Y-134857856D01*
X166777200Y-134857856D02*
X166824819Y-135000713D01*
X166824819Y-135000713D02*
X166824819Y-135238808D01*
X166729580Y-133667380D02*
X166777200Y-133714999D01*
X166777200Y-133714999D02*
X166824819Y-133857856D01*
X166824819Y-133857856D02*
X166824819Y-133953094D01*
X166824819Y-133953094D02*
X166777200Y-134095951D01*
X166777200Y-134095951D02*
X166681961Y-134191189D01*
X166681961Y-134191189D02*
X166586723Y-134238808D01*
X166586723Y-134238808D02*
X166396247Y-134286427D01*
X166396247Y-134286427D02*
X166253390Y-134286427D01*
X166253390Y-134286427D02*
X166062914Y-134238808D01*
X166062914Y-134238808D02*
X165967676Y-134191189D01*
X165967676Y-134191189D02*
X165872438Y-134095951D01*
X165872438Y-134095951D02*
X165824819Y-133953094D01*
X165824819Y-133953094D02*
X165824819Y-133857856D01*
X165824819Y-133857856D02*
X165872438Y-133714999D01*
X165872438Y-133714999D02*
X165920057Y-133667380D01*
X166920057Y-133476904D02*
X166920057Y-132714999D01*
X166824819Y-132476903D02*
X165824819Y-132476903D01*
X165824819Y-132476903D02*
X166539104Y-132143570D01*
X166539104Y-132143570D02*
X165824819Y-131810237D01*
X165824819Y-131810237D02*
X166824819Y-131810237D01*
X166824819Y-131334046D02*
X165824819Y-131334046D01*
X166777200Y-130905475D02*
X166824819Y-130762618D01*
X166824819Y-130762618D02*
X166824819Y-130524523D01*
X166824819Y-130524523D02*
X166777200Y-130429285D01*
X166777200Y-130429285D02*
X166729580Y-130381666D01*
X166729580Y-130381666D02*
X166634342Y-130334047D01*
X166634342Y-130334047D02*
X166539104Y-130334047D01*
X166539104Y-130334047D02*
X166443866Y-130381666D01*
X166443866Y-130381666D02*
X166396247Y-130429285D01*
X166396247Y-130429285D02*
X166348628Y-130524523D01*
X166348628Y-130524523D02*
X166301009Y-130714999D01*
X166301009Y-130714999D02*
X166253390Y-130810237D01*
X166253390Y-130810237D02*
X166205771Y-130857856D01*
X166205771Y-130857856D02*
X166110533Y-130905475D01*
X166110533Y-130905475D02*
X166015295Y-130905475D01*
X166015295Y-130905475D02*
X165920057Y-130857856D01*
X165920057Y-130857856D02*
X165872438Y-130810237D01*
X165872438Y-130810237D02*
X165824819Y-130714999D01*
X165824819Y-130714999D02*
X165824819Y-130476904D01*
X165824819Y-130476904D02*
X165872438Y-130334047D01*
X165824819Y-129714999D02*
X165824819Y-129524523D01*
X165824819Y-129524523D02*
X165872438Y-129429285D01*
X165872438Y-129429285D02*
X165967676Y-129334047D01*
X165967676Y-129334047D02*
X166158152Y-129286428D01*
X166158152Y-129286428D02*
X166491485Y-129286428D01*
X166491485Y-129286428D02*
X166681961Y-129334047D01*
X166681961Y-129334047D02*
X166777200Y-129429285D01*
X166777200Y-129429285D02*
X166824819Y-129524523D01*
X166824819Y-129524523D02*
X166824819Y-129714999D01*
X166824819Y-129714999D02*
X166777200Y-129810237D01*
X166777200Y-129810237D02*
X166681961Y-129905475D01*
X166681961Y-129905475D02*
X166491485Y-129953094D01*
X166491485Y-129953094D02*
X166158152Y-129953094D01*
X166158152Y-129953094D02*
X165967676Y-129905475D01*
X165967676Y-129905475D02*
X165872438Y-129810237D01*
X165872438Y-129810237D02*
X165824819Y-129714999D01*
X161459104Y-136143570D02*
X161459104Y-135667380D01*
X161744819Y-136238808D02*
X160744819Y-135905475D01*
X160744819Y-135905475D02*
X161744819Y-135572142D01*
X161744819Y-135238808D02*
X160744819Y-135238808D01*
X160744819Y-135238808D02*
X160744819Y-135000713D01*
X160744819Y-135000713D02*
X160792438Y-134857856D01*
X160792438Y-134857856D02*
X160887676Y-134762618D01*
X160887676Y-134762618D02*
X160982914Y-134714999D01*
X160982914Y-134714999D02*
X161173390Y-134667380D01*
X161173390Y-134667380D02*
X161316247Y-134667380D01*
X161316247Y-134667380D02*
X161506723Y-134714999D01*
X161506723Y-134714999D02*
X161601961Y-134762618D01*
X161601961Y-134762618D02*
X161697200Y-134857856D01*
X161697200Y-134857856D02*
X161744819Y-135000713D01*
X161744819Y-135000713D02*
X161744819Y-135238808D01*
X161649580Y-133667380D02*
X161697200Y-133714999D01*
X161697200Y-133714999D02*
X161744819Y-133857856D01*
X161744819Y-133857856D02*
X161744819Y-133953094D01*
X161744819Y-133953094D02*
X161697200Y-134095951D01*
X161697200Y-134095951D02*
X161601961Y-134191189D01*
X161601961Y-134191189D02*
X161506723Y-134238808D01*
X161506723Y-134238808D02*
X161316247Y-134286427D01*
X161316247Y-134286427D02*
X161173390Y-134286427D01*
X161173390Y-134286427D02*
X160982914Y-134238808D01*
X160982914Y-134238808D02*
X160887676Y-134191189D01*
X160887676Y-134191189D02*
X160792438Y-134095951D01*
X160792438Y-134095951D02*
X160744819Y-133953094D01*
X160744819Y-133953094D02*
X160744819Y-133857856D01*
X160744819Y-133857856D02*
X160792438Y-133714999D01*
X160792438Y-133714999D02*
X160840057Y-133667380D01*
X161840057Y-133476904D02*
X161840057Y-132714999D01*
X161649580Y-131905475D02*
X161697200Y-131953094D01*
X161697200Y-131953094D02*
X161744819Y-132095951D01*
X161744819Y-132095951D02*
X161744819Y-132191189D01*
X161744819Y-132191189D02*
X161697200Y-132334046D01*
X161697200Y-132334046D02*
X161601961Y-132429284D01*
X161601961Y-132429284D02*
X161506723Y-132476903D01*
X161506723Y-132476903D02*
X161316247Y-132524522D01*
X161316247Y-132524522D02*
X161173390Y-132524522D01*
X161173390Y-132524522D02*
X160982914Y-132476903D01*
X160982914Y-132476903D02*
X160887676Y-132429284D01*
X160887676Y-132429284D02*
X160792438Y-132334046D01*
X160792438Y-132334046D02*
X160744819Y-132191189D01*
X160744819Y-132191189D02*
X160744819Y-132095951D01*
X160744819Y-132095951D02*
X160792438Y-131953094D01*
X160792438Y-131953094D02*
X160840057Y-131905475D01*
X161697200Y-131524522D02*
X161744819Y-131381665D01*
X161744819Y-131381665D02*
X161744819Y-131143570D01*
X161744819Y-131143570D02*
X161697200Y-131048332D01*
X161697200Y-131048332D02*
X161649580Y-131000713D01*
X161649580Y-131000713D02*
X161554342Y-130953094D01*
X161554342Y-130953094D02*
X161459104Y-130953094D01*
X161459104Y-130953094D02*
X161363866Y-131000713D01*
X161363866Y-131000713D02*
X161316247Y-131048332D01*
X161316247Y-131048332D02*
X161268628Y-131143570D01*
X161268628Y-131143570D02*
X161221009Y-131334046D01*
X161221009Y-131334046D02*
X161173390Y-131429284D01*
X161173390Y-131429284D02*
X161125771Y-131476903D01*
X161125771Y-131476903D02*
X161030533Y-131524522D01*
X161030533Y-131524522D02*
X160935295Y-131524522D01*
X160935295Y-131524522D02*
X160840057Y-131476903D01*
X160840057Y-131476903D02*
X160792438Y-131429284D01*
X160792438Y-131429284D02*
X160744819Y-131334046D01*
X160744819Y-131334046D02*
X160744819Y-131095951D01*
X160744819Y-131095951D02*
X160792438Y-130953094D01*
X158919104Y-136191189D02*
X158919104Y-135714999D01*
X159204819Y-136286427D02*
X158204819Y-135953094D01*
X158204819Y-135953094D02*
X159204819Y-135619761D01*
X159204819Y-135286427D02*
X158204819Y-135286427D01*
X158204819Y-135286427D02*
X158204819Y-135048332D01*
X158204819Y-135048332D02*
X158252438Y-134905475D01*
X158252438Y-134905475D02*
X158347676Y-134810237D01*
X158347676Y-134810237D02*
X158442914Y-134762618D01*
X158442914Y-134762618D02*
X158633390Y-134714999D01*
X158633390Y-134714999D02*
X158776247Y-134714999D01*
X158776247Y-134714999D02*
X158966723Y-134762618D01*
X158966723Y-134762618D02*
X159061961Y-134810237D01*
X159061961Y-134810237D02*
X159157200Y-134905475D01*
X159157200Y-134905475D02*
X159204819Y-135048332D01*
X159204819Y-135048332D02*
X159204819Y-135286427D01*
X159109580Y-133714999D02*
X159157200Y-133762618D01*
X159157200Y-133762618D02*
X159204819Y-133905475D01*
X159204819Y-133905475D02*
X159204819Y-134000713D01*
X159204819Y-134000713D02*
X159157200Y-134143570D01*
X159157200Y-134143570D02*
X159061961Y-134238808D01*
X159061961Y-134238808D02*
X158966723Y-134286427D01*
X158966723Y-134286427D02*
X158776247Y-134334046D01*
X158776247Y-134334046D02*
X158633390Y-134334046D01*
X158633390Y-134334046D02*
X158442914Y-134286427D01*
X158442914Y-134286427D02*
X158347676Y-134238808D01*
X158347676Y-134238808D02*
X158252438Y-134143570D01*
X158252438Y-134143570D02*
X158204819Y-134000713D01*
X158204819Y-134000713D02*
X158204819Y-133905475D01*
X158204819Y-133905475D02*
X158252438Y-133762618D01*
X158252438Y-133762618D02*
X158300057Y-133714999D01*
X159300057Y-133524523D02*
X159300057Y-132762618D01*
X159204819Y-131953094D02*
X158728628Y-132286427D01*
X159204819Y-132524522D02*
X158204819Y-132524522D01*
X158204819Y-132524522D02*
X158204819Y-132143570D01*
X158204819Y-132143570D02*
X158252438Y-132048332D01*
X158252438Y-132048332D02*
X158300057Y-132000713D01*
X158300057Y-132000713D02*
X158395295Y-131953094D01*
X158395295Y-131953094D02*
X158538152Y-131953094D01*
X158538152Y-131953094D02*
X158633390Y-132000713D01*
X158633390Y-132000713D02*
X158681009Y-132048332D01*
X158681009Y-132048332D02*
X158728628Y-132143570D01*
X158728628Y-132143570D02*
X158728628Y-132524522D01*
X159204819Y-131524522D02*
X158204819Y-131524522D01*
X158204819Y-131524522D02*
X159204819Y-130953094D01*
X159204819Y-130953094D02*
X158204819Y-130953094D01*
X158252438Y-129953094D02*
X158204819Y-130048332D01*
X158204819Y-130048332D02*
X158204819Y-130191189D01*
X158204819Y-130191189D02*
X158252438Y-130334046D01*
X158252438Y-130334046D02*
X158347676Y-130429284D01*
X158347676Y-130429284D02*
X158442914Y-130476903D01*
X158442914Y-130476903D02*
X158633390Y-130524522D01*
X158633390Y-130524522D02*
X158776247Y-130524522D01*
X158776247Y-130524522D02*
X158966723Y-130476903D01*
X158966723Y-130476903D02*
X159061961Y-130429284D01*
X159061961Y-130429284D02*
X159157200Y-130334046D01*
X159157200Y-130334046D02*
X159204819Y-130191189D01*
X159204819Y-130191189D02*
X159204819Y-130095951D01*
X159204819Y-130095951D02*
X159157200Y-129953094D01*
X159157200Y-129953094D02*
X159109580Y-129905475D01*
X159109580Y-129905475D02*
X158776247Y-129905475D01*
X158776247Y-129905475D02*
X158776247Y-130095951D01*
X115643866Y-136095951D02*
X115643866Y-135334047D01*
X116024819Y-135714999D02*
X115262914Y-135714999D01*
X115024819Y-134953094D02*
X115024819Y-134334047D01*
X115024819Y-134334047D02*
X115405771Y-134667380D01*
X115405771Y-134667380D02*
X115405771Y-134524523D01*
X115405771Y-134524523D02*
X115453390Y-134429285D01*
X115453390Y-134429285D02*
X115501009Y-134381666D01*
X115501009Y-134381666D02*
X115596247Y-134334047D01*
X115596247Y-134334047D02*
X115834342Y-134334047D01*
X115834342Y-134334047D02*
X115929580Y-134381666D01*
X115929580Y-134381666D02*
X115977200Y-134429285D01*
X115977200Y-134429285D02*
X116024819Y-134524523D01*
X116024819Y-134524523D02*
X116024819Y-134810237D01*
X116024819Y-134810237D02*
X115977200Y-134905475D01*
X115977200Y-134905475D02*
X115929580Y-134953094D01*
X115024819Y-134048332D02*
X116024819Y-133714999D01*
X116024819Y-133714999D02*
X115024819Y-133381666D01*
X115024819Y-133143570D02*
X115024819Y-132524523D01*
X115024819Y-132524523D02*
X115405771Y-132857856D01*
X115405771Y-132857856D02*
X115405771Y-132714999D01*
X115405771Y-132714999D02*
X115453390Y-132619761D01*
X115453390Y-132619761D02*
X115501009Y-132572142D01*
X115501009Y-132572142D02*
X115596247Y-132524523D01*
X115596247Y-132524523D02*
X115834342Y-132524523D01*
X115834342Y-132524523D02*
X115929580Y-132572142D01*
X115929580Y-132572142D02*
X115977200Y-132619761D01*
X115977200Y-132619761D02*
X116024819Y-132714999D01*
X116024819Y-132714999D02*
X116024819Y-133000713D01*
X116024819Y-133000713D02*
X115977200Y-133095951D01*
X115977200Y-133095951D02*
X115929580Y-133143570D01*
X112532438Y-135572142D02*
X112484819Y-135667380D01*
X112484819Y-135667380D02*
X112484819Y-135810237D01*
X112484819Y-135810237D02*
X112532438Y-135953094D01*
X112532438Y-135953094D02*
X112627676Y-136048332D01*
X112627676Y-136048332D02*
X112722914Y-136095951D01*
X112722914Y-136095951D02*
X112913390Y-136143570D01*
X112913390Y-136143570D02*
X113056247Y-136143570D01*
X113056247Y-136143570D02*
X113246723Y-136095951D01*
X113246723Y-136095951D02*
X113341961Y-136048332D01*
X113341961Y-136048332D02*
X113437200Y-135953094D01*
X113437200Y-135953094D02*
X113484819Y-135810237D01*
X113484819Y-135810237D02*
X113484819Y-135714999D01*
X113484819Y-135714999D02*
X113437200Y-135572142D01*
X113437200Y-135572142D02*
X113389580Y-135524523D01*
X113389580Y-135524523D02*
X113056247Y-135524523D01*
X113056247Y-135524523D02*
X113056247Y-135714999D01*
X113484819Y-135095951D02*
X112484819Y-135095951D01*
X112484819Y-135095951D02*
X113484819Y-134524523D01*
X113484819Y-134524523D02*
X112484819Y-134524523D01*
X113484819Y-134048332D02*
X112484819Y-134048332D01*
X112484819Y-134048332D02*
X112484819Y-133810237D01*
X112484819Y-133810237D02*
X112532438Y-133667380D01*
X112532438Y-133667380D02*
X112627676Y-133572142D01*
X112627676Y-133572142D02*
X112722914Y-133524523D01*
X112722914Y-133524523D02*
X112913390Y-133476904D01*
X112913390Y-133476904D02*
X113056247Y-133476904D01*
X113056247Y-133476904D02*
X113246723Y-133524523D01*
X113246723Y-133524523D02*
X113341961Y-133572142D01*
X113341961Y-133572142D02*
X113437200Y-133667380D01*
X113437200Y-133667380D02*
X113484819Y-133810237D01*
X113484819Y-133810237D02*
X113484819Y-134048332D01*
X110563866Y-136095951D02*
X110563866Y-135334047D01*
X110944819Y-135714999D02*
X110182914Y-135714999D01*
X109944819Y-134381666D02*
X109944819Y-134857856D01*
X109944819Y-134857856D02*
X110421009Y-134905475D01*
X110421009Y-134905475D02*
X110373390Y-134857856D01*
X110373390Y-134857856D02*
X110325771Y-134762618D01*
X110325771Y-134762618D02*
X110325771Y-134524523D01*
X110325771Y-134524523D02*
X110373390Y-134429285D01*
X110373390Y-134429285D02*
X110421009Y-134381666D01*
X110421009Y-134381666D02*
X110516247Y-134334047D01*
X110516247Y-134334047D02*
X110754342Y-134334047D01*
X110754342Y-134334047D02*
X110849580Y-134381666D01*
X110849580Y-134381666D02*
X110897200Y-134429285D01*
X110897200Y-134429285D02*
X110944819Y-134524523D01*
X110944819Y-134524523D02*
X110944819Y-134762618D01*
X110944819Y-134762618D02*
X110897200Y-134857856D01*
X110897200Y-134857856D02*
X110849580Y-134905475D01*
X109944819Y-134048332D02*
X110944819Y-133714999D01*
X110944819Y-133714999D02*
X109944819Y-133381666D01*
X109992438Y-119998809D02*
X109944819Y-120094047D01*
X109944819Y-120094047D02*
X109944819Y-120236904D01*
X109944819Y-120236904D02*
X109992438Y-120379761D01*
X109992438Y-120379761D02*
X110087676Y-120474999D01*
X110087676Y-120474999D02*
X110182914Y-120522618D01*
X110182914Y-120522618D02*
X110373390Y-120570237D01*
X110373390Y-120570237D02*
X110516247Y-120570237D01*
X110516247Y-120570237D02*
X110706723Y-120522618D01*
X110706723Y-120522618D02*
X110801961Y-120474999D01*
X110801961Y-120474999D02*
X110897200Y-120379761D01*
X110897200Y-120379761D02*
X110944819Y-120236904D01*
X110944819Y-120236904D02*
X110944819Y-120141666D01*
X110944819Y-120141666D02*
X110897200Y-119998809D01*
X110897200Y-119998809D02*
X110849580Y-119951190D01*
X110849580Y-119951190D02*
X110516247Y-119951190D01*
X110516247Y-119951190D02*
X110516247Y-120141666D01*
X110944819Y-119522618D02*
X109944819Y-119522618D01*
X109944819Y-119522618D02*
X110944819Y-118951190D01*
X110944819Y-118951190D02*
X109944819Y-118951190D01*
X110944819Y-118474999D02*
X109944819Y-118474999D01*
X109944819Y-118474999D02*
X109944819Y-118236904D01*
X109944819Y-118236904D02*
X109992438Y-118094047D01*
X109992438Y-118094047D02*
X110087676Y-117998809D01*
X110087676Y-117998809D02*
X110182914Y-117951190D01*
X110182914Y-117951190D02*
X110373390Y-117903571D01*
X110373390Y-117903571D02*
X110516247Y-117903571D01*
X110516247Y-117903571D02*
X110706723Y-117951190D01*
X110706723Y-117951190D02*
X110801961Y-117998809D01*
X110801961Y-117998809D02*
X110897200Y-118094047D01*
X110897200Y-118094047D02*
X110944819Y-118236904D01*
X110944819Y-118236904D02*
X110944819Y-118474999D01*
X151711819Y-126094999D02*
X150711819Y-126094999D01*
X151711819Y-125618809D02*
X150711819Y-125618809D01*
X150711819Y-125618809D02*
X151711819Y-125047381D01*
X151711819Y-125047381D02*
X150711819Y-125047381D01*
X151711819Y-124047381D02*
X151711819Y-124618809D01*
X151711819Y-124333095D02*
X150711819Y-124333095D01*
X150711819Y-124333095D02*
X150854676Y-124428333D01*
X150854676Y-124428333D02*
X150949914Y-124523571D01*
X150949914Y-124523571D02*
X150997533Y-124618809D01*
X149044819Y-126094999D02*
X148044819Y-126094999D01*
X149044819Y-125618809D02*
X148044819Y-125618809D01*
X148044819Y-125618809D02*
X149044819Y-125047381D01*
X149044819Y-125047381D02*
X148044819Y-125047381D01*
X148140057Y-124618809D02*
X148092438Y-124571190D01*
X148092438Y-124571190D02*
X148044819Y-124475952D01*
X148044819Y-124475952D02*
X148044819Y-124237857D01*
X148044819Y-124237857D02*
X148092438Y-124142619D01*
X148092438Y-124142619D02*
X148140057Y-124095000D01*
X148140057Y-124095000D02*
X148235295Y-124047381D01*
X148235295Y-124047381D02*
X148330533Y-124047381D01*
X148330533Y-124047381D02*
X148473390Y-124095000D01*
X148473390Y-124095000D02*
X149044819Y-124666428D01*
X149044819Y-124666428D02*
X149044819Y-124047381D01*
X154124819Y-136286618D02*
X153124819Y-136286618D01*
X153124819Y-136286618D02*
X153839104Y-135953285D01*
X153839104Y-135953285D02*
X153124819Y-135619952D01*
X153124819Y-135619952D02*
X154124819Y-135619952D01*
X154124819Y-135143761D02*
X153124819Y-135143761D01*
X154077200Y-134715190D02*
X154124819Y-134572333D01*
X154124819Y-134572333D02*
X154124819Y-134334238D01*
X154124819Y-134334238D02*
X154077200Y-134239000D01*
X154077200Y-134239000D02*
X154029580Y-134191381D01*
X154029580Y-134191381D02*
X153934342Y-134143762D01*
X153934342Y-134143762D02*
X153839104Y-134143762D01*
X153839104Y-134143762D02*
X153743866Y-134191381D01*
X153743866Y-134191381D02*
X153696247Y-134239000D01*
X153696247Y-134239000D02*
X153648628Y-134334238D01*
X153648628Y-134334238D02*
X153601009Y-134524714D01*
X153601009Y-134524714D02*
X153553390Y-134619952D01*
X153553390Y-134619952D02*
X153505771Y-134667571D01*
X153505771Y-134667571D02*
X153410533Y-134715190D01*
X153410533Y-134715190D02*
X153315295Y-134715190D01*
X153315295Y-134715190D02*
X153220057Y-134667571D01*
X153220057Y-134667571D02*
X153172438Y-134619952D01*
X153172438Y-134619952D02*
X153124819Y-134524714D01*
X153124819Y-134524714D02*
X153124819Y-134286619D01*
X153124819Y-134286619D02*
X153172438Y-134143762D01*
X153124819Y-133524714D02*
X153124819Y-133334238D01*
X153124819Y-133334238D02*
X153172438Y-133239000D01*
X153172438Y-133239000D02*
X153267676Y-133143762D01*
X153267676Y-133143762D02*
X153458152Y-133096143D01*
X153458152Y-133096143D02*
X153791485Y-133096143D01*
X153791485Y-133096143D02*
X153981961Y-133143762D01*
X153981961Y-133143762D02*
X154077200Y-133239000D01*
X154077200Y-133239000D02*
X154124819Y-133334238D01*
X154124819Y-133334238D02*
X154124819Y-133524714D01*
X154124819Y-133524714D02*
X154077200Y-133619952D01*
X154077200Y-133619952D02*
X153981961Y-133715190D01*
X153981961Y-133715190D02*
X153791485Y-133762809D01*
X153791485Y-133762809D02*
X153458152Y-133762809D01*
X153458152Y-133762809D02*
X153267676Y-133715190D01*
X153267676Y-133715190D02*
X153172438Y-133619952D01*
X153172438Y-133619952D02*
X153124819Y-133524714D01*
X154124819Y-132143762D02*
X154124819Y-132715190D01*
X154124819Y-132429476D02*
X153124819Y-132429476D01*
X153124819Y-132429476D02*
X153267676Y-132524714D01*
X153267676Y-132524714D02*
X153362914Y-132619952D01*
X153362914Y-132619952D02*
X153410533Y-132715190D01*
X145552438Y-135572142D02*
X145504819Y-135667380D01*
X145504819Y-135667380D02*
X145504819Y-135810237D01*
X145504819Y-135810237D02*
X145552438Y-135953094D01*
X145552438Y-135953094D02*
X145647676Y-136048332D01*
X145647676Y-136048332D02*
X145742914Y-136095951D01*
X145742914Y-136095951D02*
X145933390Y-136143570D01*
X145933390Y-136143570D02*
X146076247Y-136143570D01*
X146076247Y-136143570D02*
X146266723Y-136095951D01*
X146266723Y-136095951D02*
X146361961Y-136048332D01*
X146361961Y-136048332D02*
X146457200Y-135953094D01*
X146457200Y-135953094D02*
X146504819Y-135810237D01*
X146504819Y-135810237D02*
X146504819Y-135714999D01*
X146504819Y-135714999D02*
X146457200Y-135572142D01*
X146457200Y-135572142D02*
X146409580Y-135524523D01*
X146409580Y-135524523D02*
X146076247Y-135524523D01*
X146076247Y-135524523D02*
X146076247Y-135714999D01*
X146504819Y-135095951D02*
X145504819Y-135095951D01*
X145504819Y-135095951D02*
X146504819Y-134524523D01*
X146504819Y-134524523D02*
X145504819Y-134524523D01*
X146504819Y-134048332D02*
X145504819Y-134048332D01*
X145504819Y-134048332D02*
X145504819Y-133810237D01*
X145504819Y-133810237D02*
X145552438Y-133667380D01*
X145552438Y-133667380D02*
X145647676Y-133572142D01*
X145647676Y-133572142D02*
X145742914Y-133524523D01*
X145742914Y-133524523D02*
X145933390Y-133476904D01*
X145933390Y-133476904D02*
X146076247Y-133476904D01*
X146076247Y-133476904D02*
X146266723Y-133524523D01*
X146266723Y-133524523D02*
X146361961Y-133572142D01*
X146361961Y-133572142D02*
X146457200Y-133667380D01*
X146457200Y-133667380D02*
X146504819Y-133810237D01*
X146504819Y-133810237D02*
X146504819Y-134048332D01*
X142964819Y-136238808D02*
X142964819Y-135667380D01*
X143964819Y-135953094D02*
X142964819Y-135953094D01*
X143441009Y-135000713D02*
X143441009Y-135334046D01*
X143964819Y-135334046D02*
X142964819Y-135334046D01*
X142964819Y-135334046D02*
X142964819Y-134857856D01*
X142964819Y-134619760D02*
X142964819Y-134048332D01*
X143964819Y-134334046D02*
X142964819Y-134334046D01*
X144060057Y-133953094D02*
X144060057Y-133191189D01*
X143917200Y-133000712D02*
X143964819Y-132857855D01*
X143964819Y-132857855D02*
X143964819Y-132619760D01*
X143964819Y-132619760D02*
X143917200Y-132524522D01*
X143917200Y-132524522D02*
X143869580Y-132476903D01*
X143869580Y-132476903D02*
X143774342Y-132429284D01*
X143774342Y-132429284D02*
X143679104Y-132429284D01*
X143679104Y-132429284D02*
X143583866Y-132476903D01*
X143583866Y-132476903D02*
X143536247Y-132524522D01*
X143536247Y-132524522D02*
X143488628Y-132619760D01*
X143488628Y-132619760D02*
X143441009Y-132810236D01*
X143441009Y-132810236D02*
X143393390Y-132905474D01*
X143393390Y-132905474D02*
X143345771Y-132953093D01*
X143345771Y-132953093D02*
X143250533Y-133000712D01*
X143250533Y-133000712D02*
X143155295Y-133000712D01*
X143155295Y-133000712D02*
X143060057Y-132953093D01*
X143060057Y-132953093D02*
X143012438Y-132905474D01*
X143012438Y-132905474D02*
X142964819Y-132810236D01*
X142964819Y-132810236D02*
X142964819Y-132572141D01*
X142964819Y-132572141D02*
X143012438Y-132429284D01*
X143869580Y-131429284D02*
X143917200Y-131476903D01*
X143917200Y-131476903D02*
X143964819Y-131619760D01*
X143964819Y-131619760D02*
X143964819Y-131714998D01*
X143964819Y-131714998D02*
X143917200Y-131857855D01*
X143917200Y-131857855D02*
X143821961Y-131953093D01*
X143821961Y-131953093D02*
X143726723Y-132000712D01*
X143726723Y-132000712D02*
X143536247Y-132048331D01*
X143536247Y-132048331D02*
X143393390Y-132048331D01*
X143393390Y-132048331D02*
X143202914Y-132000712D01*
X143202914Y-132000712D02*
X143107676Y-131953093D01*
X143107676Y-131953093D02*
X143012438Y-131857855D01*
X143012438Y-131857855D02*
X142964819Y-131714998D01*
X142964819Y-131714998D02*
X142964819Y-131619760D01*
X142964819Y-131619760D02*
X143012438Y-131476903D01*
X143012438Y-131476903D02*
X143060057Y-131429284D01*
X143964819Y-131000712D02*
X142964819Y-131000712D01*
X143964819Y-130429284D02*
X143393390Y-130857855D01*
X142964819Y-130429284D02*
X143536247Y-131000712D01*
X166824819Y-120522618D02*
X165824819Y-120522618D01*
X165824819Y-120522618D02*
X165824819Y-120284523D01*
X165824819Y-120284523D02*
X165872438Y-120141666D01*
X165872438Y-120141666D02*
X165967676Y-120046428D01*
X165967676Y-120046428D02*
X166062914Y-119998809D01*
X166062914Y-119998809D02*
X166253390Y-119951190D01*
X166253390Y-119951190D02*
X166396247Y-119951190D01*
X166396247Y-119951190D02*
X166586723Y-119998809D01*
X166586723Y-119998809D02*
X166681961Y-120046428D01*
X166681961Y-120046428D02*
X166777200Y-120141666D01*
X166777200Y-120141666D02*
X166824819Y-120284523D01*
X166824819Y-120284523D02*
X166824819Y-120522618D01*
X166539104Y-119570237D02*
X166539104Y-119094047D01*
X166824819Y-119665475D02*
X165824819Y-119332142D01*
X165824819Y-119332142D02*
X166824819Y-118998809D01*
X166729580Y-118094047D02*
X166777200Y-118141666D01*
X166777200Y-118141666D02*
X166824819Y-118284523D01*
X166824819Y-118284523D02*
X166824819Y-118379761D01*
X166824819Y-118379761D02*
X166777200Y-118522618D01*
X166777200Y-118522618D02*
X166681961Y-118617856D01*
X166681961Y-118617856D02*
X166586723Y-118665475D01*
X166586723Y-118665475D02*
X166396247Y-118713094D01*
X166396247Y-118713094D02*
X166253390Y-118713094D01*
X166253390Y-118713094D02*
X166062914Y-118665475D01*
X166062914Y-118665475D02*
X165967676Y-118617856D01*
X165967676Y-118617856D02*
X165872438Y-118522618D01*
X165872438Y-118522618D02*
X165824819Y-118379761D01*
X165824819Y-118379761D02*
X165824819Y-118284523D01*
X165824819Y-118284523D02*
X165872438Y-118141666D01*
X165872438Y-118141666D02*
X165920057Y-118094047D01*
X166920057Y-117903571D02*
X166920057Y-117141666D01*
X166777200Y-116951189D02*
X166824819Y-116808332D01*
X166824819Y-116808332D02*
X166824819Y-116570237D01*
X166824819Y-116570237D02*
X166777200Y-116474999D01*
X166777200Y-116474999D02*
X166729580Y-116427380D01*
X166729580Y-116427380D02*
X166634342Y-116379761D01*
X166634342Y-116379761D02*
X166539104Y-116379761D01*
X166539104Y-116379761D02*
X166443866Y-116427380D01*
X166443866Y-116427380D02*
X166396247Y-116474999D01*
X166396247Y-116474999D02*
X166348628Y-116570237D01*
X166348628Y-116570237D02*
X166301009Y-116760713D01*
X166301009Y-116760713D02*
X166253390Y-116855951D01*
X166253390Y-116855951D02*
X166205771Y-116903570D01*
X166205771Y-116903570D02*
X166110533Y-116951189D01*
X166110533Y-116951189D02*
X166015295Y-116951189D01*
X166015295Y-116951189D02*
X165920057Y-116903570D01*
X165920057Y-116903570D02*
X165872438Y-116855951D01*
X165872438Y-116855951D02*
X165824819Y-116760713D01*
X165824819Y-116760713D02*
X165824819Y-116522618D01*
X165824819Y-116522618D02*
X165872438Y-116379761D01*
X166729580Y-115379761D02*
X166777200Y-115427380D01*
X166777200Y-115427380D02*
X166824819Y-115570237D01*
X166824819Y-115570237D02*
X166824819Y-115665475D01*
X166824819Y-115665475D02*
X166777200Y-115808332D01*
X166777200Y-115808332D02*
X166681961Y-115903570D01*
X166681961Y-115903570D02*
X166586723Y-115951189D01*
X166586723Y-115951189D02*
X166396247Y-115998808D01*
X166396247Y-115998808D02*
X166253390Y-115998808D01*
X166253390Y-115998808D02*
X166062914Y-115951189D01*
X166062914Y-115951189D02*
X165967676Y-115903570D01*
X165967676Y-115903570D02*
X165872438Y-115808332D01*
X165872438Y-115808332D02*
X165824819Y-115665475D01*
X165824819Y-115665475D02*
X165824819Y-115570237D01*
X165824819Y-115570237D02*
X165872438Y-115427380D01*
X165872438Y-115427380D02*
X165920057Y-115379761D01*
X166824819Y-114951189D02*
X165824819Y-114951189D01*
X166824819Y-114379761D02*
X166253390Y-114808332D01*
X165824819Y-114379761D02*
X166396247Y-114951189D01*
X156664819Y-130190238D02*
X155664819Y-130190238D01*
X155664819Y-130190238D02*
X155664819Y-129952143D01*
X155664819Y-129952143D02*
X155712438Y-129809286D01*
X155712438Y-129809286D02*
X155807676Y-129714048D01*
X155807676Y-129714048D02*
X155902914Y-129666429D01*
X155902914Y-129666429D02*
X156093390Y-129618810D01*
X156093390Y-129618810D02*
X156236247Y-129618810D01*
X156236247Y-129618810D02*
X156426723Y-129666429D01*
X156426723Y-129666429D02*
X156521961Y-129714048D01*
X156521961Y-129714048D02*
X156617200Y-129809286D01*
X156617200Y-129809286D02*
X156664819Y-129952143D01*
X156664819Y-129952143D02*
X156664819Y-130190238D01*
X156379104Y-129237857D02*
X156379104Y-128761667D01*
X156664819Y-129333095D02*
X155664819Y-128999762D01*
X155664819Y-128999762D02*
X156664819Y-128666429D01*
X156569580Y-127761667D02*
X156617200Y-127809286D01*
X156617200Y-127809286D02*
X156664819Y-127952143D01*
X156664819Y-127952143D02*
X156664819Y-128047381D01*
X156664819Y-128047381D02*
X156617200Y-128190238D01*
X156617200Y-128190238D02*
X156521961Y-128285476D01*
X156521961Y-128285476D02*
X156426723Y-128333095D01*
X156426723Y-128333095D02*
X156236247Y-128380714D01*
X156236247Y-128380714D02*
X156093390Y-128380714D01*
X156093390Y-128380714D02*
X155902914Y-128333095D01*
X155902914Y-128333095D02*
X155807676Y-128285476D01*
X155807676Y-128285476D02*
X155712438Y-128190238D01*
X155712438Y-128190238D02*
X155664819Y-128047381D01*
X155664819Y-128047381D02*
X155664819Y-127952143D01*
X155664819Y-127952143D02*
X155712438Y-127809286D01*
X155712438Y-127809286D02*
X155760057Y-127761667D01*
X156760057Y-127571191D02*
X156760057Y-126809286D01*
X156617200Y-126618809D02*
X156664819Y-126475952D01*
X156664819Y-126475952D02*
X156664819Y-126237857D01*
X156664819Y-126237857D02*
X156617200Y-126142619D01*
X156617200Y-126142619D02*
X156569580Y-126095000D01*
X156569580Y-126095000D02*
X156474342Y-126047381D01*
X156474342Y-126047381D02*
X156379104Y-126047381D01*
X156379104Y-126047381D02*
X156283866Y-126095000D01*
X156283866Y-126095000D02*
X156236247Y-126142619D01*
X156236247Y-126142619D02*
X156188628Y-126237857D01*
X156188628Y-126237857D02*
X156141009Y-126428333D01*
X156141009Y-126428333D02*
X156093390Y-126523571D01*
X156093390Y-126523571D02*
X156045771Y-126571190D01*
X156045771Y-126571190D02*
X155950533Y-126618809D01*
X155950533Y-126618809D02*
X155855295Y-126618809D01*
X155855295Y-126618809D02*
X155760057Y-126571190D01*
X155760057Y-126571190D02*
X155712438Y-126523571D01*
X155712438Y-126523571D02*
X155664819Y-126428333D01*
X155664819Y-126428333D02*
X155664819Y-126190238D01*
X155664819Y-126190238D02*
X155712438Y-126047381D01*
X156569580Y-125047381D02*
X156617200Y-125095000D01*
X156617200Y-125095000D02*
X156664819Y-125237857D01*
X156664819Y-125237857D02*
X156664819Y-125333095D01*
X156664819Y-125333095D02*
X156617200Y-125475952D01*
X156617200Y-125475952D02*
X156521961Y-125571190D01*
X156521961Y-125571190D02*
X156426723Y-125618809D01*
X156426723Y-125618809D02*
X156236247Y-125666428D01*
X156236247Y-125666428D02*
X156093390Y-125666428D01*
X156093390Y-125666428D02*
X155902914Y-125618809D01*
X155902914Y-125618809D02*
X155807676Y-125571190D01*
X155807676Y-125571190D02*
X155712438Y-125475952D01*
X155712438Y-125475952D02*
X155664819Y-125333095D01*
X155664819Y-125333095D02*
X155664819Y-125237857D01*
X155664819Y-125237857D02*
X155712438Y-125095000D01*
X155712438Y-125095000D02*
X155760057Y-125047381D01*
X156664819Y-124618809D02*
X155664819Y-124618809D01*
X156664819Y-124047381D02*
X156093390Y-124475952D01*
X155664819Y-124047381D02*
X156236247Y-124618809D01*
X154124819Y-130714047D02*
X153124819Y-130714047D01*
X153124819Y-130714047D02*
X153124819Y-130475952D01*
X153124819Y-130475952D02*
X153172438Y-130333095D01*
X153172438Y-130333095D02*
X153267676Y-130237857D01*
X153267676Y-130237857D02*
X153362914Y-130190238D01*
X153362914Y-130190238D02*
X153553390Y-130142619D01*
X153553390Y-130142619D02*
X153696247Y-130142619D01*
X153696247Y-130142619D02*
X153886723Y-130190238D01*
X153886723Y-130190238D02*
X153981961Y-130237857D01*
X153981961Y-130237857D02*
X154077200Y-130333095D01*
X154077200Y-130333095D02*
X154124819Y-130475952D01*
X154124819Y-130475952D02*
X154124819Y-130714047D01*
X153839104Y-129761666D02*
X153839104Y-129285476D01*
X154124819Y-129856904D02*
X153124819Y-129523571D01*
X153124819Y-129523571D02*
X154124819Y-129190238D01*
X154029580Y-128285476D02*
X154077200Y-128333095D01*
X154077200Y-128333095D02*
X154124819Y-128475952D01*
X154124819Y-128475952D02*
X154124819Y-128571190D01*
X154124819Y-128571190D02*
X154077200Y-128714047D01*
X154077200Y-128714047D02*
X153981961Y-128809285D01*
X153981961Y-128809285D02*
X153886723Y-128856904D01*
X153886723Y-128856904D02*
X153696247Y-128904523D01*
X153696247Y-128904523D02*
X153553390Y-128904523D01*
X153553390Y-128904523D02*
X153362914Y-128856904D01*
X153362914Y-128856904D02*
X153267676Y-128809285D01*
X153267676Y-128809285D02*
X153172438Y-128714047D01*
X153172438Y-128714047D02*
X153124819Y-128571190D01*
X153124819Y-128571190D02*
X153124819Y-128475952D01*
X153124819Y-128475952D02*
X153172438Y-128333095D01*
X153172438Y-128333095D02*
X153220057Y-128285476D01*
X154220057Y-128095000D02*
X154220057Y-127333095D01*
X154077200Y-127142618D02*
X154124819Y-126999761D01*
X154124819Y-126999761D02*
X154124819Y-126761666D01*
X154124819Y-126761666D02*
X154077200Y-126666428D01*
X154077200Y-126666428D02*
X154029580Y-126618809D01*
X154029580Y-126618809D02*
X153934342Y-126571190D01*
X153934342Y-126571190D02*
X153839104Y-126571190D01*
X153839104Y-126571190D02*
X153743866Y-126618809D01*
X153743866Y-126618809D02*
X153696247Y-126666428D01*
X153696247Y-126666428D02*
X153648628Y-126761666D01*
X153648628Y-126761666D02*
X153601009Y-126952142D01*
X153601009Y-126952142D02*
X153553390Y-127047380D01*
X153553390Y-127047380D02*
X153505771Y-127094999D01*
X153505771Y-127094999D02*
X153410533Y-127142618D01*
X153410533Y-127142618D02*
X153315295Y-127142618D01*
X153315295Y-127142618D02*
X153220057Y-127094999D01*
X153220057Y-127094999D02*
X153172438Y-127047380D01*
X153172438Y-127047380D02*
X153124819Y-126952142D01*
X153124819Y-126952142D02*
X153124819Y-126714047D01*
X153124819Y-126714047D02*
X153172438Y-126571190D01*
X154124819Y-126142618D02*
X153124819Y-126142618D01*
X153124819Y-126142618D02*
X153124819Y-125904523D01*
X153124819Y-125904523D02*
X153172438Y-125761666D01*
X153172438Y-125761666D02*
X153267676Y-125666428D01*
X153267676Y-125666428D02*
X153362914Y-125618809D01*
X153362914Y-125618809D02*
X153553390Y-125571190D01*
X153553390Y-125571190D02*
X153696247Y-125571190D01*
X153696247Y-125571190D02*
X153886723Y-125618809D01*
X153886723Y-125618809D02*
X153981961Y-125666428D01*
X153981961Y-125666428D02*
X154077200Y-125761666D01*
X154077200Y-125761666D02*
X154124819Y-125904523D01*
X154124819Y-125904523D02*
X154124819Y-126142618D01*
X154124819Y-125142618D02*
X153124819Y-125142618D01*
X154124819Y-124666428D02*
X153124819Y-124666428D01*
X153124819Y-124666428D02*
X154124819Y-124095000D01*
X154124819Y-124095000D02*
X153124819Y-124095000D01*
X140424819Y-120665475D02*
X140424819Y-120094047D01*
X141424819Y-120379761D02*
X140424819Y-120379761D01*
X140901009Y-119427380D02*
X140901009Y-119760713D01*
X141424819Y-119760713D02*
X140424819Y-119760713D01*
X140424819Y-119760713D02*
X140424819Y-119284523D01*
X140424819Y-119046427D02*
X140424819Y-118474999D01*
X141424819Y-118760713D02*
X140424819Y-118760713D01*
X141520057Y-118379761D02*
X141520057Y-117617856D01*
X141424819Y-117379760D02*
X140424819Y-117379760D01*
X140424819Y-117379760D02*
X141139104Y-117046427D01*
X141139104Y-117046427D02*
X140424819Y-116713094D01*
X140424819Y-116713094D02*
X141424819Y-116713094D01*
X140424819Y-116046427D02*
X140424819Y-115855951D01*
X140424819Y-115855951D02*
X140472438Y-115760713D01*
X140472438Y-115760713D02*
X140567676Y-115665475D01*
X140567676Y-115665475D02*
X140758152Y-115617856D01*
X140758152Y-115617856D02*
X141091485Y-115617856D01*
X141091485Y-115617856D02*
X141281961Y-115665475D01*
X141281961Y-115665475D02*
X141377200Y-115760713D01*
X141377200Y-115760713D02*
X141424819Y-115855951D01*
X141424819Y-115855951D02*
X141424819Y-116046427D01*
X141424819Y-116046427D02*
X141377200Y-116141665D01*
X141377200Y-116141665D02*
X141281961Y-116236903D01*
X141281961Y-116236903D02*
X141091485Y-116284522D01*
X141091485Y-116284522D02*
X140758152Y-116284522D01*
X140758152Y-116284522D02*
X140567676Y-116236903D01*
X140567676Y-116236903D02*
X140472438Y-116141665D01*
X140472438Y-116141665D02*
X140424819Y-116046427D01*
X141377200Y-115236903D02*
X141424819Y-115094046D01*
X141424819Y-115094046D02*
X141424819Y-114855951D01*
X141424819Y-114855951D02*
X141377200Y-114760713D01*
X141377200Y-114760713D02*
X141329580Y-114713094D01*
X141329580Y-114713094D02*
X141234342Y-114665475D01*
X141234342Y-114665475D02*
X141139104Y-114665475D01*
X141139104Y-114665475D02*
X141043866Y-114713094D01*
X141043866Y-114713094D02*
X140996247Y-114760713D01*
X140996247Y-114760713D02*
X140948628Y-114855951D01*
X140948628Y-114855951D02*
X140901009Y-115046427D01*
X140901009Y-115046427D02*
X140853390Y-115141665D01*
X140853390Y-115141665D02*
X140805771Y-115189284D01*
X140805771Y-115189284D02*
X140710533Y-115236903D01*
X140710533Y-115236903D02*
X140615295Y-115236903D01*
X140615295Y-115236903D02*
X140520057Y-115189284D01*
X140520057Y-115189284D02*
X140472438Y-115141665D01*
X140472438Y-115141665D02*
X140424819Y-115046427D01*
X140424819Y-115046427D02*
X140424819Y-114808332D01*
X140424819Y-114808332D02*
X140472438Y-114665475D01*
X141424819Y-114236903D02*
X140424819Y-114236903D01*
X127724819Y-120665475D02*
X127724819Y-120094047D01*
X128724819Y-120379761D02*
X127724819Y-120379761D01*
X128201009Y-119427380D02*
X128201009Y-119760713D01*
X128724819Y-119760713D02*
X127724819Y-119760713D01*
X127724819Y-119760713D02*
X127724819Y-119284523D01*
X127724819Y-119046427D02*
X127724819Y-118474999D01*
X128724819Y-118760713D02*
X127724819Y-118760713D01*
X128820057Y-118379761D02*
X128820057Y-117617856D01*
X128629580Y-116808332D02*
X128677200Y-116855951D01*
X128677200Y-116855951D02*
X128724819Y-116998808D01*
X128724819Y-116998808D02*
X128724819Y-117094046D01*
X128724819Y-117094046D02*
X128677200Y-117236903D01*
X128677200Y-117236903D02*
X128581961Y-117332141D01*
X128581961Y-117332141D02*
X128486723Y-117379760D01*
X128486723Y-117379760D02*
X128296247Y-117427379D01*
X128296247Y-117427379D02*
X128153390Y-117427379D01*
X128153390Y-117427379D02*
X127962914Y-117379760D01*
X127962914Y-117379760D02*
X127867676Y-117332141D01*
X127867676Y-117332141D02*
X127772438Y-117236903D01*
X127772438Y-117236903D02*
X127724819Y-117094046D01*
X127724819Y-117094046D02*
X127724819Y-116998808D01*
X127724819Y-116998808D02*
X127772438Y-116855951D01*
X127772438Y-116855951D02*
X127820057Y-116808332D01*
X128677200Y-116427379D02*
X128724819Y-116284522D01*
X128724819Y-116284522D02*
X128724819Y-116046427D01*
X128724819Y-116046427D02*
X128677200Y-115951189D01*
X128677200Y-115951189D02*
X128629580Y-115903570D01*
X128629580Y-115903570D02*
X128534342Y-115855951D01*
X128534342Y-115855951D02*
X128439104Y-115855951D01*
X128439104Y-115855951D02*
X128343866Y-115903570D01*
X128343866Y-115903570D02*
X128296247Y-115951189D01*
X128296247Y-115951189D02*
X128248628Y-116046427D01*
X128248628Y-116046427D02*
X128201009Y-116236903D01*
X128201009Y-116236903D02*
X128153390Y-116332141D01*
X128153390Y-116332141D02*
X128105771Y-116379760D01*
X128105771Y-116379760D02*
X128010533Y-116427379D01*
X128010533Y-116427379D02*
X127915295Y-116427379D01*
X127915295Y-116427379D02*
X127820057Y-116379760D01*
X127820057Y-116379760D02*
X127772438Y-116332141D01*
X127772438Y-116332141D02*
X127724819Y-116236903D01*
X127724819Y-116236903D02*
X127724819Y-115998808D01*
X127724819Y-115998808D02*
X127772438Y-115855951D01*
X125899104Y-120570237D02*
X125899104Y-120094047D01*
X126184819Y-120665475D02*
X125184819Y-120332142D01*
X125184819Y-120332142D02*
X126184819Y-119998809D01*
X126184819Y-119665475D02*
X125184819Y-119665475D01*
X125184819Y-119665475D02*
X125184819Y-119427380D01*
X125184819Y-119427380D02*
X125232438Y-119284523D01*
X125232438Y-119284523D02*
X125327676Y-119189285D01*
X125327676Y-119189285D02*
X125422914Y-119141666D01*
X125422914Y-119141666D02*
X125613390Y-119094047D01*
X125613390Y-119094047D02*
X125756247Y-119094047D01*
X125756247Y-119094047D02*
X125946723Y-119141666D01*
X125946723Y-119141666D02*
X126041961Y-119189285D01*
X126041961Y-119189285D02*
X126137200Y-119284523D01*
X126137200Y-119284523D02*
X126184819Y-119427380D01*
X126184819Y-119427380D02*
X126184819Y-119665475D01*
X126089580Y-118094047D02*
X126137200Y-118141666D01*
X126137200Y-118141666D02*
X126184819Y-118284523D01*
X126184819Y-118284523D02*
X126184819Y-118379761D01*
X126184819Y-118379761D02*
X126137200Y-118522618D01*
X126137200Y-118522618D02*
X126041961Y-118617856D01*
X126041961Y-118617856D02*
X125946723Y-118665475D01*
X125946723Y-118665475D02*
X125756247Y-118713094D01*
X125756247Y-118713094D02*
X125613390Y-118713094D01*
X125613390Y-118713094D02*
X125422914Y-118665475D01*
X125422914Y-118665475D02*
X125327676Y-118617856D01*
X125327676Y-118617856D02*
X125232438Y-118522618D01*
X125232438Y-118522618D02*
X125184819Y-118379761D01*
X125184819Y-118379761D02*
X125184819Y-118284523D01*
X125184819Y-118284523D02*
X125232438Y-118141666D01*
X125232438Y-118141666D02*
X125280057Y-118094047D01*
X126280057Y-117903571D02*
X126280057Y-117141666D01*
X126089580Y-116332142D02*
X126137200Y-116379761D01*
X126137200Y-116379761D02*
X126184819Y-116522618D01*
X126184819Y-116522618D02*
X126184819Y-116617856D01*
X126184819Y-116617856D02*
X126137200Y-116760713D01*
X126137200Y-116760713D02*
X126041961Y-116855951D01*
X126041961Y-116855951D02*
X125946723Y-116903570D01*
X125946723Y-116903570D02*
X125756247Y-116951189D01*
X125756247Y-116951189D02*
X125613390Y-116951189D01*
X125613390Y-116951189D02*
X125422914Y-116903570D01*
X125422914Y-116903570D02*
X125327676Y-116855951D01*
X125327676Y-116855951D02*
X125232438Y-116760713D01*
X125232438Y-116760713D02*
X125184819Y-116617856D01*
X125184819Y-116617856D02*
X125184819Y-116522618D01*
X125184819Y-116522618D02*
X125232438Y-116379761D01*
X125232438Y-116379761D02*
X125280057Y-116332142D01*
X125184819Y-115713094D02*
X125184819Y-115522618D01*
X125184819Y-115522618D02*
X125232438Y-115427380D01*
X125232438Y-115427380D02*
X125327676Y-115332142D01*
X125327676Y-115332142D02*
X125518152Y-115284523D01*
X125518152Y-115284523D02*
X125851485Y-115284523D01*
X125851485Y-115284523D02*
X126041961Y-115332142D01*
X126041961Y-115332142D02*
X126137200Y-115427380D01*
X126137200Y-115427380D02*
X126184819Y-115522618D01*
X126184819Y-115522618D02*
X126184819Y-115713094D01*
X126184819Y-115713094D02*
X126137200Y-115808332D01*
X126137200Y-115808332D02*
X126041961Y-115903570D01*
X126041961Y-115903570D02*
X125851485Y-115951189D01*
X125851485Y-115951189D02*
X125518152Y-115951189D01*
X125518152Y-115951189D02*
X125327676Y-115903570D01*
X125327676Y-115903570D02*
X125232438Y-115808332D01*
X125232438Y-115808332D02*
X125184819Y-115713094D01*
X126184819Y-114855951D02*
X125184819Y-114855951D01*
X125184819Y-114855951D02*
X126184819Y-114284523D01*
X126184819Y-114284523D02*
X125184819Y-114284523D01*
X125184819Y-113951189D02*
X126184819Y-113617856D01*
X126184819Y-113617856D02*
X125184819Y-113284523D01*
X126137200Y-112998808D02*
X126184819Y-112855951D01*
X126184819Y-112855951D02*
X126184819Y-112617856D01*
X126184819Y-112617856D02*
X126137200Y-112522618D01*
X126137200Y-112522618D02*
X126089580Y-112474999D01*
X126089580Y-112474999D02*
X125994342Y-112427380D01*
X125994342Y-112427380D02*
X125899104Y-112427380D01*
X125899104Y-112427380D02*
X125803866Y-112474999D01*
X125803866Y-112474999D02*
X125756247Y-112522618D01*
X125756247Y-112522618D02*
X125708628Y-112617856D01*
X125708628Y-112617856D02*
X125661009Y-112808332D01*
X125661009Y-112808332D02*
X125613390Y-112903570D01*
X125613390Y-112903570D02*
X125565771Y-112951189D01*
X125565771Y-112951189D02*
X125470533Y-112998808D01*
X125470533Y-112998808D02*
X125375295Y-112998808D01*
X125375295Y-112998808D02*
X125280057Y-112951189D01*
X125280057Y-112951189D02*
X125232438Y-112903570D01*
X125232438Y-112903570D02*
X125184819Y-112808332D01*
X125184819Y-112808332D02*
X125184819Y-112570237D01*
X125184819Y-112570237D02*
X125232438Y-112427380D01*
X125184819Y-112141665D02*
X125184819Y-111570237D01*
X126184819Y-111855951D02*
X125184819Y-111855951D01*
X120819104Y-120570237D02*
X120819104Y-120094047D01*
X121104819Y-120665475D02*
X120104819Y-120332142D01*
X120104819Y-120332142D02*
X121104819Y-119998809D01*
X121104819Y-119665475D02*
X120104819Y-119665475D01*
X120104819Y-119665475D02*
X120104819Y-119427380D01*
X120104819Y-119427380D02*
X120152438Y-119284523D01*
X120152438Y-119284523D02*
X120247676Y-119189285D01*
X120247676Y-119189285D02*
X120342914Y-119141666D01*
X120342914Y-119141666D02*
X120533390Y-119094047D01*
X120533390Y-119094047D02*
X120676247Y-119094047D01*
X120676247Y-119094047D02*
X120866723Y-119141666D01*
X120866723Y-119141666D02*
X120961961Y-119189285D01*
X120961961Y-119189285D02*
X121057200Y-119284523D01*
X121057200Y-119284523D02*
X121104819Y-119427380D01*
X121104819Y-119427380D02*
X121104819Y-119665475D01*
X121009580Y-118094047D02*
X121057200Y-118141666D01*
X121057200Y-118141666D02*
X121104819Y-118284523D01*
X121104819Y-118284523D02*
X121104819Y-118379761D01*
X121104819Y-118379761D02*
X121057200Y-118522618D01*
X121057200Y-118522618D02*
X120961961Y-118617856D01*
X120961961Y-118617856D02*
X120866723Y-118665475D01*
X120866723Y-118665475D02*
X120676247Y-118713094D01*
X120676247Y-118713094D02*
X120533390Y-118713094D01*
X120533390Y-118713094D02*
X120342914Y-118665475D01*
X120342914Y-118665475D02*
X120247676Y-118617856D01*
X120247676Y-118617856D02*
X120152438Y-118522618D01*
X120152438Y-118522618D02*
X120104819Y-118379761D01*
X120104819Y-118379761D02*
X120104819Y-118284523D01*
X120104819Y-118284523D02*
X120152438Y-118141666D01*
X120152438Y-118141666D02*
X120200057Y-118094047D01*
X121200057Y-117903571D02*
X121200057Y-117141666D01*
X120581009Y-116570237D02*
X120628628Y-116427380D01*
X120628628Y-116427380D02*
X120676247Y-116379761D01*
X120676247Y-116379761D02*
X120771485Y-116332142D01*
X120771485Y-116332142D02*
X120914342Y-116332142D01*
X120914342Y-116332142D02*
X121009580Y-116379761D01*
X121009580Y-116379761D02*
X121057200Y-116427380D01*
X121057200Y-116427380D02*
X121104819Y-116522618D01*
X121104819Y-116522618D02*
X121104819Y-116903570D01*
X121104819Y-116903570D02*
X120104819Y-116903570D01*
X120104819Y-116903570D02*
X120104819Y-116570237D01*
X120104819Y-116570237D02*
X120152438Y-116474999D01*
X120152438Y-116474999D02*
X120200057Y-116427380D01*
X120200057Y-116427380D02*
X120295295Y-116379761D01*
X120295295Y-116379761D02*
X120390533Y-116379761D01*
X120390533Y-116379761D02*
X120485771Y-116427380D01*
X120485771Y-116427380D02*
X120533390Y-116474999D01*
X120533390Y-116474999D02*
X120581009Y-116570237D01*
X120581009Y-116570237D02*
X120581009Y-116903570D01*
X120104819Y-115903570D02*
X120914342Y-115903570D01*
X120914342Y-115903570D02*
X121009580Y-115855951D01*
X121009580Y-115855951D02*
X121057200Y-115808332D01*
X121057200Y-115808332D02*
X121104819Y-115713094D01*
X121104819Y-115713094D02*
X121104819Y-115522618D01*
X121104819Y-115522618D02*
X121057200Y-115427380D01*
X121057200Y-115427380D02*
X121009580Y-115379761D01*
X121009580Y-115379761D02*
X120914342Y-115332142D01*
X120914342Y-115332142D02*
X120104819Y-115332142D01*
X121057200Y-114903570D02*
X121104819Y-114760713D01*
X121104819Y-114760713D02*
X121104819Y-114522618D01*
X121104819Y-114522618D02*
X121057200Y-114427380D01*
X121057200Y-114427380D02*
X121009580Y-114379761D01*
X121009580Y-114379761D02*
X120914342Y-114332142D01*
X120914342Y-114332142D02*
X120819104Y-114332142D01*
X120819104Y-114332142D02*
X120723866Y-114379761D01*
X120723866Y-114379761D02*
X120676247Y-114427380D01*
X120676247Y-114427380D02*
X120628628Y-114522618D01*
X120628628Y-114522618D02*
X120581009Y-114713094D01*
X120581009Y-114713094D02*
X120533390Y-114808332D01*
X120533390Y-114808332D02*
X120485771Y-114855951D01*
X120485771Y-114855951D02*
X120390533Y-114903570D01*
X120390533Y-114903570D02*
X120295295Y-114903570D01*
X120295295Y-114903570D02*
X120200057Y-114855951D01*
X120200057Y-114855951D02*
X120152438Y-114808332D01*
X120152438Y-114808332D02*
X120104819Y-114713094D01*
X120104819Y-114713094D02*
X120104819Y-114474999D01*
X120104819Y-114474999D02*
X120152438Y-114332142D01*
X120628628Y-113713094D02*
X121104819Y-113713094D01*
X120104819Y-114046427D02*
X120628628Y-113713094D01*
X120628628Y-113713094D02*
X120104819Y-113379761D01*
X117564819Y-120665476D02*
X117564819Y-120094048D01*
X118564819Y-120379762D02*
X117564819Y-120379762D01*
X118041009Y-119427381D02*
X118041009Y-119760714D01*
X118564819Y-119760714D02*
X117564819Y-119760714D01*
X117564819Y-119760714D02*
X117564819Y-119284524D01*
X117564819Y-119046428D02*
X117564819Y-118475000D01*
X118564819Y-118760714D02*
X117564819Y-118760714D01*
X118660057Y-118379762D02*
X118660057Y-117617857D01*
X118564819Y-117379761D02*
X117564819Y-117379761D01*
X117564819Y-117379761D02*
X117564819Y-117141666D01*
X117564819Y-117141666D02*
X117612438Y-116998809D01*
X117612438Y-116998809D02*
X117707676Y-116903571D01*
X117707676Y-116903571D02*
X117802914Y-116855952D01*
X117802914Y-116855952D02*
X117993390Y-116808333D01*
X117993390Y-116808333D02*
X118136247Y-116808333D01*
X118136247Y-116808333D02*
X118326723Y-116855952D01*
X118326723Y-116855952D02*
X118421961Y-116903571D01*
X118421961Y-116903571D02*
X118517200Y-116998809D01*
X118517200Y-116998809D02*
X118564819Y-117141666D01*
X118564819Y-117141666D02*
X118564819Y-117379761D01*
X118469580Y-115808333D02*
X118517200Y-115855952D01*
X118517200Y-115855952D02*
X118564819Y-115998809D01*
X118564819Y-115998809D02*
X118564819Y-116094047D01*
X118564819Y-116094047D02*
X118517200Y-116236904D01*
X118517200Y-116236904D02*
X118421961Y-116332142D01*
X118421961Y-116332142D02*
X118326723Y-116379761D01*
X118326723Y-116379761D02*
X118136247Y-116427380D01*
X118136247Y-116427380D02*
X117993390Y-116427380D01*
X117993390Y-116427380D02*
X117802914Y-116379761D01*
X117802914Y-116379761D02*
X117707676Y-116332142D01*
X117707676Y-116332142D02*
X117612438Y-116236904D01*
X117612438Y-116236904D02*
X117564819Y-116094047D01*
X117564819Y-116094047D02*
X117564819Y-115998809D01*
X117564819Y-115998809D02*
X117612438Y-115855952D01*
X117612438Y-115855952D02*
X117660057Y-115808333D01*
X116024819Y-120522618D02*
X115024819Y-120522618D01*
X115024819Y-120522618D02*
X115739104Y-120189285D01*
X115739104Y-120189285D02*
X115024819Y-119855952D01*
X115024819Y-119855952D02*
X116024819Y-119855952D01*
X116024819Y-119379761D02*
X115024819Y-119379761D01*
X116024819Y-118903571D02*
X115024819Y-118903571D01*
X115024819Y-118903571D02*
X115024819Y-118665476D01*
X115024819Y-118665476D02*
X115072438Y-118522619D01*
X115072438Y-118522619D02*
X115167676Y-118427381D01*
X115167676Y-118427381D02*
X115262914Y-118379762D01*
X115262914Y-118379762D02*
X115453390Y-118332143D01*
X115453390Y-118332143D02*
X115596247Y-118332143D01*
X115596247Y-118332143D02*
X115786723Y-118379762D01*
X115786723Y-118379762D02*
X115881961Y-118427381D01*
X115881961Y-118427381D02*
X115977200Y-118522619D01*
X115977200Y-118522619D02*
X116024819Y-118665476D01*
X116024819Y-118665476D02*
X116024819Y-118903571D01*
X116024819Y-117903571D02*
X115024819Y-117903571D01*
X116120057Y-117665477D02*
X116120057Y-116903572D01*
X115024819Y-116808333D02*
X115024819Y-116236905D01*
X116024819Y-116522619D02*
X115024819Y-116522619D01*
X115024819Y-115998809D02*
X116024819Y-115332143D01*
X115024819Y-115332143D02*
X116024819Y-115998809D01*
X113484819Y-120522617D02*
X112484819Y-120522617D01*
X112484819Y-120522617D02*
X113199104Y-120189284D01*
X113199104Y-120189284D02*
X112484819Y-119855951D01*
X112484819Y-119855951D02*
X113484819Y-119855951D01*
X113484819Y-119379760D02*
X112484819Y-119379760D01*
X113484819Y-118903570D02*
X112484819Y-118903570D01*
X112484819Y-118903570D02*
X112484819Y-118665475D01*
X112484819Y-118665475D02*
X112532438Y-118522618D01*
X112532438Y-118522618D02*
X112627676Y-118427380D01*
X112627676Y-118427380D02*
X112722914Y-118379761D01*
X112722914Y-118379761D02*
X112913390Y-118332142D01*
X112913390Y-118332142D02*
X113056247Y-118332142D01*
X113056247Y-118332142D02*
X113246723Y-118379761D01*
X113246723Y-118379761D02*
X113341961Y-118427380D01*
X113341961Y-118427380D02*
X113437200Y-118522618D01*
X113437200Y-118522618D02*
X113484819Y-118665475D01*
X113484819Y-118665475D02*
X113484819Y-118903570D01*
X113484819Y-117903570D02*
X112484819Y-117903570D01*
X113580057Y-117665476D02*
X113580057Y-116903571D01*
X113484819Y-116094047D02*
X113008628Y-116427380D01*
X113484819Y-116665475D02*
X112484819Y-116665475D01*
X112484819Y-116665475D02*
X112484819Y-116284523D01*
X112484819Y-116284523D02*
X112532438Y-116189285D01*
X112532438Y-116189285D02*
X112580057Y-116141666D01*
X112580057Y-116141666D02*
X112675295Y-116094047D01*
X112675295Y-116094047D02*
X112818152Y-116094047D01*
X112818152Y-116094047D02*
X112913390Y-116141666D01*
X112913390Y-116141666D02*
X112961009Y-116189285D01*
X112961009Y-116189285D02*
X113008628Y-116284523D01*
X113008628Y-116284523D02*
X113008628Y-116665475D01*
X112484819Y-115760713D02*
X113484819Y-115094047D01*
X112484819Y-115094047D02*
X113484819Y-115760713D01*
X113014333Y-64399438D02*
X112919095Y-64351819D01*
X112919095Y-64351819D02*
X112776238Y-64351819D01*
X112776238Y-64351819D02*
X112633381Y-64399438D01*
X112633381Y-64399438D02*
X112538143Y-64494676D01*
X112538143Y-64494676D02*
X112490524Y-64589914D01*
X112490524Y-64589914D02*
X112442905Y-64780390D01*
X112442905Y-64780390D02*
X112442905Y-64923247D01*
X112442905Y-64923247D02*
X112490524Y-65113723D01*
X112490524Y-65113723D02*
X112538143Y-65208961D01*
X112538143Y-65208961D02*
X112633381Y-65304200D01*
X112633381Y-65304200D02*
X112776238Y-65351819D01*
X112776238Y-65351819D02*
X112871476Y-65351819D01*
X112871476Y-65351819D02*
X113014333Y-65304200D01*
X113014333Y-65304200D02*
X113061952Y-65256580D01*
X113061952Y-65256580D02*
X113061952Y-64923247D01*
X113061952Y-64923247D02*
X112871476Y-64923247D01*
X113490524Y-65351819D02*
X113490524Y-64351819D01*
X113490524Y-64351819D02*
X114061952Y-65351819D01*
X114061952Y-65351819D02*
X114061952Y-64351819D01*
X114538143Y-65351819D02*
X114538143Y-64351819D01*
X114538143Y-64351819D02*
X114776238Y-64351819D01*
X114776238Y-64351819D02*
X114919095Y-64399438D01*
X114919095Y-64399438D02*
X115014333Y-64494676D01*
X115014333Y-64494676D02*
X115061952Y-64589914D01*
X115061952Y-64589914D02*
X115109571Y-64780390D01*
X115109571Y-64780390D02*
X115109571Y-64923247D01*
X115109571Y-64923247D02*
X115061952Y-65113723D01*
X115061952Y-65113723D02*
X115014333Y-65208961D01*
X115014333Y-65208961D02*
X114919095Y-65304200D01*
X114919095Y-65304200D02*
X114776238Y-65351819D01*
X114776238Y-65351819D02*
X114538143Y-65351819D01*
X112347667Y-66891819D02*
X112681000Y-67891819D01*
X112681000Y-67891819D02*
X113014333Y-66891819D01*
X113347667Y-67891819D02*
X113347667Y-66891819D01*
X113823857Y-67891819D02*
X113823857Y-66891819D01*
X113823857Y-66891819D02*
X114395285Y-67891819D01*
X114395285Y-67891819D02*
X114395285Y-66891819D01*
X115395285Y-67891819D02*
X114823857Y-67891819D01*
X115109571Y-67891819D02*
X115109571Y-66891819D01*
X115109571Y-66891819D02*
X115014333Y-67034676D01*
X115014333Y-67034676D02*
X114919095Y-67129914D01*
X114919095Y-67129914D02*
X114823857Y-67177533D01*
X112347667Y-69431819D02*
X112681000Y-70431819D01*
X112681000Y-70431819D02*
X113014333Y-69431819D01*
X113871476Y-69479438D02*
X113776238Y-69431819D01*
X113776238Y-69431819D02*
X113633381Y-69431819D01*
X113633381Y-69431819D02*
X113490524Y-69479438D01*
X113490524Y-69479438D02*
X113395286Y-69574676D01*
X113395286Y-69574676D02*
X113347667Y-69669914D01*
X113347667Y-69669914D02*
X113300048Y-69860390D01*
X113300048Y-69860390D02*
X113300048Y-70003247D01*
X113300048Y-70003247D02*
X113347667Y-70193723D01*
X113347667Y-70193723D02*
X113395286Y-70288961D01*
X113395286Y-70288961D02*
X113490524Y-70384200D01*
X113490524Y-70384200D02*
X113633381Y-70431819D01*
X113633381Y-70431819D02*
X113728619Y-70431819D01*
X113728619Y-70431819D02*
X113871476Y-70384200D01*
X113871476Y-70384200D02*
X113919095Y-70336580D01*
X113919095Y-70336580D02*
X113919095Y-70003247D01*
X113919095Y-70003247D02*
X113728619Y-70003247D01*
X114347667Y-70431819D02*
X114347667Y-69431819D01*
X114347667Y-69431819D02*
X114919095Y-70431819D01*
X114919095Y-70431819D02*
X114919095Y-69431819D01*
X115395286Y-70431819D02*
X115395286Y-69431819D01*
X115395286Y-69431819D02*
X115633381Y-69431819D01*
X115633381Y-69431819D02*
X115776238Y-69479438D01*
X115776238Y-69479438D02*
X115871476Y-69574676D01*
X115871476Y-69574676D02*
X115919095Y-69669914D01*
X115919095Y-69669914D02*
X115966714Y-69860390D01*
X115966714Y-69860390D02*
X115966714Y-70003247D01*
X115966714Y-70003247D02*
X115919095Y-70193723D01*
X115919095Y-70193723D02*
X115871476Y-70288961D01*
X115871476Y-70288961D02*
X115776238Y-70384200D01*
X115776238Y-70384200D02*
X115633381Y-70431819D01*
X115633381Y-70431819D02*
X115395286Y-70431819D01*
X116919095Y-70431819D02*
X116347667Y-70431819D01*
X116633381Y-70431819D02*
X116633381Y-69431819D01*
X116633381Y-69431819D02*
X116538143Y-69574676D01*
X116538143Y-69574676D02*
X116442905Y-69669914D01*
X116442905Y-69669914D02*
X116347667Y-69717533D01*
X112347667Y-71971819D02*
X112681000Y-72971819D01*
X112681000Y-72971819D02*
X113014333Y-71971819D01*
X113347667Y-72971819D02*
X113347667Y-71971819D01*
X113823857Y-72971819D02*
X113823857Y-71971819D01*
X113823857Y-71971819D02*
X114395285Y-72971819D01*
X114395285Y-72971819D02*
X114395285Y-71971819D01*
X114823857Y-72067057D02*
X114871476Y-72019438D01*
X114871476Y-72019438D02*
X114966714Y-71971819D01*
X114966714Y-71971819D02*
X115204809Y-71971819D01*
X115204809Y-71971819D02*
X115300047Y-72019438D01*
X115300047Y-72019438D02*
X115347666Y-72067057D01*
X115347666Y-72067057D02*
X115395285Y-72162295D01*
X115395285Y-72162295D02*
X115395285Y-72257533D01*
X115395285Y-72257533D02*
X115347666Y-72400390D01*
X115347666Y-72400390D02*
X114776238Y-72971819D01*
X114776238Y-72971819D02*
X115395285Y-72971819D01*
X112347667Y-74511819D02*
X112681000Y-75511819D01*
X112681000Y-75511819D02*
X113014333Y-74511819D01*
X113871476Y-74559438D02*
X113776238Y-74511819D01*
X113776238Y-74511819D02*
X113633381Y-74511819D01*
X113633381Y-74511819D02*
X113490524Y-74559438D01*
X113490524Y-74559438D02*
X113395286Y-74654676D01*
X113395286Y-74654676D02*
X113347667Y-74749914D01*
X113347667Y-74749914D02*
X113300048Y-74940390D01*
X113300048Y-74940390D02*
X113300048Y-75083247D01*
X113300048Y-75083247D02*
X113347667Y-75273723D01*
X113347667Y-75273723D02*
X113395286Y-75368961D01*
X113395286Y-75368961D02*
X113490524Y-75464200D01*
X113490524Y-75464200D02*
X113633381Y-75511819D01*
X113633381Y-75511819D02*
X113728619Y-75511819D01*
X113728619Y-75511819D02*
X113871476Y-75464200D01*
X113871476Y-75464200D02*
X113919095Y-75416580D01*
X113919095Y-75416580D02*
X113919095Y-75083247D01*
X113919095Y-75083247D02*
X113728619Y-75083247D01*
X114347667Y-75511819D02*
X114347667Y-74511819D01*
X114347667Y-74511819D02*
X114919095Y-75511819D01*
X114919095Y-75511819D02*
X114919095Y-74511819D01*
X115395286Y-75511819D02*
X115395286Y-74511819D01*
X115395286Y-74511819D02*
X115633381Y-74511819D01*
X115633381Y-74511819D02*
X115776238Y-74559438D01*
X115776238Y-74559438D02*
X115871476Y-74654676D01*
X115871476Y-74654676D02*
X115919095Y-74749914D01*
X115919095Y-74749914D02*
X115966714Y-74940390D01*
X115966714Y-74940390D02*
X115966714Y-75083247D01*
X115966714Y-75083247D02*
X115919095Y-75273723D01*
X115919095Y-75273723D02*
X115871476Y-75368961D01*
X115871476Y-75368961D02*
X115776238Y-75464200D01*
X115776238Y-75464200D02*
X115633381Y-75511819D01*
X115633381Y-75511819D02*
X115395286Y-75511819D01*
X116347667Y-74607057D02*
X116395286Y-74559438D01*
X116395286Y-74559438D02*
X116490524Y-74511819D01*
X116490524Y-74511819D02*
X116728619Y-74511819D01*
X116728619Y-74511819D02*
X116823857Y-74559438D01*
X116823857Y-74559438D02*
X116871476Y-74607057D01*
X116871476Y-74607057D02*
X116919095Y-74702295D01*
X116919095Y-74702295D02*
X116919095Y-74797533D01*
X116919095Y-74797533D02*
X116871476Y-74940390D01*
X116871476Y-74940390D02*
X116300048Y-75511819D01*
X116300048Y-75511819D02*
X116919095Y-75511819D01*
X112347667Y-77051819D02*
X112681000Y-78051819D01*
X112681000Y-78051819D02*
X113014333Y-77051819D01*
X113347667Y-78051819D02*
X113347667Y-77051819D01*
X113823857Y-78051819D02*
X113823857Y-77051819D01*
X113823857Y-77051819D02*
X114395285Y-78051819D01*
X114395285Y-78051819D02*
X114395285Y-77051819D01*
X114776238Y-77051819D02*
X115395285Y-77051819D01*
X115395285Y-77051819D02*
X115061952Y-77432771D01*
X115061952Y-77432771D02*
X115204809Y-77432771D01*
X115204809Y-77432771D02*
X115300047Y-77480390D01*
X115300047Y-77480390D02*
X115347666Y-77528009D01*
X115347666Y-77528009D02*
X115395285Y-77623247D01*
X115395285Y-77623247D02*
X115395285Y-77861342D01*
X115395285Y-77861342D02*
X115347666Y-77956580D01*
X115347666Y-77956580D02*
X115300047Y-78004200D01*
X115300047Y-78004200D02*
X115204809Y-78051819D01*
X115204809Y-78051819D02*
X114919095Y-78051819D01*
X114919095Y-78051819D02*
X114823857Y-78004200D01*
X114823857Y-78004200D02*
X114776238Y-77956580D01*
X112347667Y-79591819D02*
X112681000Y-80591819D01*
X112681000Y-80591819D02*
X113014333Y-79591819D01*
X113871476Y-79639438D02*
X113776238Y-79591819D01*
X113776238Y-79591819D02*
X113633381Y-79591819D01*
X113633381Y-79591819D02*
X113490524Y-79639438D01*
X113490524Y-79639438D02*
X113395286Y-79734676D01*
X113395286Y-79734676D02*
X113347667Y-79829914D01*
X113347667Y-79829914D02*
X113300048Y-80020390D01*
X113300048Y-80020390D02*
X113300048Y-80163247D01*
X113300048Y-80163247D02*
X113347667Y-80353723D01*
X113347667Y-80353723D02*
X113395286Y-80448961D01*
X113395286Y-80448961D02*
X113490524Y-80544200D01*
X113490524Y-80544200D02*
X113633381Y-80591819D01*
X113633381Y-80591819D02*
X113728619Y-80591819D01*
X113728619Y-80591819D02*
X113871476Y-80544200D01*
X113871476Y-80544200D02*
X113919095Y-80496580D01*
X113919095Y-80496580D02*
X113919095Y-80163247D01*
X113919095Y-80163247D02*
X113728619Y-80163247D01*
X114347667Y-80591819D02*
X114347667Y-79591819D01*
X114347667Y-79591819D02*
X114919095Y-80591819D01*
X114919095Y-80591819D02*
X114919095Y-79591819D01*
X115395286Y-80591819D02*
X115395286Y-79591819D01*
X115395286Y-79591819D02*
X115633381Y-79591819D01*
X115633381Y-79591819D02*
X115776238Y-79639438D01*
X115776238Y-79639438D02*
X115871476Y-79734676D01*
X115871476Y-79734676D02*
X115919095Y-79829914D01*
X115919095Y-79829914D02*
X115966714Y-80020390D01*
X115966714Y-80020390D02*
X115966714Y-80163247D01*
X115966714Y-80163247D02*
X115919095Y-80353723D01*
X115919095Y-80353723D02*
X115871476Y-80448961D01*
X115871476Y-80448961D02*
X115776238Y-80544200D01*
X115776238Y-80544200D02*
X115633381Y-80591819D01*
X115633381Y-80591819D02*
X115395286Y-80591819D01*
X116300048Y-79591819D02*
X116919095Y-79591819D01*
X116919095Y-79591819D02*
X116585762Y-79972771D01*
X116585762Y-79972771D02*
X116728619Y-79972771D01*
X116728619Y-79972771D02*
X116823857Y-80020390D01*
X116823857Y-80020390D02*
X116871476Y-80068009D01*
X116871476Y-80068009D02*
X116919095Y-80163247D01*
X116919095Y-80163247D02*
X116919095Y-80401342D01*
X116919095Y-80401342D02*
X116871476Y-80496580D01*
X116871476Y-80496580D02*
X116823857Y-80544200D01*
X116823857Y-80544200D02*
X116728619Y-80591819D01*
X116728619Y-80591819D02*
X116442905Y-80591819D01*
X116442905Y-80591819D02*
X116347667Y-80544200D01*
X116347667Y-80544200D02*
X116300048Y-80496580D01*
X112347667Y-82131819D02*
X112681000Y-83131819D01*
X112681000Y-83131819D02*
X113014333Y-82131819D01*
X113347667Y-83131819D02*
X113347667Y-82131819D01*
X113823857Y-83131819D02*
X113823857Y-82131819D01*
X113823857Y-82131819D02*
X114395285Y-83131819D01*
X114395285Y-83131819D02*
X114395285Y-82131819D01*
X115300047Y-82465152D02*
X115300047Y-83131819D01*
X115061952Y-82084200D02*
X114823857Y-82798485D01*
X114823857Y-82798485D02*
X115442904Y-82798485D01*
X112347667Y-84544819D02*
X112681000Y-85544819D01*
X112681000Y-85544819D02*
X113014333Y-84544819D01*
X113871476Y-84592438D02*
X113776238Y-84544819D01*
X113776238Y-84544819D02*
X113633381Y-84544819D01*
X113633381Y-84544819D02*
X113490524Y-84592438D01*
X113490524Y-84592438D02*
X113395286Y-84687676D01*
X113395286Y-84687676D02*
X113347667Y-84782914D01*
X113347667Y-84782914D02*
X113300048Y-84973390D01*
X113300048Y-84973390D02*
X113300048Y-85116247D01*
X113300048Y-85116247D02*
X113347667Y-85306723D01*
X113347667Y-85306723D02*
X113395286Y-85401961D01*
X113395286Y-85401961D02*
X113490524Y-85497200D01*
X113490524Y-85497200D02*
X113633381Y-85544819D01*
X113633381Y-85544819D02*
X113728619Y-85544819D01*
X113728619Y-85544819D02*
X113871476Y-85497200D01*
X113871476Y-85497200D02*
X113919095Y-85449580D01*
X113919095Y-85449580D02*
X113919095Y-85116247D01*
X113919095Y-85116247D02*
X113728619Y-85116247D01*
X114347667Y-85544819D02*
X114347667Y-84544819D01*
X114347667Y-84544819D02*
X114919095Y-85544819D01*
X114919095Y-85544819D02*
X114919095Y-84544819D01*
X115395286Y-85544819D02*
X115395286Y-84544819D01*
X115395286Y-84544819D02*
X115633381Y-84544819D01*
X115633381Y-84544819D02*
X115776238Y-84592438D01*
X115776238Y-84592438D02*
X115871476Y-84687676D01*
X115871476Y-84687676D02*
X115919095Y-84782914D01*
X115919095Y-84782914D02*
X115966714Y-84973390D01*
X115966714Y-84973390D02*
X115966714Y-85116247D01*
X115966714Y-85116247D02*
X115919095Y-85306723D01*
X115919095Y-85306723D02*
X115871476Y-85401961D01*
X115871476Y-85401961D02*
X115776238Y-85497200D01*
X115776238Y-85497200D02*
X115633381Y-85544819D01*
X115633381Y-85544819D02*
X115395286Y-85544819D01*
X116823857Y-84878152D02*
X116823857Y-85544819D01*
X116585762Y-84497200D02*
X116347667Y-85211485D01*
X116347667Y-85211485D02*
X116966714Y-85211485D01*
X112347667Y-87211819D02*
X112681000Y-88211819D01*
X112681000Y-88211819D02*
X113014333Y-87211819D01*
X113347667Y-88211819D02*
X113347667Y-87211819D01*
X113823857Y-88211819D02*
X113823857Y-87211819D01*
X113823857Y-87211819D02*
X114395285Y-88211819D01*
X114395285Y-88211819D02*
X114395285Y-87211819D01*
X115347666Y-87211819D02*
X114871476Y-87211819D01*
X114871476Y-87211819D02*
X114823857Y-87688009D01*
X114823857Y-87688009D02*
X114871476Y-87640390D01*
X114871476Y-87640390D02*
X114966714Y-87592771D01*
X114966714Y-87592771D02*
X115204809Y-87592771D01*
X115204809Y-87592771D02*
X115300047Y-87640390D01*
X115300047Y-87640390D02*
X115347666Y-87688009D01*
X115347666Y-87688009D02*
X115395285Y-87783247D01*
X115395285Y-87783247D02*
X115395285Y-88021342D01*
X115395285Y-88021342D02*
X115347666Y-88116580D01*
X115347666Y-88116580D02*
X115300047Y-88164200D01*
X115300047Y-88164200D02*
X115204809Y-88211819D01*
X115204809Y-88211819D02*
X114966714Y-88211819D01*
X114966714Y-88211819D02*
X114871476Y-88164200D01*
X114871476Y-88164200D02*
X114823857Y-88116580D01*
X112347667Y-89751819D02*
X112681000Y-90751819D01*
X112681000Y-90751819D02*
X113014333Y-89751819D01*
X113871476Y-89799438D02*
X113776238Y-89751819D01*
X113776238Y-89751819D02*
X113633381Y-89751819D01*
X113633381Y-89751819D02*
X113490524Y-89799438D01*
X113490524Y-89799438D02*
X113395286Y-89894676D01*
X113395286Y-89894676D02*
X113347667Y-89989914D01*
X113347667Y-89989914D02*
X113300048Y-90180390D01*
X113300048Y-90180390D02*
X113300048Y-90323247D01*
X113300048Y-90323247D02*
X113347667Y-90513723D01*
X113347667Y-90513723D02*
X113395286Y-90608961D01*
X113395286Y-90608961D02*
X113490524Y-90704200D01*
X113490524Y-90704200D02*
X113633381Y-90751819D01*
X113633381Y-90751819D02*
X113728619Y-90751819D01*
X113728619Y-90751819D02*
X113871476Y-90704200D01*
X113871476Y-90704200D02*
X113919095Y-90656580D01*
X113919095Y-90656580D02*
X113919095Y-90323247D01*
X113919095Y-90323247D02*
X113728619Y-90323247D01*
X114347667Y-90751819D02*
X114347667Y-89751819D01*
X114347667Y-89751819D02*
X114919095Y-90751819D01*
X114919095Y-90751819D02*
X114919095Y-89751819D01*
X115395286Y-90751819D02*
X115395286Y-89751819D01*
X115395286Y-89751819D02*
X115633381Y-89751819D01*
X115633381Y-89751819D02*
X115776238Y-89799438D01*
X115776238Y-89799438D02*
X115871476Y-89894676D01*
X115871476Y-89894676D02*
X115919095Y-89989914D01*
X115919095Y-89989914D02*
X115966714Y-90180390D01*
X115966714Y-90180390D02*
X115966714Y-90323247D01*
X115966714Y-90323247D02*
X115919095Y-90513723D01*
X115919095Y-90513723D02*
X115871476Y-90608961D01*
X115871476Y-90608961D02*
X115776238Y-90704200D01*
X115776238Y-90704200D02*
X115633381Y-90751819D01*
X115633381Y-90751819D02*
X115395286Y-90751819D01*
X116871476Y-89751819D02*
X116395286Y-89751819D01*
X116395286Y-89751819D02*
X116347667Y-90228009D01*
X116347667Y-90228009D02*
X116395286Y-90180390D01*
X116395286Y-90180390D02*
X116490524Y-90132771D01*
X116490524Y-90132771D02*
X116728619Y-90132771D01*
X116728619Y-90132771D02*
X116823857Y-90180390D01*
X116823857Y-90180390D02*
X116871476Y-90228009D01*
X116871476Y-90228009D02*
X116919095Y-90323247D01*
X116919095Y-90323247D02*
X116919095Y-90561342D01*
X116919095Y-90561342D02*
X116871476Y-90656580D01*
X116871476Y-90656580D02*
X116823857Y-90704200D01*
X116823857Y-90704200D02*
X116728619Y-90751819D01*
X116728619Y-90751819D02*
X116490524Y-90751819D01*
X116490524Y-90751819D02*
X116395286Y-90704200D01*
X116395286Y-90704200D02*
X116347667Y-90656580D01*
X112347667Y-92291819D02*
X112681000Y-93291819D01*
X112681000Y-93291819D02*
X113014333Y-92291819D01*
X113347667Y-93291819D02*
X113347667Y-92291819D01*
X113823857Y-93291819D02*
X113823857Y-92291819D01*
X113823857Y-92291819D02*
X114395285Y-93291819D01*
X114395285Y-93291819D02*
X114395285Y-92291819D01*
X115300047Y-92291819D02*
X115109571Y-92291819D01*
X115109571Y-92291819D02*
X115014333Y-92339438D01*
X115014333Y-92339438D02*
X114966714Y-92387057D01*
X114966714Y-92387057D02*
X114871476Y-92529914D01*
X114871476Y-92529914D02*
X114823857Y-92720390D01*
X114823857Y-92720390D02*
X114823857Y-93101342D01*
X114823857Y-93101342D02*
X114871476Y-93196580D01*
X114871476Y-93196580D02*
X114919095Y-93244200D01*
X114919095Y-93244200D02*
X115014333Y-93291819D01*
X115014333Y-93291819D02*
X115204809Y-93291819D01*
X115204809Y-93291819D02*
X115300047Y-93244200D01*
X115300047Y-93244200D02*
X115347666Y-93196580D01*
X115347666Y-93196580D02*
X115395285Y-93101342D01*
X115395285Y-93101342D02*
X115395285Y-92863247D01*
X115395285Y-92863247D02*
X115347666Y-92768009D01*
X115347666Y-92768009D02*
X115300047Y-92720390D01*
X115300047Y-92720390D02*
X115204809Y-92672771D01*
X115204809Y-92672771D02*
X115014333Y-92672771D01*
X115014333Y-92672771D02*
X114919095Y-92720390D01*
X114919095Y-92720390D02*
X114871476Y-92768009D01*
X114871476Y-92768009D02*
X114823857Y-92863247D01*
X112347667Y-94831819D02*
X112681000Y-95831819D01*
X112681000Y-95831819D02*
X113014333Y-94831819D01*
X113871476Y-94879438D02*
X113776238Y-94831819D01*
X113776238Y-94831819D02*
X113633381Y-94831819D01*
X113633381Y-94831819D02*
X113490524Y-94879438D01*
X113490524Y-94879438D02*
X113395286Y-94974676D01*
X113395286Y-94974676D02*
X113347667Y-95069914D01*
X113347667Y-95069914D02*
X113300048Y-95260390D01*
X113300048Y-95260390D02*
X113300048Y-95403247D01*
X113300048Y-95403247D02*
X113347667Y-95593723D01*
X113347667Y-95593723D02*
X113395286Y-95688961D01*
X113395286Y-95688961D02*
X113490524Y-95784200D01*
X113490524Y-95784200D02*
X113633381Y-95831819D01*
X113633381Y-95831819D02*
X113728619Y-95831819D01*
X113728619Y-95831819D02*
X113871476Y-95784200D01*
X113871476Y-95784200D02*
X113919095Y-95736580D01*
X113919095Y-95736580D02*
X113919095Y-95403247D01*
X113919095Y-95403247D02*
X113728619Y-95403247D01*
X114347667Y-95831819D02*
X114347667Y-94831819D01*
X114347667Y-94831819D02*
X114919095Y-95831819D01*
X114919095Y-95831819D02*
X114919095Y-94831819D01*
X115395286Y-95831819D02*
X115395286Y-94831819D01*
X115395286Y-94831819D02*
X115633381Y-94831819D01*
X115633381Y-94831819D02*
X115776238Y-94879438D01*
X115776238Y-94879438D02*
X115871476Y-94974676D01*
X115871476Y-94974676D02*
X115919095Y-95069914D01*
X115919095Y-95069914D02*
X115966714Y-95260390D01*
X115966714Y-95260390D02*
X115966714Y-95403247D01*
X115966714Y-95403247D02*
X115919095Y-95593723D01*
X115919095Y-95593723D02*
X115871476Y-95688961D01*
X115871476Y-95688961D02*
X115776238Y-95784200D01*
X115776238Y-95784200D02*
X115633381Y-95831819D01*
X115633381Y-95831819D02*
X115395286Y-95831819D01*
X116823857Y-94831819D02*
X116633381Y-94831819D01*
X116633381Y-94831819D02*
X116538143Y-94879438D01*
X116538143Y-94879438D02*
X116490524Y-94927057D01*
X116490524Y-94927057D02*
X116395286Y-95069914D01*
X116395286Y-95069914D02*
X116347667Y-95260390D01*
X116347667Y-95260390D02*
X116347667Y-95641342D01*
X116347667Y-95641342D02*
X116395286Y-95736580D01*
X116395286Y-95736580D02*
X116442905Y-95784200D01*
X116442905Y-95784200D02*
X116538143Y-95831819D01*
X116538143Y-95831819D02*
X116728619Y-95831819D01*
X116728619Y-95831819D02*
X116823857Y-95784200D01*
X116823857Y-95784200D02*
X116871476Y-95736580D01*
X116871476Y-95736580D02*
X116919095Y-95641342D01*
X116919095Y-95641342D02*
X116919095Y-95403247D01*
X116919095Y-95403247D02*
X116871476Y-95308009D01*
X116871476Y-95308009D02*
X116823857Y-95260390D01*
X116823857Y-95260390D02*
X116728619Y-95212771D01*
X116728619Y-95212771D02*
X116538143Y-95212771D01*
X116538143Y-95212771D02*
X116442905Y-95260390D01*
X116442905Y-95260390D02*
X116395286Y-95308009D01*
X116395286Y-95308009D02*
X116347667Y-95403247D01*
X112347667Y-97371819D02*
X112681000Y-98371819D01*
X112681000Y-98371819D02*
X113014333Y-97371819D01*
X113347667Y-98371819D02*
X113347667Y-97371819D01*
X113823857Y-98371819D02*
X113823857Y-97371819D01*
X113823857Y-97371819D02*
X114395285Y-98371819D01*
X114395285Y-98371819D02*
X114395285Y-97371819D01*
X114776238Y-97371819D02*
X115442904Y-97371819D01*
X115442904Y-97371819D02*
X115014333Y-98371819D01*
X112347667Y-99911819D02*
X112681000Y-100911819D01*
X112681000Y-100911819D02*
X113014333Y-99911819D01*
X113871476Y-99959438D02*
X113776238Y-99911819D01*
X113776238Y-99911819D02*
X113633381Y-99911819D01*
X113633381Y-99911819D02*
X113490524Y-99959438D01*
X113490524Y-99959438D02*
X113395286Y-100054676D01*
X113395286Y-100054676D02*
X113347667Y-100149914D01*
X113347667Y-100149914D02*
X113300048Y-100340390D01*
X113300048Y-100340390D02*
X113300048Y-100483247D01*
X113300048Y-100483247D02*
X113347667Y-100673723D01*
X113347667Y-100673723D02*
X113395286Y-100768961D01*
X113395286Y-100768961D02*
X113490524Y-100864200D01*
X113490524Y-100864200D02*
X113633381Y-100911819D01*
X113633381Y-100911819D02*
X113728619Y-100911819D01*
X113728619Y-100911819D02*
X113871476Y-100864200D01*
X113871476Y-100864200D02*
X113919095Y-100816580D01*
X113919095Y-100816580D02*
X113919095Y-100483247D01*
X113919095Y-100483247D02*
X113728619Y-100483247D01*
X114347667Y-100911819D02*
X114347667Y-99911819D01*
X114347667Y-99911819D02*
X114919095Y-100911819D01*
X114919095Y-100911819D02*
X114919095Y-99911819D01*
X115395286Y-100911819D02*
X115395286Y-99911819D01*
X115395286Y-99911819D02*
X115633381Y-99911819D01*
X115633381Y-99911819D02*
X115776238Y-99959438D01*
X115776238Y-99959438D02*
X115871476Y-100054676D01*
X115871476Y-100054676D02*
X115919095Y-100149914D01*
X115919095Y-100149914D02*
X115966714Y-100340390D01*
X115966714Y-100340390D02*
X115966714Y-100483247D01*
X115966714Y-100483247D02*
X115919095Y-100673723D01*
X115919095Y-100673723D02*
X115871476Y-100768961D01*
X115871476Y-100768961D02*
X115776238Y-100864200D01*
X115776238Y-100864200D02*
X115633381Y-100911819D01*
X115633381Y-100911819D02*
X115395286Y-100911819D01*
X116300048Y-99911819D02*
X116966714Y-99911819D01*
X116966714Y-99911819D02*
X116538143Y-100911819D01*
X112490525Y-103451819D02*
X112490525Y-102451819D01*
X112490525Y-102451819D02*
X112823858Y-103166104D01*
X112823858Y-103166104D02*
X113157191Y-102451819D01*
X113157191Y-102451819D02*
X113157191Y-103451819D01*
X113633382Y-103451819D02*
X113633382Y-102451819D01*
X114109572Y-103451819D02*
X114109572Y-102451819D01*
X114109572Y-102451819D02*
X114347667Y-102451819D01*
X114347667Y-102451819D02*
X114490524Y-102499438D01*
X114490524Y-102499438D02*
X114585762Y-102594676D01*
X114585762Y-102594676D02*
X114633381Y-102689914D01*
X114633381Y-102689914D02*
X114681000Y-102880390D01*
X114681000Y-102880390D02*
X114681000Y-103023247D01*
X114681000Y-103023247D02*
X114633381Y-103213723D01*
X114633381Y-103213723D02*
X114585762Y-103308961D01*
X114585762Y-103308961D02*
X114490524Y-103404200D01*
X114490524Y-103404200D02*
X114347667Y-103451819D01*
X114347667Y-103451819D02*
X114109572Y-103451819D01*
X115109572Y-103451819D02*
X115109572Y-102451819D01*
X115347667Y-103547057D02*
X116109571Y-103547057D01*
X116204810Y-102451819D02*
X116776238Y-102451819D01*
X116490524Y-103451819D02*
X116490524Y-102451819D01*
X117014334Y-102451819D02*
X117681000Y-103451819D01*
X117681000Y-102451819D02*
X117014334Y-103451819D01*
X117823858Y-103547057D02*
X118585762Y-103547057D01*
X118823858Y-103451819D02*
X118823858Y-102451819D01*
X118823858Y-102451819D02*
X119204810Y-102451819D01*
X119204810Y-102451819D02*
X119300048Y-102499438D01*
X119300048Y-102499438D02*
X119347667Y-102547057D01*
X119347667Y-102547057D02*
X119395286Y-102642295D01*
X119395286Y-102642295D02*
X119395286Y-102785152D01*
X119395286Y-102785152D02*
X119347667Y-102880390D01*
X119347667Y-102880390D02*
X119300048Y-102928009D01*
X119300048Y-102928009D02*
X119204810Y-102975628D01*
X119204810Y-102975628D02*
X118823858Y-102975628D01*
X119823858Y-103451819D02*
X119823858Y-102451819D01*
X120300048Y-103451819D02*
X120300048Y-102451819D01*
X120300048Y-102451819D02*
X120871476Y-103451819D01*
X120871476Y-103451819D02*
X120871476Y-102451819D01*
X121300048Y-102547057D02*
X121347667Y-102499438D01*
X121347667Y-102499438D02*
X121442905Y-102451819D01*
X121442905Y-102451819D02*
X121681000Y-102451819D01*
X121681000Y-102451819D02*
X121776238Y-102499438D01*
X121776238Y-102499438D02*
X121823857Y-102547057D01*
X121823857Y-102547057D02*
X121871476Y-102642295D01*
X121871476Y-102642295D02*
X121871476Y-102737533D01*
X121871476Y-102737533D02*
X121823857Y-102880390D01*
X121823857Y-102880390D02*
X121252429Y-103451819D01*
X121252429Y-103451819D02*
X121871476Y-103451819D01*
X112490525Y-105991819D02*
X112490525Y-104991819D01*
X112490525Y-104991819D02*
X112823858Y-105706104D01*
X112823858Y-105706104D02*
X113157191Y-104991819D01*
X113157191Y-104991819D02*
X113157191Y-105991819D01*
X113633382Y-105991819D02*
X113633382Y-104991819D01*
X114109572Y-105991819D02*
X114109572Y-104991819D01*
X114109572Y-104991819D02*
X114347667Y-104991819D01*
X114347667Y-104991819D02*
X114490524Y-105039438D01*
X114490524Y-105039438D02*
X114585762Y-105134676D01*
X114585762Y-105134676D02*
X114633381Y-105229914D01*
X114633381Y-105229914D02*
X114681000Y-105420390D01*
X114681000Y-105420390D02*
X114681000Y-105563247D01*
X114681000Y-105563247D02*
X114633381Y-105753723D01*
X114633381Y-105753723D02*
X114585762Y-105848961D01*
X114585762Y-105848961D02*
X114490524Y-105944200D01*
X114490524Y-105944200D02*
X114347667Y-105991819D01*
X114347667Y-105991819D02*
X114109572Y-105991819D01*
X115109572Y-105991819D02*
X115109572Y-104991819D01*
X115347667Y-106087057D02*
X116109571Y-106087057D01*
X116204810Y-104991819D02*
X116776238Y-104991819D01*
X116490524Y-105991819D02*
X116490524Y-104991819D01*
X117014334Y-104991819D02*
X117681000Y-105991819D01*
X117681000Y-104991819D02*
X117014334Y-105991819D01*
X117823858Y-106087057D02*
X118585762Y-106087057D01*
X118823858Y-105991819D02*
X118823858Y-104991819D01*
X118823858Y-104991819D02*
X119204810Y-104991819D01*
X119204810Y-104991819D02*
X119300048Y-105039438D01*
X119300048Y-105039438D02*
X119347667Y-105087057D01*
X119347667Y-105087057D02*
X119395286Y-105182295D01*
X119395286Y-105182295D02*
X119395286Y-105325152D01*
X119395286Y-105325152D02*
X119347667Y-105420390D01*
X119347667Y-105420390D02*
X119300048Y-105468009D01*
X119300048Y-105468009D02*
X119204810Y-105515628D01*
X119204810Y-105515628D02*
X118823858Y-105515628D01*
X119823858Y-105991819D02*
X119823858Y-104991819D01*
X120300048Y-105991819D02*
X120300048Y-104991819D01*
X120300048Y-104991819D02*
X120871476Y-105991819D01*
X120871476Y-105991819D02*
X120871476Y-104991819D01*
X121776238Y-105325152D02*
X121776238Y-105991819D01*
X121538143Y-104944200D02*
X121300048Y-105658485D01*
X121300048Y-105658485D02*
X121919095Y-105658485D01*
X112490524Y-108531819D02*
X112490524Y-107531819D01*
X112490524Y-107531819D02*
X112728619Y-107531819D01*
X112728619Y-107531819D02*
X112871476Y-107579438D01*
X112871476Y-107579438D02*
X112966714Y-107674676D01*
X112966714Y-107674676D02*
X113014333Y-107769914D01*
X113014333Y-107769914D02*
X113061952Y-107960390D01*
X113061952Y-107960390D02*
X113061952Y-108103247D01*
X113061952Y-108103247D02*
X113014333Y-108293723D01*
X113014333Y-108293723D02*
X112966714Y-108388961D01*
X112966714Y-108388961D02*
X112871476Y-108484200D01*
X112871476Y-108484200D02*
X112728619Y-108531819D01*
X112728619Y-108531819D02*
X112490524Y-108531819D01*
X113490524Y-108531819D02*
X113490524Y-107531819D01*
X113966714Y-108531819D02*
X113966714Y-107531819D01*
X113966714Y-107531819D02*
X114538142Y-108531819D01*
X114538142Y-108531819D02*
X114538142Y-107531819D01*
X115538142Y-108531819D02*
X114966714Y-108531819D01*
X115252428Y-108531819D02*
X115252428Y-107531819D01*
X115252428Y-107531819D02*
X115157190Y-107674676D01*
X115157190Y-107674676D02*
X115061952Y-107769914D01*
X115061952Y-107769914D02*
X114966714Y-107817533D01*
X112490524Y-111071819D02*
X112490524Y-110071819D01*
X112490524Y-110071819D02*
X112728619Y-110071819D01*
X112728619Y-110071819D02*
X112871476Y-110119438D01*
X112871476Y-110119438D02*
X112966714Y-110214676D01*
X112966714Y-110214676D02*
X113014333Y-110309914D01*
X113014333Y-110309914D02*
X113061952Y-110500390D01*
X113061952Y-110500390D02*
X113061952Y-110643247D01*
X113061952Y-110643247D02*
X113014333Y-110833723D01*
X113014333Y-110833723D02*
X112966714Y-110928961D01*
X112966714Y-110928961D02*
X112871476Y-111024200D01*
X112871476Y-111024200D02*
X112728619Y-111071819D01*
X112728619Y-111071819D02*
X112490524Y-111071819D01*
X113490524Y-111071819D02*
X113490524Y-110071819D01*
X113966714Y-111071819D02*
X113966714Y-110071819D01*
X113966714Y-110071819D02*
X114538142Y-111071819D01*
X114538142Y-111071819D02*
X114538142Y-110071819D01*
X114966714Y-110167057D02*
X115014333Y-110119438D01*
X115014333Y-110119438D02*
X115109571Y-110071819D01*
X115109571Y-110071819D02*
X115347666Y-110071819D01*
X115347666Y-110071819D02*
X115442904Y-110119438D01*
X115442904Y-110119438D02*
X115490523Y-110167057D01*
X115490523Y-110167057D02*
X115538142Y-110262295D01*
X115538142Y-110262295D02*
X115538142Y-110357533D01*
X115538142Y-110357533D02*
X115490523Y-110500390D01*
X115490523Y-110500390D02*
X114919095Y-111071819D01*
X114919095Y-111071819D02*
X115538142Y-111071819D01*
X112514208Y-113611819D02*
X112514208Y-112611819D01*
X112514208Y-112611819D02*
X113085636Y-113611819D01*
X113085636Y-113611819D02*
X113085636Y-112611819D01*
X114276112Y-112564200D02*
X113418970Y-113849914D01*
X115180874Y-113516580D02*
X115133255Y-113564200D01*
X115133255Y-113564200D02*
X114990398Y-113611819D01*
X114990398Y-113611819D02*
X114895160Y-113611819D01*
X114895160Y-113611819D02*
X114752303Y-113564200D01*
X114752303Y-113564200D02*
X114657065Y-113468961D01*
X114657065Y-113468961D02*
X114609446Y-113373723D01*
X114609446Y-113373723D02*
X114561827Y-113183247D01*
X114561827Y-113183247D02*
X114561827Y-113040390D01*
X114561827Y-113040390D02*
X114609446Y-112849914D01*
X114609446Y-112849914D02*
X114657065Y-112754676D01*
X114657065Y-112754676D02*
X114752303Y-112659438D01*
X114752303Y-112659438D02*
X114895160Y-112611819D01*
X114895160Y-112611819D02*
X114990398Y-112611819D01*
X114990398Y-112611819D02*
X115133255Y-112659438D01*
X115133255Y-112659438D02*
X115180874Y-112707057D01*
X165608143Y-113230866D02*
X166370048Y-113230866D01*
X165989095Y-113611819D02*
X165989095Y-112849914D01*
X167322428Y-112611819D02*
X166846238Y-112611819D01*
X166846238Y-112611819D02*
X166798619Y-113088009D01*
X166798619Y-113088009D02*
X166846238Y-113040390D01*
X166846238Y-113040390D02*
X166941476Y-112992771D01*
X166941476Y-112992771D02*
X167179571Y-112992771D01*
X167179571Y-112992771D02*
X167274809Y-113040390D01*
X167274809Y-113040390D02*
X167322428Y-113088009D01*
X167322428Y-113088009D02*
X167370047Y-113183247D01*
X167370047Y-113183247D02*
X167370047Y-113421342D01*
X167370047Y-113421342D02*
X167322428Y-113516580D01*
X167322428Y-113516580D02*
X167274809Y-113564200D01*
X167274809Y-113564200D02*
X167179571Y-113611819D01*
X167179571Y-113611819D02*
X166941476Y-113611819D01*
X166941476Y-113611819D02*
X166846238Y-113564200D01*
X166846238Y-113564200D02*
X166798619Y-113516580D01*
X167655762Y-112611819D02*
X167989095Y-113611819D01*
X167989095Y-113611819D02*
X168322428Y-112611819D01*
X162655762Y-110548009D02*
X162989095Y-110548009D01*
X163131952Y-111071819D02*
X162655762Y-111071819D01*
X162655762Y-111071819D02*
X162655762Y-110071819D01*
X162655762Y-110071819D02*
X163131952Y-110071819D01*
X163560524Y-111071819D02*
X163560524Y-110071819D01*
X163560524Y-110071819D02*
X164131952Y-111071819D01*
X164131952Y-111071819D02*
X164131952Y-110071819D01*
X165179571Y-110976580D02*
X165131952Y-111024200D01*
X165131952Y-111024200D02*
X164989095Y-111071819D01*
X164989095Y-111071819D02*
X164893857Y-111071819D01*
X164893857Y-111071819D02*
X164751000Y-111024200D01*
X164751000Y-111024200D02*
X164655762Y-110928961D01*
X164655762Y-110928961D02*
X164608143Y-110833723D01*
X164608143Y-110833723D02*
X164560524Y-110643247D01*
X164560524Y-110643247D02*
X164560524Y-110500390D01*
X164560524Y-110500390D02*
X164608143Y-110309914D01*
X164608143Y-110309914D02*
X164655762Y-110214676D01*
X164655762Y-110214676D02*
X164751000Y-110119438D01*
X164751000Y-110119438D02*
X164893857Y-110071819D01*
X164893857Y-110071819D02*
X164989095Y-110071819D01*
X164989095Y-110071819D02*
X165131952Y-110119438D01*
X165131952Y-110119438D02*
X165179571Y-110167057D01*
X166131952Y-111071819D02*
X165560524Y-111071819D01*
X165846238Y-111071819D02*
X165846238Y-110071819D01*
X165846238Y-110071819D02*
X165751000Y-110214676D01*
X165751000Y-110214676D02*
X165655762Y-110309914D01*
X165655762Y-110309914D02*
X165560524Y-110357533D01*
X166512905Y-111024200D02*
X166655762Y-111071819D01*
X166655762Y-111071819D02*
X166893857Y-111071819D01*
X166893857Y-111071819D02*
X166989095Y-111024200D01*
X166989095Y-111024200D02*
X167036714Y-110976580D01*
X167036714Y-110976580D02*
X167084333Y-110881342D01*
X167084333Y-110881342D02*
X167084333Y-110786104D01*
X167084333Y-110786104D02*
X167036714Y-110690866D01*
X167036714Y-110690866D02*
X166989095Y-110643247D01*
X166989095Y-110643247D02*
X166893857Y-110595628D01*
X166893857Y-110595628D02*
X166703381Y-110548009D01*
X166703381Y-110548009D02*
X166608143Y-110500390D01*
X166608143Y-110500390D02*
X166560524Y-110452771D01*
X166560524Y-110452771D02*
X166512905Y-110357533D01*
X166512905Y-110357533D02*
X166512905Y-110262295D01*
X166512905Y-110262295D02*
X166560524Y-110167057D01*
X166560524Y-110167057D02*
X166608143Y-110119438D01*
X166608143Y-110119438D02*
X166703381Y-110071819D01*
X166703381Y-110071819D02*
X166941476Y-110071819D01*
X166941476Y-110071819D02*
X167084333Y-110119438D01*
X167417667Y-110071819D02*
X167655762Y-111071819D01*
X167655762Y-111071819D02*
X167846238Y-110357533D01*
X167846238Y-110357533D02*
X168036714Y-111071819D01*
X168036714Y-111071819D02*
X168274810Y-110071819D01*
X163751000Y-108008009D02*
X164084333Y-108008009D01*
X164227190Y-108531819D02*
X163751000Y-108531819D01*
X163751000Y-108531819D02*
X163751000Y-107531819D01*
X163751000Y-107531819D02*
X164227190Y-107531819D01*
X164655762Y-108531819D02*
X164655762Y-107531819D01*
X164655762Y-107531819D02*
X165227190Y-108531819D01*
X165227190Y-108531819D02*
X165227190Y-107531819D01*
X166274809Y-108436580D02*
X166227190Y-108484200D01*
X166227190Y-108484200D02*
X166084333Y-108531819D01*
X166084333Y-108531819D02*
X165989095Y-108531819D01*
X165989095Y-108531819D02*
X165846238Y-108484200D01*
X165846238Y-108484200D02*
X165751000Y-108388961D01*
X165751000Y-108388961D02*
X165703381Y-108293723D01*
X165703381Y-108293723D02*
X165655762Y-108103247D01*
X165655762Y-108103247D02*
X165655762Y-107960390D01*
X165655762Y-107960390D02*
X165703381Y-107769914D01*
X165703381Y-107769914D02*
X165751000Y-107674676D01*
X165751000Y-107674676D02*
X165846238Y-107579438D01*
X165846238Y-107579438D02*
X165989095Y-107531819D01*
X165989095Y-107531819D02*
X166084333Y-107531819D01*
X166084333Y-107531819D02*
X166227190Y-107579438D01*
X166227190Y-107579438D02*
X166274809Y-107627057D01*
X167227190Y-108531819D02*
X166655762Y-108531819D01*
X166941476Y-108531819D02*
X166941476Y-107531819D01*
X166941476Y-107531819D02*
X166846238Y-107674676D01*
X166846238Y-107674676D02*
X166751000Y-107769914D01*
X166751000Y-107769914D02*
X166655762Y-107817533D01*
X167989095Y-108008009D02*
X168131952Y-108055628D01*
X168131952Y-108055628D02*
X168179571Y-108103247D01*
X168179571Y-108103247D02*
X168227190Y-108198485D01*
X168227190Y-108198485D02*
X168227190Y-108341342D01*
X168227190Y-108341342D02*
X168179571Y-108436580D01*
X168179571Y-108436580D02*
X168131952Y-108484200D01*
X168131952Y-108484200D02*
X168036714Y-108531819D01*
X168036714Y-108531819D02*
X167655762Y-108531819D01*
X167655762Y-108531819D02*
X167655762Y-107531819D01*
X167655762Y-107531819D02*
X167989095Y-107531819D01*
X167989095Y-107531819D02*
X168084333Y-107579438D01*
X168084333Y-107579438D02*
X168131952Y-107627057D01*
X168131952Y-107627057D02*
X168179571Y-107722295D01*
X168179571Y-107722295D02*
X168179571Y-107817533D01*
X168179571Y-107817533D02*
X168131952Y-107912771D01*
X168131952Y-107912771D02*
X168084333Y-107960390D01*
X168084333Y-107960390D02*
X167989095Y-108008009D01*
X167989095Y-108008009D02*
X167655762Y-108008009D01*
X163893857Y-105468009D02*
X164227190Y-105468009D01*
X164370047Y-105991819D02*
X163893857Y-105991819D01*
X163893857Y-105991819D02*
X163893857Y-104991819D01*
X163893857Y-104991819D02*
X164370047Y-104991819D01*
X164798619Y-105991819D02*
X164798619Y-104991819D01*
X164798619Y-104991819D02*
X165370047Y-105991819D01*
X165370047Y-105991819D02*
X165370047Y-104991819D01*
X166417666Y-105896580D02*
X166370047Y-105944200D01*
X166370047Y-105944200D02*
X166227190Y-105991819D01*
X166227190Y-105991819D02*
X166131952Y-105991819D01*
X166131952Y-105991819D02*
X165989095Y-105944200D01*
X165989095Y-105944200D02*
X165893857Y-105848961D01*
X165893857Y-105848961D02*
X165846238Y-105753723D01*
X165846238Y-105753723D02*
X165798619Y-105563247D01*
X165798619Y-105563247D02*
X165798619Y-105420390D01*
X165798619Y-105420390D02*
X165846238Y-105229914D01*
X165846238Y-105229914D02*
X165893857Y-105134676D01*
X165893857Y-105134676D02*
X165989095Y-105039438D01*
X165989095Y-105039438D02*
X166131952Y-104991819D01*
X166131952Y-104991819D02*
X166227190Y-104991819D01*
X166227190Y-104991819D02*
X166370047Y-105039438D01*
X166370047Y-105039438D02*
X166417666Y-105087057D01*
X167370047Y-105991819D02*
X166798619Y-105991819D01*
X167084333Y-105991819D02*
X167084333Y-104991819D01*
X167084333Y-104991819D02*
X166989095Y-105134676D01*
X166989095Y-105134676D02*
X166893857Y-105229914D01*
X166893857Y-105229914D02*
X166798619Y-105277533D01*
X167751000Y-105706104D02*
X168227190Y-105706104D01*
X167655762Y-105991819D02*
X167989095Y-104991819D01*
X167989095Y-104991819D02*
X168322428Y-105991819D01*
X158608143Y-103451819D02*
X158608143Y-102451819D01*
X158608143Y-102451819D02*
X158941476Y-103166104D01*
X158941476Y-103166104D02*
X159274809Y-102451819D01*
X159274809Y-102451819D02*
X159274809Y-103451819D01*
X159751000Y-103451819D02*
X159751000Y-102451819D01*
X160227190Y-103451819D02*
X160227190Y-102451819D01*
X160227190Y-102451819D02*
X160465285Y-102451819D01*
X160465285Y-102451819D02*
X160608142Y-102499438D01*
X160608142Y-102499438D02*
X160703380Y-102594676D01*
X160703380Y-102594676D02*
X160750999Y-102689914D01*
X160750999Y-102689914D02*
X160798618Y-102880390D01*
X160798618Y-102880390D02*
X160798618Y-103023247D01*
X160798618Y-103023247D02*
X160750999Y-103213723D01*
X160750999Y-103213723D02*
X160703380Y-103308961D01*
X160703380Y-103308961D02*
X160608142Y-103404200D01*
X160608142Y-103404200D02*
X160465285Y-103451819D01*
X160465285Y-103451819D02*
X160227190Y-103451819D01*
X161227190Y-103451819D02*
X161227190Y-102451819D01*
X161465285Y-103547057D02*
X162227189Y-103547057D01*
X163036713Y-103451819D02*
X162703380Y-102975628D01*
X162465285Y-103451819D02*
X162465285Y-102451819D01*
X162465285Y-102451819D02*
X162846237Y-102451819D01*
X162846237Y-102451819D02*
X162941475Y-102499438D01*
X162941475Y-102499438D02*
X162989094Y-102547057D01*
X162989094Y-102547057D02*
X163036713Y-102642295D01*
X163036713Y-102642295D02*
X163036713Y-102785152D01*
X163036713Y-102785152D02*
X162989094Y-102880390D01*
X162989094Y-102880390D02*
X162941475Y-102928009D01*
X162941475Y-102928009D02*
X162846237Y-102975628D01*
X162846237Y-102975628D02*
X162465285Y-102975628D01*
X163370047Y-102451819D02*
X164036713Y-103451819D01*
X164036713Y-102451819D02*
X163370047Y-103451819D01*
X164179571Y-103547057D02*
X164941475Y-103547057D01*
X165179571Y-103451819D02*
X165179571Y-102451819D01*
X165179571Y-102451819D02*
X165560523Y-102451819D01*
X165560523Y-102451819D02*
X165655761Y-102499438D01*
X165655761Y-102499438D02*
X165703380Y-102547057D01*
X165703380Y-102547057D02*
X165750999Y-102642295D01*
X165750999Y-102642295D02*
X165750999Y-102785152D01*
X165750999Y-102785152D02*
X165703380Y-102880390D01*
X165703380Y-102880390D02*
X165655761Y-102928009D01*
X165655761Y-102928009D02*
X165560523Y-102975628D01*
X165560523Y-102975628D02*
X165179571Y-102975628D01*
X166179571Y-103451819D02*
X166179571Y-102451819D01*
X166655761Y-103451819D02*
X166655761Y-102451819D01*
X166655761Y-102451819D02*
X167227189Y-103451819D01*
X167227189Y-103451819D02*
X167227189Y-102451819D01*
X168131951Y-102785152D02*
X168131951Y-103451819D01*
X167893856Y-102404200D02*
X167655761Y-103118485D01*
X167655761Y-103118485D02*
X168274808Y-103118485D01*
X158608143Y-100911819D02*
X158608143Y-99911819D01*
X158608143Y-99911819D02*
X158941476Y-100626104D01*
X158941476Y-100626104D02*
X159274809Y-99911819D01*
X159274809Y-99911819D02*
X159274809Y-100911819D01*
X159751000Y-100911819D02*
X159751000Y-99911819D01*
X160227190Y-100911819D02*
X160227190Y-99911819D01*
X160227190Y-99911819D02*
X160465285Y-99911819D01*
X160465285Y-99911819D02*
X160608142Y-99959438D01*
X160608142Y-99959438D02*
X160703380Y-100054676D01*
X160703380Y-100054676D02*
X160750999Y-100149914D01*
X160750999Y-100149914D02*
X160798618Y-100340390D01*
X160798618Y-100340390D02*
X160798618Y-100483247D01*
X160798618Y-100483247D02*
X160750999Y-100673723D01*
X160750999Y-100673723D02*
X160703380Y-100768961D01*
X160703380Y-100768961D02*
X160608142Y-100864200D01*
X160608142Y-100864200D02*
X160465285Y-100911819D01*
X160465285Y-100911819D02*
X160227190Y-100911819D01*
X161227190Y-100911819D02*
X161227190Y-99911819D01*
X161465285Y-101007057D02*
X162227189Y-101007057D01*
X163036713Y-100911819D02*
X162703380Y-100435628D01*
X162465285Y-100911819D02*
X162465285Y-99911819D01*
X162465285Y-99911819D02*
X162846237Y-99911819D01*
X162846237Y-99911819D02*
X162941475Y-99959438D01*
X162941475Y-99959438D02*
X162989094Y-100007057D01*
X162989094Y-100007057D02*
X163036713Y-100102295D01*
X163036713Y-100102295D02*
X163036713Y-100245152D01*
X163036713Y-100245152D02*
X162989094Y-100340390D01*
X162989094Y-100340390D02*
X162941475Y-100388009D01*
X162941475Y-100388009D02*
X162846237Y-100435628D01*
X162846237Y-100435628D02*
X162465285Y-100435628D01*
X163370047Y-99911819D02*
X164036713Y-100911819D01*
X164036713Y-99911819D02*
X163370047Y-100911819D01*
X164179571Y-101007057D02*
X164941475Y-101007057D01*
X165179571Y-100911819D02*
X165179571Y-99911819D01*
X165179571Y-99911819D02*
X165560523Y-99911819D01*
X165560523Y-99911819D02*
X165655761Y-99959438D01*
X165655761Y-99959438D02*
X165703380Y-100007057D01*
X165703380Y-100007057D02*
X165750999Y-100102295D01*
X165750999Y-100102295D02*
X165750999Y-100245152D01*
X165750999Y-100245152D02*
X165703380Y-100340390D01*
X165703380Y-100340390D02*
X165655761Y-100388009D01*
X165655761Y-100388009D02*
X165560523Y-100435628D01*
X165560523Y-100435628D02*
X165179571Y-100435628D01*
X166179571Y-100911819D02*
X166179571Y-99911819D01*
X166655761Y-100911819D02*
X166655761Y-99911819D01*
X166655761Y-99911819D02*
X167227189Y-100911819D01*
X167227189Y-100911819D02*
X167227189Y-99911819D01*
X167655761Y-100007057D02*
X167703380Y-99959438D01*
X167703380Y-99959438D02*
X167798618Y-99911819D01*
X167798618Y-99911819D02*
X168036713Y-99911819D01*
X168036713Y-99911819D02*
X168131951Y-99959438D01*
X168131951Y-99959438D02*
X168179570Y-100007057D01*
X168179570Y-100007057D02*
X168227189Y-100102295D01*
X168227189Y-100102295D02*
X168227189Y-100197533D01*
X168227189Y-100197533D02*
X168179570Y-100340390D01*
X168179570Y-100340390D02*
X167608142Y-100911819D01*
X167608142Y-100911819D02*
X168227189Y-100911819D01*
X163417667Y-97371819D02*
X163989095Y-97371819D01*
X163703381Y-98371819D02*
X163703381Y-97371819D01*
X164655762Y-97848009D02*
X164322429Y-97848009D01*
X164322429Y-98371819D02*
X164322429Y-97371819D01*
X164322429Y-97371819D02*
X164798619Y-97371819D01*
X165036715Y-97371819D02*
X165608143Y-97371819D01*
X165322429Y-98371819D02*
X165322429Y-97371819D01*
X165703382Y-98467057D02*
X166465286Y-98467057D01*
X167274810Y-98276580D02*
X167227191Y-98324200D01*
X167227191Y-98324200D02*
X167084334Y-98371819D01*
X167084334Y-98371819D02*
X166989096Y-98371819D01*
X166989096Y-98371819D02*
X166846239Y-98324200D01*
X166846239Y-98324200D02*
X166751001Y-98228961D01*
X166751001Y-98228961D02*
X166703382Y-98133723D01*
X166703382Y-98133723D02*
X166655763Y-97943247D01*
X166655763Y-97943247D02*
X166655763Y-97800390D01*
X166655763Y-97800390D02*
X166703382Y-97609914D01*
X166703382Y-97609914D02*
X166751001Y-97514676D01*
X166751001Y-97514676D02*
X166846239Y-97419438D01*
X166846239Y-97419438D02*
X166989096Y-97371819D01*
X166989096Y-97371819D02*
X167084334Y-97371819D01*
X167084334Y-97371819D02*
X167227191Y-97419438D01*
X167227191Y-97419438D02*
X167274810Y-97467057D01*
X167655763Y-98324200D02*
X167798620Y-98371819D01*
X167798620Y-98371819D02*
X168036715Y-98371819D01*
X168036715Y-98371819D02*
X168131953Y-98324200D01*
X168131953Y-98324200D02*
X168179572Y-98276580D01*
X168179572Y-98276580D02*
X168227191Y-98181342D01*
X168227191Y-98181342D02*
X168227191Y-98086104D01*
X168227191Y-98086104D02*
X168179572Y-97990866D01*
X168179572Y-97990866D02*
X168131953Y-97943247D01*
X168131953Y-97943247D02*
X168036715Y-97895628D01*
X168036715Y-97895628D02*
X167846239Y-97848009D01*
X167846239Y-97848009D02*
X167751001Y-97800390D01*
X167751001Y-97800390D02*
X167703382Y-97752771D01*
X167703382Y-97752771D02*
X167655763Y-97657533D01*
X167655763Y-97657533D02*
X167655763Y-97562295D01*
X167655763Y-97562295D02*
X167703382Y-97467057D01*
X167703382Y-97467057D02*
X167751001Y-97419438D01*
X167751001Y-97419438D02*
X167846239Y-97371819D01*
X167846239Y-97371819D02*
X168084334Y-97371819D01*
X168084334Y-97371819D02*
X168227191Y-97419438D01*
X163370047Y-94831819D02*
X163941475Y-94831819D01*
X163655761Y-95831819D02*
X163655761Y-94831819D01*
X164608142Y-95308009D02*
X164274809Y-95308009D01*
X164274809Y-95831819D02*
X164274809Y-94831819D01*
X164274809Y-94831819D02*
X164750999Y-94831819D01*
X164989095Y-94831819D02*
X165560523Y-94831819D01*
X165274809Y-95831819D02*
X165274809Y-94831819D01*
X165655762Y-95927057D02*
X166417666Y-95927057D01*
X166655762Y-95831819D02*
X166655762Y-94831819D01*
X166655762Y-94831819D02*
X166893857Y-94831819D01*
X166893857Y-94831819D02*
X167036714Y-94879438D01*
X167036714Y-94879438D02*
X167131952Y-94974676D01*
X167131952Y-94974676D02*
X167179571Y-95069914D01*
X167179571Y-95069914D02*
X167227190Y-95260390D01*
X167227190Y-95260390D02*
X167227190Y-95403247D01*
X167227190Y-95403247D02*
X167179571Y-95593723D01*
X167179571Y-95593723D02*
X167131952Y-95688961D01*
X167131952Y-95688961D02*
X167036714Y-95784200D01*
X167036714Y-95784200D02*
X166893857Y-95831819D01*
X166893857Y-95831819D02*
X166655762Y-95831819D01*
X168227190Y-95736580D02*
X168179571Y-95784200D01*
X168179571Y-95784200D02*
X168036714Y-95831819D01*
X168036714Y-95831819D02*
X167941476Y-95831819D01*
X167941476Y-95831819D02*
X167798619Y-95784200D01*
X167798619Y-95784200D02*
X167703381Y-95688961D01*
X167703381Y-95688961D02*
X167655762Y-95593723D01*
X167655762Y-95593723D02*
X167608143Y-95403247D01*
X167608143Y-95403247D02*
X167608143Y-95260390D01*
X167608143Y-95260390D02*
X167655762Y-95069914D01*
X167655762Y-95069914D02*
X167703381Y-94974676D01*
X167703381Y-94974676D02*
X167798619Y-94879438D01*
X167798619Y-94879438D02*
X167941476Y-94831819D01*
X167941476Y-94831819D02*
X168036714Y-94831819D01*
X168036714Y-94831819D02*
X168179571Y-94879438D01*
X168179571Y-94879438D02*
X168227190Y-94927057D01*
X161751000Y-92291819D02*
X162322428Y-92291819D01*
X162036714Y-93291819D02*
X162036714Y-92291819D01*
X162989095Y-92768009D02*
X162655762Y-92768009D01*
X162655762Y-93291819D02*
X162655762Y-92291819D01*
X162655762Y-92291819D02*
X163131952Y-92291819D01*
X163370048Y-92291819D02*
X163941476Y-92291819D01*
X163655762Y-93291819D02*
X163655762Y-92291819D01*
X164036715Y-93387057D02*
X164798619Y-93387057D01*
X165036715Y-93291819D02*
X165036715Y-92291819D01*
X165036715Y-92291819D02*
X165370048Y-93006104D01*
X165370048Y-93006104D02*
X165703381Y-92291819D01*
X165703381Y-92291819D02*
X165703381Y-93291819D01*
X166370048Y-92291819D02*
X166560524Y-92291819D01*
X166560524Y-92291819D02*
X166655762Y-92339438D01*
X166655762Y-92339438D02*
X166751000Y-92434676D01*
X166751000Y-92434676D02*
X166798619Y-92625152D01*
X166798619Y-92625152D02*
X166798619Y-92958485D01*
X166798619Y-92958485D02*
X166751000Y-93148961D01*
X166751000Y-93148961D02*
X166655762Y-93244200D01*
X166655762Y-93244200D02*
X166560524Y-93291819D01*
X166560524Y-93291819D02*
X166370048Y-93291819D01*
X166370048Y-93291819D02*
X166274810Y-93244200D01*
X166274810Y-93244200D02*
X166179572Y-93148961D01*
X166179572Y-93148961D02*
X166131953Y-92958485D01*
X166131953Y-92958485D02*
X166131953Y-92625152D01*
X166131953Y-92625152D02*
X166179572Y-92434676D01*
X166179572Y-92434676D02*
X166274810Y-92339438D01*
X166274810Y-92339438D02*
X166370048Y-92291819D01*
X167179572Y-93244200D02*
X167322429Y-93291819D01*
X167322429Y-93291819D02*
X167560524Y-93291819D01*
X167560524Y-93291819D02*
X167655762Y-93244200D01*
X167655762Y-93244200D02*
X167703381Y-93196580D01*
X167703381Y-93196580D02*
X167751000Y-93101342D01*
X167751000Y-93101342D02*
X167751000Y-93006104D01*
X167751000Y-93006104D02*
X167703381Y-92910866D01*
X167703381Y-92910866D02*
X167655762Y-92863247D01*
X167655762Y-92863247D02*
X167560524Y-92815628D01*
X167560524Y-92815628D02*
X167370048Y-92768009D01*
X167370048Y-92768009D02*
X167274810Y-92720390D01*
X167274810Y-92720390D02*
X167227191Y-92672771D01*
X167227191Y-92672771D02*
X167179572Y-92577533D01*
X167179572Y-92577533D02*
X167179572Y-92482295D01*
X167179572Y-92482295D02*
X167227191Y-92387057D01*
X167227191Y-92387057D02*
X167274810Y-92339438D01*
X167274810Y-92339438D02*
X167370048Y-92291819D01*
X167370048Y-92291819D02*
X167608143Y-92291819D01*
X167608143Y-92291819D02*
X167751000Y-92339438D01*
X168179572Y-93291819D02*
X168179572Y-92291819D01*
X162417667Y-89751819D02*
X162989095Y-89751819D01*
X162703381Y-90751819D02*
X162703381Y-89751819D01*
X163655762Y-90228009D02*
X163322429Y-90228009D01*
X163322429Y-90751819D02*
X163322429Y-89751819D01*
X163322429Y-89751819D02*
X163798619Y-89751819D01*
X164036715Y-89751819D02*
X164608143Y-89751819D01*
X164322429Y-90751819D02*
X164322429Y-89751819D01*
X164703382Y-90847057D02*
X165465286Y-90847057D01*
X165655763Y-90704200D02*
X165798620Y-90751819D01*
X165798620Y-90751819D02*
X166036715Y-90751819D01*
X166036715Y-90751819D02*
X166131953Y-90704200D01*
X166131953Y-90704200D02*
X166179572Y-90656580D01*
X166179572Y-90656580D02*
X166227191Y-90561342D01*
X166227191Y-90561342D02*
X166227191Y-90466104D01*
X166227191Y-90466104D02*
X166179572Y-90370866D01*
X166179572Y-90370866D02*
X166131953Y-90323247D01*
X166131953Y-90323247D02*
X166036715Y-90275628D01*
X166036715Y-90275628D02*
X165846239Y-90228009D01*
X165846239Y-90228009D02*
X165751001Y-90180390D01*
X165751001Y-90180390D02*
X165703382Y-90132771D01*
X165703382Y-90132771D02*
X165655763Y-90037533D01*
X165655763Y-90037533D02*
X165655763Y-89942295D01*
X165655763Y-89942295D02*
X165703382Y-89847057D01*
X165703382Y-89847057D02*
X165751001Y-89799438D01*
X165751001Y-89799438D02*
X165846239Y-89751819D01*
X165846239Y-89751819D02*
X166084334Y-89751819D01*
X166084334Y-89751819D02*
X166227191Y-89799438D01*
X167227191Y-90656580D02*
X167179572Y-90704200D01*
X167179572Y-90704200D02*
X167036715Y-90751819D01*
X167036715Y-90751819D02*
X166941477Y-90751819D01*
X166941477Y-90751819D02*
X166798620Y-90704200D01*
X166798620Y-90704200D02*
X166703382Y-90608961D01*
X166703382Y-90608961D02*
X166655763Y-90513723D01*
X166655763Y-90513723D02*
X166608144Y-90323247D01*
X166608144Y-90323247D02*
X166608144Y-90180390D01*
X166608144Y-90180390D02*
X166655763Y-89989914D01*
X166655763Y-89989914D02*
X166703382Y-89894676D01*
X166703382Y-89894676D02*
X166798620Y-89799438D01*
X166798620Y-89799438D02*
X166941477Y-89751819D01*
X166941477Y-89751819D02*
X167036715Y-89751819D01*
X167036715Y-89751819D02*
X167179572Y-89799438D01*
X167179572Y-89799438D02*
X167227191Y-89847057D01*
X167655763Y-90751819D02*
X167655763Y-89751819D01*
X168227191Y-90751819D02*
X167798620Y-90180390D01*
X168227191Y-89751819D02*
X167655763Y-90323247D01*
X163846238Y-87084819D02*
X164179571Y-88084819D01*
X164179571Y-88084819D02*
X164512904Y-87084819D01*
X165036714Y-87084819D02*
X165227190Y-87084819D01*
X165227190Y-87084819D02*
X165322428Y-87132438D01*
X165322428Y-87132438D02*
X165417666Y-87227676D01*
X165417666Y-87227676D02*
X165465285Y-87418152D01*
X165465285Y-87418152D02*
X165465285Y-87751485D01*
X165465285Y-87751485D02*
X165417666Y-87941961D01*
X165417666Y-87941961D02*
X165322428Y-88037200D01*
X165322428Y-88037200D02*
X165227190Y-88084819D01*
X165227190Y-88084819D02*
X165036714Y-88084819D01*
X165036714Y-88084819D02*
X164941476Y-88037200D01*
X164941476Y-88037200D02*
X164846238Y-87941961D01*
X164846238Y-87941961D02*
X164798619Y-87751485D01*
X164798619Y-87751485D02*
X164798619Y-87418152D01*
X164798619Y-87418152D02*
X164846238Y-87227676D01*
X164846238Y-87227676D02*
X164941476Y-87132438D01*
X164941476Y-87132438D02*
X165036714Y-87084819D01*
X165893857Y-87084819D02*
X165893857Y-87894342D01*
X165893857Y-87894342D02*
X165941476Y-87989580D01*
X165941476Y-87989580D02*
X165989095Y-88037200D01*
X165989095Y-88037200D02*
X166084333Y-88084819D01*
X166084333Y-88084819D02*
X166274809Y-88084819D01*
X166274809Y-88084819D02*
X166370047Y-88037200D01*
X166370047Y-88037200D02*
X166417666Y-87989580D01*
X166417666Y-87989580D02*
X166465285Y-87894342D01*
X166465285Y-87894342D02*
X166465285Y-87084819D01*
X166798619Y-87084819D02*
X167370047Y-87084819D01*
X167084333Y-88084819D02*
X167084333Y-87084819D01*
X167846238Y-87513390D02*
X167751000Y-87465771D01*
X167751000Y-87465771D02*
X167703381Y-87418152D01*
X167703381Y-87418152D02*
X167655762Y-87322914D01*
X167655762Y-87322914D02*
X167655762Y-87275295D01*
X167655762Y-87275295D02*
X167703381Y-87180057D01*
X167703381Y-87180057D02*
X167751000Y-87132438D01*
X167751000Y-87132438D02*
X167846238Y-87084819D01*
X167846238Y-87084819D02*
X168036714Y-87084819D01*
X168036714Y-87084819D02*
X168131952Y-87132438D01*
X168131952Y-87132438D02*
X168179571Y-87180057D01*
X168179571Y-87180057D02*
X168227190Y-87275295D01*
X168227190Y-87275295D02*
X168227190Y-87322914D01*
X168227190Y-87322914D02*
X168179571Y-87418152D01*
X168179571Y-87418152D02*
X168131952Y-87465771D01*
X168131952Y-87465771D02*
X168036714Y-87513390D01*
X168036714Y-87513390D02*
X167846238Y-87513390D01*
X167846238Y-87513390D02*
X167751000Y-87561009D01*
X167751000Y-87561009D02*
X167703381Y-87608628D01*
X167703381Y-87608628D02*
X167655762Y-87703866D01*
X167655762Y-87703866D02*
X167655762Y-87894342D01*
X167655762Y-87894342D02*
X167703381Y-87989580D01*
X167703381Y-87989580D02*
X167751000Y-88037200D01*
X167751000Y-88037200D02*
X167846238Y-88084819D01*
X167846238Y-88084819D02*
X168036714Y-88084819D01*
X168036714Y-88084819D02*
X168131952Y-88037200D01*
X168131952Y-88037200D02*
X168179571Y-87989580D01*
X168179571Y-87989580D02*
X168227190Y-87894342D01*
X168227190Y-87894342D02*
X168227190Y-87703866D01*
X168227190Y-87703866D02*
X168179571Y-87608628D01*
X168179571Y-87608628D02*
X168131952Y-87561009D01*
X168131952Y-87561009D02*
X168036714Y-87513390D01*
X163846238Y-84544819D02*
X164179571Y-85544819D01*
X164179571Y-85544819D02*
X164512904Y-84544819D01*
X165036714Y-84544819D02*
X165227190Y-84544819D01*
X165227190Y-84544819D02*
X165322428Y-84592438D01*
X165322428Y-84592438D02*
X165417666Y-84687676D01*
X165417666Y-84687676D02*
X165465285Y-84878152D01*
X165465285Y-84878152D02*
X165465285Y-85211485D01*
X165465285Y-85211485D02*
X165417666Y-85401961D01*
X165417666Y-85401961D02*
X165322428Y-85497200D01*
X165322428Y-85497200D02*
X165227190Y-85544819D01*
X165227190Y-85544819D02*
X165036714Y-85544819D01*
X165036714Y-85544819D02*
X164941476Y-85497200D01*
X164941476Y-85497200D02*
X164846238Y-85401961D01*
X164846238Y-85401961D02*
X164798619Y-85211485D01*
X164798619Y-85211485D02*
X164798619Y-84878152D01*
X164798619Y-84878152D02*
X164846238Y-84687676D01*
X164846238Y-84687676D02*
X164941476Y-84592438D01*
X164941476Y-84592438D02*
X165036714Y-84544819D01*
X165893857Y-84544819D02*
X165893857Y-85354342D01*
X165893857Y-85354342D02*
X165941476Y-85449580D01*
X165941476Y-85449580D02*
X165989095Y-85497200D01*
X165989095Y-85497200D02*
X166084333Y-85544819D01*
X166084333Y-85544819D02*
X166274809Y-85544819D01*
X166274809Y-85544819D02*
X166370047Y-85497200D01*
X166370047Y-85497200D02*
X166417666Y-85449580D01*
X166417666Y-85449580D02*
X166465285Y-85354342D01*
X166465285Y-85354342D02*
X166465285Y-84544819D01*
X166798619Y-84544819D02*
X167370047Y-84544819D01*
X167084333Y-85544819D02*
X167084333Y-84544819D01*
X167608143Y-84544819D02*
X168274809Y-84544819D01*
X168274809Y-84544819D02*
X167846238Y-85544819D01*
X163846238Y-82004819D02*
X164179571Y-83004819D01*
X164179571Y-83004819D02*
X164512904Y-82004819D01*
X165036714Y-82004819D02*
X165227190Y-82004819D01*
X165227190Y-82004819D02*
X165322428Y-82052438D01*
X165322428Y-82052438D02*
X165417666Y-82147676D01*
X165417666Y-82147676D02*
X165465285Y-82338152D01*
X165465285Y-82338152D02*
X165465285Y-82671485D01*
X165465285Y-82671485D02*
X165417666Y-82861961D01*
X165417666Y-82861961D02*
X165322428Y-82957200D01*
X165322428Y-82957200D02*
X165227190Y-83004819D01*
X165227190Y-83004819D02*
X165036714Y-83004819D01*
X165036714Y-83004819D02*
X164941476Y-82957200D01*
X164941476Y-82957200D02*
X164846238Y-82861961D01*
X164846238Y-82861961D02*
X164798619Y-82671485D01*
X164798619Y-82671485D02*
X164798619Y-82338152D01*
X164798619Y-82338152D02*
X164846238Y-82147676D01*
X164846238Y-82147676D02*
X164941476Y-82052438D01*
X164941476Y-82052438D02*
X165036714Y-82004819D01*
X165893857Y-82004819D02*
X165893857Y-82814342D01*
X165893857Y-82814342D02*
X165941476Y-82909580D01*
X165941476Y-82909580D02*
X165989095Y-82957200D01*
X165989095Y-82957200D02*
X166084333Y-83004819D01*
X166084333Y-83004819D02*
X166274809Y-83004819D01*
X166274809Y-83004819D02*
X166370047Y-82957200D01*
X166370047Y-82957200D02*
X166417666Y-82909580D01*
X166417666Y-82909580D02*
X166465285Y-82814342D01*
X166465285Y-82814342D02*
X166465285Y-82004819D01*
X166798619Y-82004819D02*
X167370047Y-82004819D01*
X167084333Y-83004819D02*
X167084333Y-82004819D01*
X168131952Y-82004819D02*
X167941476Y-82004819D01*
X167941476Y-82004819D02*
X167846238Y-82052438D01*
X167846238Y-82052438D02*
X167798619Y-82100057D01*
X167798619Y-82100057D02*
X167703381Y-82242914D01*
X167703381Y-82242914D02*
X167655762Y-82433390D01*
X167655762Y-82433390D02*
X167655762Y-82814342D01*
X167655762Y-82814342D02*
X167703381Y-82909580D01*
X167703381Y-82909580D02*
X167751000Y-82957200D01*
X167751000Y-82957200D02*
X167846238Y-83004819D01*
X167846238Y-83004819D02*
X168036714Y-83004819D01*
X168036714Y-83004819D02*
X168131952Y-82957200D01*
X168131952Y-82957200D02*
X168179571Y-82909580D01*
X168179571Y-82909580D02*
X168227190Y-82814342D01*
X168227190Y-82814342D02*
X168227190Y-82576247D01*
X168227190Y-82576247D02*
X168179571Y-82481009D01*
X168179571Y-82481009D02*
X168131952Y-82433390D01*
X168131952Y-82433390D02*
X168036714Y-82385771D01*
X168036714Y-82385771D02*
X167846238Y-82385771D01*
X167846238Y-82385771D02*
X167751000Y-82433390D01*
X167751000Y-82433390D02*
X167703381Y-82481009D01*
X167703381Y-82481009D02*
X167655762Y-82576247D01*
X163846238Y-79464819D02*
X164179571Y-80464819D01*
X164179571Y-80464819D02*
X164512904Y-79464819D01*
X165036714Y-79464819D02*
X165227190Y-79464819D01*
X165227190Y-79464819D02*
X165322428Y-79512438D01*
X165322428Y-79512438D02*
X165417666Y-79607676D01*
X165417666Y-79607676D02*
X165465285Y-79798152D01*
X165465285Y-79798152D02*
X165465285Y-80131485D01*
X165465285Y-80131485D02*
X165417666Y-80321961D01*
X165417666Y-80321961D02*
X165322428Y-80417200D01*
X165322428Y-80417200D02*
X165227190Y-80464819D01*
X165227190Y-80464819D02*
X165036714Y-80464819D01*
X165036714Y-80464819D02*
X164941476Y-80417200D01*
X164941476Y-80417200D02*
X164846238Y-80321961D01*
X164846238Y-80321961D02*
X164798619Y-80131485D01*
X164798619Y-80131485D02*
X164798619Y-79798152D01*
X164798619Y-79798152D02*
X164846238Y-79607676D01*
X164846238Y-79607676D02*
X164941476Y-79512438D01*
X164941476Y-79512438D02*
X165036714Y-79464819D01*
X165893857Y-79464819D02*
X165893857Y-80274342D01*
X165893857Y-80274342D02*
X165941476Y-80369580D01*
X165941476Y-80369580D02*
X165989095Y-80417200D01*
X165989095Y-80417200D02*
X166084333Y-80464819D01*
X166084333Y-80464819D02*
X166274809Y-80464819D01*
X166274809Y-80464819D02*
X166370047Y-80417200D01*
X166370047Y-80417200D02*
X166417666Y-80369580D01*
X166417666Y-80369580D02*
X166465285Y-80274342D01*
X166465285Y-80274342D02*
X166465285Y-79464819D01*
X166798619Y-79464819D02*
X167370047Y-79464819D01*
X167084333Y-80464819D02*
X167084333Y-79464819D01*
X168179571Y-79464819D02*
X167703381Y-79464819D01*
X167703381Y-79464819D02*
X167655762Y-79941009D01*
X167655762Y-79941009D02*
X167703381Y-79893390D01*
X167703381Y-79893390D02*
X167798619Y-79845771D01*
X167798619Y-79845771D02*
X168036714Y-79845771D01*
X168036714Y-79845771D02*
X168131952Y-79893390D01*
X168131952Y-79893390D02*
X168179571Y-79941009D01*
X168179571Y-79941009D02*
X168227190Y-80036247D01*
X168227190Y-80036247D02*
X168227190Y-80274342D01*
X168227190Y-80274342D02*
X168179571Y-80369580D01*
X168179571Y-80369580D02*
X168131952Y-80417200D01*
X168131952Y-80417200D02*
X168036714Y-80464819D01*
X168036714Y-80464819D02*
X167798619Y-80464819D01*
X167798619Y-80464819D02*
X167703381Y-80417200D01*
X167703381Y-80417200D02*
X167655762Y-80369580D01*
X163846238Y-76924819D02*
X164179571Y-77924819D01*
X164179571Y-77924819D02*
X164512904Y-76924819D01*
X165036714Y-76924819D02*
X165227190Y-76924819D01*
X165227190Y-76924819D02*
X165322428Y-76972438D01*
X165322428Y-76972438D02*
X165417666Y-77067676D01*
X165417666Y-77067676D02*
X165465285Y-77258152D01*
X165465285Y-77258152D02*
X165465285Y-77591485D01*
X165465285Y-77591485D02*
X165417666Y-77781961D01*
X165417666Y-77781961D02*
X165322428Y-77877200D01*
X165322428Y-77877200D02*
X165227190Y-77924819D01*
X165227190Y-77924819D02*
X165036714Y-77924819D01*
X165036714Y-77924819D02*
X164941476Y-77877200D01*
X164941476Y-77877200D02*
X164846238Y-77781961D01*
X164846238Y-77781961D02*
X164798619Y-77591485D01*
X164798619Y-77591485D02*
X164798619Y-77258152D01*
X164798619Y-77258152D02*
X164846238Y-77067676D01*
X164846238Y-77067676D02*
X164941476Y-76972438D01*
X164941476Y-76972438D02*
X165036714Y-76924819D01*
X165893857Y-76924819D02*
X165893857Y-77734342D01*
X165893857Y-77734342D02*
X165941476Y-77829580D01*
X165941476Y-77829580D02*
X165989095Y-77877200D01*
X165989095Y-77877200D02*
X166084333Y-77924819D01*
X166084333Y-77924819D02*
X166274809Y-77924819D01*
X166274809Y-77924819D02*
X166370047Y-77877200D01*
X166370047Y-77877200D02*
X166417666Y-77829580D01*
X166417666Y-77829580D02*
X166465285Y-77734342D01*
X166465285Y-77734342D02*
X166465285Y-76924819D01*
X166798619Y-76924819D02*
X167370047Y-76924819D01*
X167084333Y-77924819D02*
X167084333Y-76924819D01*
X168131952Y-77258152D02*
X168131952Y-77924819D01*
X167893857Y-76877200D02*
X167655762Y-77591485D01*
X167655762Y-77591485D02*
X168274809Y-77591485D01*
X163846238Y-74384819D02*
X164179571Y-75384819D01*
X164179571Y-75384819D02*
X164512904Y-74384819D01*
X165036714Y-74384819D02*
X165227190Y-74384819D01*
X165227190Y-74384819D02*
X165322428Y-74432438D01*
X165322428Y-74432438D02*
X165417666Y-74527676D01*
X165417666Y-74527676D02*
X165465285Y-74718152D01*
X165465285Y-74718152D02*
X165465285Y-75051485D01*
X165465285Y-75051485D02*
X165417666Y-75241961D01*
X165417666Y-75241961D02*
X165322428Y-75337200D01*
X165322428Y-75337200D02*
X165227190Y-75384819D01*
X165227190Y-75384819D02*
X165036714Y-75384819D01*
X165036714Y-75384819D02*
X164941476Y-75337200D01*
X164941476Y-75337200D02*
X164846238Y-75241961D01*
X164846238Y-75241961D02*
X164798619Y-75051485D01*
X164798619Y-75051485D02*
X164798619Y-74718152D01*
X164798619Y-74718152D02*
X164846238Y-74527676D01*
X164846238Y-74527676D02*
X164941476Y-74432438D01*
X164941476Y-74432438D02*
X165036714Y-74384819D01*
X165893857Y-74384819D02*
X165893857Y-75194342D01*
X165893857Y-75194342D02*
X165941476Y-75289580D01*
X165941476Y-75289580D02*
X165989095Y-75337200D01*
X165989095Y-75337200D02*
X166084333Y-75384819D01*
X166084333Y-75384819D02*
X166274809Y-75384819D01*
X166274809Y-75384819D02*
X166370047Y-75337200D01*
X166370047Y-75337200D02*
X166417666Y-75289580D01*
X166417666Y-75289580D02*
X166465285Y-75194342D01*
X166465285Y-75194342D02*
X166465285Y-74384819D01*
X166798619Y-74384819D02*
X167370047Y-74384819D01*
X167084333Y-75384819D02*
X167084333Y-74384819D01*
X167608143Y-74384819D02*
X168227190Y-74384819D01*
X168227190Y-74384819D02*
X167893857Y-74765771D01*
X167893857Y-74765771D02*
X168036714Y-74765771D01*
X168036714Y-74765771D02*
X168131952Y-74813390D01*
X168131952Y-74813390D02*
X168179571Y-74861009D01*
X168179571Y-74861009D02*
X168227190Y-74956247D01*
X168227190Y-74956247D02*
X168227190Y-75194342D01*
X168227190Y-75194342D02*
X168179571Y-75289580D01*
X168179571Y-75289580D02*
X168131952Y-75337200D01*
X168131952Y-75337200D02*
X168036714Y-75384819D01*
X168036714Y-75384819D02*
X167751000Y-75384819D01*
X167751000Y-75384819D02*
X167655762Y-75337200D01*
X167655762Y-75337200D02*
X167608143Y-75289580D01*
X163846238Y-71844819D02*
X164179571Y-72844819D01*
X164179571Y-72844819D02*
X164512904Y-71844819D01*
X165036714Y-71844819D02*
X165227190Y-71844819D01*
X165227190Y-71844819D02*
X165322428Y-71892438D01*
X165322428Y-71892438D02*
X165417666Y-71987676D01*
X165417666Y-71987676D02*
X165465285Y-72178152D01*
X165465285Y-72178152D02*
X165465285Y-72511485D01*
X165465285Y-72511485D02*
X165417666Y-72701961D01*
X165417666Y-72701961D02*
X165322428Y-72797200D01*
X165322428Y-72797200D02*
X165227190Y-72844819D01*
X165227190Y-72844819D02*
X165036714Y-72844819D01*
X165036714Y-72844819D02*
X164941476Y-72797200D01*
X164941476Y-72797200D02*
X164846238Y-72701961D01*
X164846238Y-72701961D02*
X164798619Y-72511485D01*
X164798619Y-72511485D02*
X164798619Y-72178152D01*
X164798619Y-72178152D02*
X164846238Y-71987676D01*
X164846238Y-71987676D02*
X164941476Y-71892438D01*
X164941476Y-71892438D02*
X165036714Y-71844819D01*
X165893857Y-71844819D02*
X165893857Y-72654342D01*
X165893857Y-72654342D02*
X165941476Y-72749580D01*
X165941476Y-72749580D02*
X165989095Y-72797200D01*
X165989095Y-72797200D02*
X166084333Y-72844819D01*
X166084333Y-72844819D02*
X166274809Y-72844819D01*
X166274809Y-72844819D02*
X166370047Y-72797200D01*
X166370047Y-72797200D02*
X166417666Y-72749580D01*
X166417666Y-72749580D02*
X166465285Y-72654342D01*
X166465285Y-72654342D02*
X166465285Y-71844819D01*
X166798619Y-71844819D02*
X167370047Y-71844819D01*
X167084333Y-72844819D02*
X167084333Y-71844819D01*
X167655762Y-71940057D02*
X167703381Y-71892438D01*
X167703381Y-71892438D02*
X167798619Y-71844819D01*
X167798619Y-71844819D02*
X168036714Y-71844819D01*
X168036714Y-71844819D02*
X168131952Y-71892438D01*
X168131952Y-71892438D02*
X168179571Y-71940057D01*
X168179571Y-71940057D02*
X168227190Y-72035295D01*
X168227190Y-72035295D02*
X168227190Y-72130533D01*
X168227190Y-72130533D02*
X168179571Y-72273390D01*
X168179571Y-72273390D02*
X167608143Y-72844819D01*
X167608143Y-72844819D02*
X168227190Y-72844819D01*
X163846238Y-69304819D02*
X164179571Y-70304819D01*
X164179571Y-70304819D02*
X164512904Y-69304819D01*
X165036714Y-69304819D02*
X165227190Y-69304819D01*
X165227190Y-69304819D02*
X165322428Y-69352438D01*
X165322428Y-69352438D02*
X165417666Y-69447676D01*
X165417666Y-69447676D02*
X165465285Y-69638152D01*
X165465285Y-69638152D02*
X165465285Y-69971485D01*
X165465285Y-69971485D02*
X165417666Y-70161961D01*
X165417666Y-70161961D02*
X165322428Y-70257200D01*
X165322428Y-70257200D02*
X165227190Y-70304819D01*
X165227190Y-70304819D02*
X165036714Y-70304819D01*
X165036714Y-70304819D02*
X164941476Y-70257200D01*
X164941476Y-70257200D02*
X164846238Y-70161961D01*
X164846238Y-70161961D02*
X164798619Y-69971485D01*
X164798619Y-69971485D02*
X164798619Y-69638152D01*
X164798619Y-69638152D02*
X164846238Y-69447676D01*
X164846238Y-69447676D02*
X164941476Y-69352438D01*
X164941476Y-69352438D02*
X165036714Y-69304819D01*
X165893857Y-69304819D02*
X165893857Y-70114342D01*
X165893857Y-70114342D02*
X165941476Y-70209580D01*
X165941476Y-70209580D02*
X165989095Y-70257200D01*
X165989095Y-70257200D02*
X166084333Y-70304819D01*
X166084333Y-70304819D02*
X166274809Y-70304819D01*
X166274809Y-70304819D02*
X166370047Y-70257200D01*
X166370047Y-70257200D02*
X166417666Y-70209580D01*
X166417666Y-70209580D02*
X166465285Y-70114342D01*
X166465285Y-70114342D02*
X166465285Y-69304819D01*
X166798619Y-69304819D02*
X167370047Y-69304819D01*
X167084333Y-70304819D02*
X167084333Y-69304819D01*
X168227190Y-70304819D02*
X167655762Y-70304819D01*
X167941476Y-70304819D02*
X167941476Y-69304819D01*
X167941476Y-69304819D02*
X167846238Y-69447676D01*
X167846238Y-69447676D02*
X167751000Y-69542914D01*
X167751000Y-69542914D02*
X167655762Y-69590533D01*
X163632078Y-66764819D02*
X163965411Y-67764819D01*
X163965411Y-67764819D02*
X164298744Y-66764819D01*
X165155887Y-66812438D02*
X165060649Y-66764819D01*
X165060649Y-66764819D02*
X164917792Y-66764819D01*
X164917792Y-66764819D02*
X164774935Y-66812438D01*
X164774935Y-66812438D02*
X164679697Y-66907676D01*
X164679697Y-66907676D02*
X164632078Y-67002914D01*
X164632078Y-67002914D02*
X164584459Y-67193390D01*
X164584459Y-67193390D02*
X164584459Y-67336247D01*
X164584459Y-67336247D02*
X164632078Y-67526723D01*
X164632078Y-67526723D02*
X164679697Y-67621961D01*
X164679697Y-67621961D02*
X164774935Y-67717200D01*
X164774935Y-67717200D02*
X164917792Y-67764819D01*
X164917792Y-67764819D02*
X165013030Y-67764819D01*
X165013030Y-67764819D02*
X165155887Y-67717200D01*
X165155887Y-67717200D02*
X165203506Y-67669580D01*
X165203506Y-67669580D02*
X165203506Y-67336247D01*
X165203506Y-67336247D02*
X165013030Y-67336247D01*
X165632078Y-67764819D02*
X165632078Y-66764819D01*
X165632078Y-66764819D02*
X166203506Y-67764819D01*
X166203506Y-67764819D02*
X166203506Y-66764819D01*
X166679697Y-67764819D02*
X166679697Y-66764819D01*
X166679697Y-66764819D02*
X166917792Y-66764819D01*
X166917792Y-66764819D02*
X167060649Y-66812438D01*
X167060649Y-66812438D02*
X167155887Y-66907676D01*
X167155887Y-66907676D02*
X167203506Y-67002914D01*
X167203506Y-67002914D02*
X167251125Y-67193390D01*
X167251125Y-67193390D02*
X167251125Y-67336247D01*
X167251125Y-67336247D02*
X167203506Y-67526723D01*
X167203506Y-67526723D02*
X167155887Y-67621961D01*
X167155887Y-67621961D02*
X167060649Y-67717200D01*
X167060649Y-67717200D02*
X166917792Y-67764819D01*
X166917792Y-67764819D02*
X166679697Y-67764819D01*
X167822554Y-67193390D02*
X167727316Y-67145771D01*
X167727316Y-67145771D02*
X167679697Y-67098152D01*
X167679697Y-67098152D02*
X167632078Y-67002914D01*
X167632078Y-67002914D02*
X167632078Y-66955295D01*
X167632078Y-66955295D02*
X167679697Y-66860057D01*
X167679697Y-66860057D02*
X167727316Y-66812438D01*
X167727316Y-66812438D02*
X167822554Y-66764819D01*
X167822554Y-66764819D02*
X168013030Y-66764819D01*
X168013030Y-66764819D02*
X168108268Y-66812438D01*
X168108268Y-66812438D02*
X168155887Y-66860057D01*
X168155887Y-66860057D02*
X168203506Y-66955295D01*
X168203506Y-66955295D02*
X168203506Y-67002914D01*
X168203506Y-67002914D02*
X168155887Y-67098152D01*
X168155887Y-67098152D02*
X168108268Y-67145771D01*
X168108268Y-67145771D02*
X168013030Y-67193390D01*
X168013030Y-67193390D02*
X167822554Y-67193390D01*
X167822554Y-67193390D02*
X167727316Y-67241009D01*
X167727316Y-67241009D02*
X167679697Y-67288628D01*
X167679697Y-67288628D02*
X167632078Y-67383866D01*
X167632078Y-67383866D02*
X167632078Y-67574342D01*
X167632078Y-67574342D02*
X167679697Y-67669580D01*
X167679697Y-67669580D02*
X167727316Y-67717200D01*
X167727316Y-67717200D02*
X167822554Y-67764819D01*
X167822554Y-67764819D02*
X168013030Y-67764819D01*
X168013030Y-67764819D02*
X168108268Y-67717200D01*
X168108268Y-67717200D02*
X168155887Y-67669580D01*
X168155887Y-67669580D02*
X168203506Y-67574342D01*
X168203506Y-67574342D02*
X168203506Y-67383866D01*
X168203506Y-67383866D02*
X168155887Y-67288628D01*
X168155887Y-67288628D02*
X168108268Y-67241009D01*
X168108268Y-67241009D02*
X168013030Y-67193390D01*
X162639572Y-56604819D02*
X162972905Y-57604819D01*
X162972905Y-57604819D02*
X163306238Y-56604819D01*
X163639572Y-57604819D02*
X163639572Y-56604819D01*
X164115762Y-57604819D02*
X164115762Y-56604819D01*
X164115762Y-56604819D02*
X164687190Y-57604819D01*
X164687190Y-57604819D02*
X164687190Y-56604819D01*
X165306238Y-57033390D02*
X165211000Y-56985771D01*
X165211000Y-56985771D02*
X165163381Y-56938152D01*
X165163381Y-56938152D02*
X165115762Y-56842914D01*
X165115762Y-56842914D02*
X165115762Y-56795295D01*
X165115762Y-56795295D02*
X165163381Y-56700057D01*
X165163381Y-56700057D02*
X165211000Y-56652438D01*
X165211000Y-56652438D02*
X165306238Y-56604819D01*
X165306238Y-56604819D02*
X165496714Y-56604819D01*
X165496714Y-56604819D02*
X165591952Y-56652438D01*
X165591952Y-56652438D02*
X165639571Y-56700057D01*
X165639571Y-56700057D02*
X165687190Y-56795295D01*
X165687190Y-56795295D02*
X165687190Y-56842914D01*
X165687190Y-56842914D02*
X165639571Y-56938152D01*
X165639571Y-56938152D02*
X165591952Y-56985771D01*
X165591952Y-56985771D02*
X165496714Y-57033390D01*
X165496714Y-57033390D02*
X165306238Y-57033390D01*
X165306238Y-57033390D02*
X165211000Y-57081009D01*
X165211000Y-57081009D02*
X165163381Y-57128628D01*
X165163381Y-57128628D02*
X165115762Y-57223866D01*
X165115762Y-57223866D02*
X165115762Y-57414342D01*
X165115762Y-57414342D02*
X165163381Y-57509580D01*
X165163381Y-57509580D02*
X165211000Y-57557200D01*
X165211000Y-57557200D02*
X165306238Y-57604819D01*
X165306238Y-57604819D02*
X165496714Y-57604819D01*
X165496714Y-57604819D02*
X165591952Y-57557200D01*
X165591952Y-57557200D02*
X165639571Y-57509580D01*
X165639571Y-57509580D02*
X165687190Y-57414342D01*
X165687190Y-57414342D02*
X165687190Y-57223866D01*
X165687190Y-57223866D02*
X165639571Y-57128628D01*
X165639571Y-57128628D02*
X165591952Y-57081009D01*
X165591952Y-57081009D02*
X165496714Y-57033390D01*
D12*
X110853939Y-125764400D02*
X110711082Y-125835828D01*
X110711082Y-125835828D02*
X110425368Y-125835828D01*
X110425368Y-125835828D02*
X110282510Y-125764400D01*
X110282510Y-125764400D02*
X110211082Y-125621542D01*
X110211082Y-125621542D02*
X110211082Y-125050114D01*
X110211082Y-125050114D02*
X110282510Y-124907257D01*
X110282510Y-124907257D02*
X110425368Y-124835828D01*
X110425368Y-124835828D02*
X110711082Y-124835828D01*
X110711082Y-124835828D02*
X110853939Y-124907257D01*
X110853939Y-124907257D02*
X110925368Y-125050114D01*
X110925368Y-125050114D02*
X110925368Y-125192971D01*
X110925368Y-125192971D02*
X110211082Y-125335828D01*
X112211082Y-124835828D02*
X112211082Y-125835828D01*
X111568224Y-124835828D02*
X111568224Y-125621542D01*
X111568224Y-125621542D02*
X111639653Y-125764400D01*
X111639653Y-125764400D02*
X111782510Y-125835828D01*
X111782510Y-125835828D02*
X111996796Y-125835828D01*
X111996796Y-125835828D02*
X112139653Y-125764400D01*
X112139653Y-125764400D02*
X112211082Y-125692971D01*
X112925367Y-125835828D02*
X112925367Y-124835828D01*
X112925367Y-125121542D02*
X112996796Y-124978685D01*
X112996796Y-124978685D02*
X113068225Y-124907257D01*
X113068225Y-124907257D02*
X113211082Y-124835828D01*
X113211082Y-124835828D02*
X113353939Y-124835828D01*
X114068224Y-125835828D02*
X113925367Y-125764400D01*
X113925367Y-125764400D02*
X113853938Y-125692971D01*
X113853938Y-125692971D02*
X113782510Y-125550114D01*
X113782510Y-125550114D02*
X113782510Y-125121542D01*
X113782510Y-125121542D02*
X113853938Y-124978685D01*
X113853938Y-124978685D02*
X113925367Y-124907257D01*
X113925367Y-124907257D02*
X114068224Y-124835828D01*
X114068224Y-124835828D02*
X114282510Y-124835828D01*
X114282510Y-124835828D02*
X114425367Y-124907257D01*
X114425367Y-124907257D02*
X114496796Y-124978685D01*
X114496796Y-124978685D02*
X114568224Y-125121542D01*
X114568224Y-125121542D02*
X114568224Y-125550114D01*
X114568224Y-125550114D02*
X114496796Y-125692971D01*
X114496796Y-125692971D02*
X114425367Y-125764400D01*
X114425367Y-125764400D02*
X114282510Y-125835828D01*
X114282510Y-125835828D02*
X114068224Y-125835828D01*
X115211081Y-125835828D02*
X115211081Y-124835828D01*
X115211081Y-125121542D02*
X115282510Y-124978685D01*
X115282510Y-124978685D02*
X115353939Y-124907257D01*
X115353939Y-124907257D02*
X115496796Y-124835828D01*
X115496796Y-124835828D02*
X115639653Y-124835828D01*
X116782510Y-125835828D02*
X116782510Y-125050114D01*
X116782510Y-125050114D02*
X116711081Y-124907257D01*
X116711081Y-124907257D02*
X116568224Y-124835828D01*
X116568224Y-124835828D02*
X116282510Y-124835828D01*
X116282510Y-124835828D02*
X116139652Y-124907257D01*
X116782510Y-125764400D02*
X116639652Y-125835828D01*
X116639652Y-125835828D02*
X116282510Y-125835828D01*
X116282510Y-125835828D02*
X116139652Y-125764400D01*
X116139652Y-125764400D02*
X116068224Y-125621542D01*
X116068224Y-125621542D02*
X116068224Y-125478685D01*
X116068224Y-125478685D02*
X116139652Y-125335828D01*
X116139652Y-125335828D02*
X116282510Y-125264400D01*
X116282510Y-125264400D02*
X116639652Y-125264400D01*
X116639652Y-125264400D02*
X116782510Y-125192971D01*
X118139653Y-125764400D02*
X117996795Y-125835828D01*
X117996795Y-125835828D02*
X117711081Y-125835828D01*
X117711081Y-125835828D02*
X117568224Y-125764400D01*
X117568224Y-125764400D02*
X117496795Y-125692971D01*
X117496795Y-125692971D02*
X117425367Y-125550114D01*
X117425367Y-125550114D02*
X117425367Y-125121542D01*
X117425367Y-125121542D02*
X117496795Y-124978685D01*
X117496795Y-124978685D02*
X117568224Y-124907257D01*
X117568224Y-124907257D02*
X117711081Y-124835828D01*
X117711081Y-124835828D02*
X117996795Y-124835828D01*
X117996795Y-124835828D02*
X118139653Y-124907257D01*
X118782509Y-125835828D02*
X118782509Y-124335828D01*
X118925367Y-125264400D02*
X119353938Y-125835828D01*
X119353938Y-124835828D02*
X118782509Y-125407257D01*
X121782510Y-125764400D02*
X121639652Y-125835828D01*
X121639652Y-125835828D02*
X121353938Y-125835828D01*
X121353938Y-125835828D02*
X121211081Y-125764400D01*
X121211081Y-125764400D02*
X121139652Y-125692971D01*
X121139652Y-125692971D02*
X121068224Y-125550114D01*
X121068224Y-125550114D02*
X121068224Y-125121542D01*
X121068224Y-125121542D02*
X121139652Y-124978685D01*
X121139652Y-124978685D02*
X121211081Y-124907257D01*
X121211081Y-124907257D02*
X121353938Y-124835828D01*
X121353938Y-124835828D02*
X121639652Y-124835828D01*
X121639652Y-124835828D02*
X121782510Y-124907257D01*
X122639652Y-125835828D02*
X122496795Y-125764400D01*
X122496795Y-125764400D02*
X122425366Y-125692971D01*
X122425366Y-125692971D02*
X122353938Y-125550114D01*
X122353938Y-125550114D02*
X122353938Y-125121542D01*
X122353938Y-125121542D02*
X122425366Y-124978685D01*
X122425366Y-124978685D02*
X122496795Y-124907257D01*
X122496795Y-124907257D02*
X122639652Y-124835828D01*
X122639652Y-124835828D02*
X122853938Y-124835828D01*
X122853938Y-124835828D02*
X122996795Y-124907257D01*
X122996795Y-124907257D02*
X123068224Y-124978685D01*
X123068224Y-124978685D02*
X123139652Y-125121542D01*
X123139652Y-125121542D02*
X123139652Y-125550114D01*
X123139652Y-125550114D02*
X123068224Y-125692971D01*
X123068224Y-125692971D02*
X122996795Y-125764400D01*
X122996795Y-125764400D02*
X122853938Y-125835828D01*
X122853938Y-125835828D02*
X122639652Y-125835828D01*
X123782509Y-124835828D02*
X123782509Y-125835828D01*
X123782509Y-124978685D02*
X123853938Y-124907257D01*
X123853938Y-124907257D02*
X123996795Y-124835828D01*
X123996795Y-124835828D02*
X124211081Y-124835828D01*
X124211081Y-124835828D02*
X124353938Y-124907257D01*
X124353938Y-124907257D02*
X124425367Y-125050114D01*
X124425367Y-125050114D02*
X124425367Y-125835828D01*
X124925367Y-124835828D02*
X125496795Y-124835828D01*
X125139652Y-124335828D02*
X125139652Y-125621542D01*
X125139652Y-125621542D02*
X125211081Y-125764400D01*
X125211081Y-125764400D02*
X125353938Y-125835828D01*
X125353938Y-125835828D02*
X125496795Y-125835828D01*
X125996795Y-125835828D02*
X125996795Y-124835828D01*
X125996795Y-125121542D02*
X126068224Y-124978685D01*
X126068224Y-124978685D02*
X126139653Y-124907257D01*
X126139653Y-124907257D02*
X126282510Y-124835828D01*
X126282510Y-124835828D02*
X126425367Y-124835828D01*
X127139652Y-125835828D02*
X126996795Y-125764400D01*
X126996795Y-125764400D02*
X126925366Y-125692971D01*
X126925366Y-125692971D02*
X126853938Y-125550114D01*
X126853938Y-125550114D02*
X126853938Y-125121542D01*
X126853938Y-125121542D02*
X126925366Y-124978685D01*
X126925366Y-124978685D02*
X126996795Y-124907257D01*
X126996795Y-124907257D02*
X127139652Y-124835828D01*
X127139652Y-124835828D02*
X127353938Y-124835828D01*
X127353938Y-124835828D02*
X127496795Y-124907257D01*
X127496795Y-124907257D02*
X127568224Y-124978685D01*
X127568224Y-124978685D02*
X127639652Y-125121542D01*
X127639652Y-125121542D02*
X127639652Y-125550114D01*
X127639652Y-125550114D02*
X127568224Y-125692971D01*
X127568224Y-125692971D02*
X127496795Y-125764400D01*
X127496795Y-125764400D02*
X127353938Y-125835828D01*
X127353938Y-125835828D02*
X127139652Y-125835828D01*
X128496795Y-125835828D02*
X128353938Y-125764400D01*
X128353938Y-125764400D02*
X128282509Y-125621542D01*
X128282509Y-125621542D02*
X128282509Y-124335828D01*
X130068223Y-124835828D02*
X130425366Y-125835828D01*
X130425366Y-125835828D02*
X130782509Y-124835828D01*
X131568223Y-125835828D02*
X131425366Y-125764400D01*
X131425366Y-125764400D02*
X131353937Y-125692971D01*
X131353937Y-125692971D02*
X131282509Y-125550114D01*
X131282509Y-125550114D02*
X131282509Y-125121542D01*
X131282509Y-125121542D02*
X131353937Y-124978685D01*
X131353937Y-124978685D02*
X131425366Y-124907257D01*
X131425366Y-124907257D02*
X131568223Y-124835828D01*
X131568223Y-124835828D02*
X131782509Y-124835828D01*
X131782509Y-124835828D02*
X131925366Y-124907257D01*
X131925366Y-124907257D02*
X131996795Y-124978685D01*
X131996795Y-124978685D02*
X132068223Y-125121542D01*
X132068223Y-125121542D02*
X132068223Y-125550114D01*
X132068223Y-125550114D02*
X131996795Y-125692971D01*
X131996795Y-125692971D02*
X131925366Y-125764400D01*
X131925366Y-125764400D02*
X131782509Y-125835828D01*
X131782509Y-125835828D02*
X131568223Y-125835828D01*
X132925366Y-125835828D02*
X132782509Y-125764400D01*
X132782509Y-125764400D02*
X132711080Y-125621542D01*
X132711080Y-125621542D02*
X132711080Y-124335828D01*
X133282509Y-124835828D02*
X133853937Y-124835828D01*
X133496794Y-124335828D02*
X133496794Y-125621542D01*
X133496794Y-125621542D02*
X133568223Y-125764400D01*
X133568223Y-125764400D02*
X133711080Y-125835828D01*
X133711080Y-125835828D02*
X133853937Y-125835828D01*
X134996795Y-125835828D02*
X134996795Y-125050114D01*
X134996795Y-125050114D02*
X134925366Y-124907257D01*
X134925366Y-124907257D02*
X134782509Y-124835828D01*
X134782509Y-124835828D02*
X134496795Y-124835828D01*
X134496795Y-124835828D02*
X134353937Y-124907257D01*
X134996795Y-125764400D02*
X134853937Y-125835828D01*
X134853937Y-125835828D02*
X134496795Y-125835828D01*
X134496795Y-125835828D02*
X134353937Y-125764400D01*
X134353937Y-125764400D02*
X134282509Y-125621542D01*
X134282509Y-125621542D02*
X134282509Y-125478685D01*
X134282509Y-125478685D02*
X134353937Y-125335828D01*
X134353937Y-125335828D02*
X134496795Y-125264400D01*
X134496795Y-125264400D02*
X134853937Y-125264400D01*
X134853937Y-125264400D02*
X134996795Y-125192971D01*
X136353938Y-124835828D02*
X136353938Y-126050114D01*
X136353938Y-126050114D02*
X136282509Y-126192971D01*
X136282509Y-126192971D02*
X136211080Y-126264400D01*
X136211080Y-126264400D02*
X136068223Y-126335828D01*
X136068223Y-126335828D02*
X135853938Y-126335828D01*
X135853938Y-126335828D02*
X135711080Y-126264400D01*
X136353938Y-125764400D02*
X136211080Y-125835828D01*
X136211080Y-125835828D02*
X135925366Y-125835828D01*
X135925366Y-125835828D02*
X135782509Y-125764400D01*
X135782509Y-125764400D02*
X135711080Y-125692971D01*
X135711080Y-125692971D02*
X135639652Y-125550114D01*
X135639652Y-125550114D02*
X135639652Y-125121542D01*
X135639652Y-125121542D02*
X135711080Y-124978685D01*
X135711080Y-124978685D02*
X135782509Y-124907257D01*
X135782509Y-124907257D02*
X135925366Y-124835828D01*
X135925366Y-124835828D02*
X136211080Y-124835828D01*
X136211080Y-124835828D02*
X136353938Y-124907257D01*
X137639652Y-125764400D02*
X137496795Y-125835828D01*
X137496795Y-125835828D02*
X137211081Y-125835828D01*
X137211081Y-125835828D02*
X137068223Y-125764400D01*
X137068223Y-125764400D02*
X136996795Y-125621542D01*
X136996795Y-125621542D02*
X136996795Y-125050114D01*
X136996795Y-125050114D02*
X137068223Y-124907257D01*
X137068223Y-124907257D02*
X137211081Y-124835828D01*
X137211081Y-124835828D02*
X137496795Y-124835828D01*
X137496795Y-124835828D02*
X137639652Y-124907257D01*
X137639652Y-124907257D02*
X137711081Y-125050114D01*
X137711081Y-125050114D02*
X137711081Y-125192971D01*
X137711081Y-125192971D02*
X136996795Y-125335828D01*
X110139653Y-127250828D02*
X110496796Y-128250828D01*
X110496796Y-128250828D02*
X110853939Y-127250828D01*
X111711082Y-126750828D02*
X111853939Y-126750828D01*
X111853939Y-126750828D02*
X111996796Y-126822257D01*
X111996796Y-126822257D02*
X112068225Y-126893685D01*
X112068225Y-126893685D02*
X112139653Y-127036542D01*
X112139653Y-127036542D02*
X112211082Y-127322257D01*
X112211082Y-127322257D02*
X112211082Y-127679400D01*
X112211082Y-127679400D02*
X112139653Y-127965114D01*
X112139653Y-127965114D02*
X112068225Y-128107971D01*
X112068225Y-128107971D02*
X111996796Y-128179400D01*
X111996796Y-128179400D02*
X111853939Y-128250828D01*
X111853939Y-128250828D02*
X111711082Y-128250828D01*
X111711082Y-128250828D02*
X111568225Y-128179400D01*
X111568225Y-128179400D02*
X111496796Y-128107971D01*
X111496796Y-128107971D02*
X111425367Y-127965114D01*
X111425367Y-127965114D02*
X111353939Y-127679400D01*
X111353939Y-127679400D02*
X111353939Y-127322257D01*
X111353939Y-127322257D02*
X111425367Y-127036542D01*
X111425367Y-127036542D02*
X111496796Y-126893685D01*
X111496796Y-126893685D02*
X111568225Y-126822257D01*
X111568225Y-126822257D02*
X111711082Y-126750828D01*
X112853938Y-128107971D02*
X112925367Y-128179400D01*
X112925367Y-128179400D02*
X112853938Y-128250828D01*
X112853938Y-128250828D02*
X112782510Y-128179400D01*
X112782510Y-128179400D02*
X112853938Y-128107971D01*
X112853938Y-128107971D02*
X112853938Y-128250828D01*
X114211082Y-127250828D02*
X114211082Y-128250828D01*
X113853939Y-126679400D02*
X113496796Y-127750828D01*
X113496796Y-127750828D02*
X114425367Y-127750828D01*
D11*
X91805238Y-11861009D02*
X91948095Y-11908628D01*
X91948095Y-11908628D02*
X91995714Y-11956247D01*
X91995714Y-11956247D02*
X92043333Y-12051485D01*
X92043333Y-12051485D02*
X92043333Y-12194342D01*
X92043333Y-12194342D02*
X91995714Y-12289580D01*
X91995714Y-12289580D02*
X91948095Y-12337200D01*
X91948095Y-12337200D02*
X91852857Y-12384819D01*
X91852857Y-12384819D02*
X91471905Y-12384819D01*
X91471905Y-12384819D02*
X91471905Y-11384819D01*
X91471905Y-11384819D02*
X91805238Y-11384819D01*
X91805238Y-11384819D02*
X91900476Y-11432438D01*
X91900476Y-11432438D02*
X91948095Y-11480057D01*
X91948095Y-11480057D02*
X91995714Y-11575295D01*
X91995714Y-11575295D02*
X91995714Y-11670533D01*
X91995714Y-11670533D02*
X91948095Y-11765771D01*
X91948095Y-11765771D02*
X91900476Y-11813390D01*
X91900476Y-11813390D02*
X91805238Y-11861009D01*
X91805238Y-11861009D02*
X91471905Y-11861009D01*
X92805238Y-11861009D02*
X92948095Y-11908628D01*
X92948095Y-11908628D02*
X92995714Y-11956247D01*
X92995714Y-11956247D02*
X93043333Y-12051485D01*
X93043333Y-12051485D02*
X93043333Y-12194342D01*
X93043333Y-12194342D02*
X92995714Y-12289580D01*
X92995714Y-12289580D02*
X92948095Y-12337200D01*
X92948095Y-12337200D02*
X92852857Y-12384819D01*
X92852857Y-12384819D02*
X92471905Y-12384819D01*
X92471905Y-12384819D02*
X92471905Y-11384819D01*
X92471905Y-11384819D02*
X92805238Y-11384819D01*
X92805238Y-11384819D02*
X92900476Y-11432438D01*
X92900476Y-11432438D02*
X92948095Y-11480057D01*
X92948095Y-11480057D02*
X92995714Y-11575295D01*
X92995714Y-11575295D02*
X92995714Y-11670533D01*
X92995714Y-11670533D02*
X92948095Y-11765771D01*
X92948095Y-11765771D02*
X92900476Y-11813390D01*
X92900476Y-11813390D02*
X92805238Y-11861009D01*
X92805238Y-11861009D02*
X92471905Y-11861009D01*
X93995714Y-12384819D02*
X93424286Y-12384819D01*
X93710000Y-12384819D02*
X93710000Y-11384819D01*
X93710000Y-11384819D02*
X93614762Y-11527676D01*
X93614762Y-11527676D02*
X93519524Y-11622914D01*
X93519524Y-11622914D02*
X93424286Y-11670533D01*
%LPC*%
D13*
%TO.C,J28*%
X111506000Y-58293000D03*
D14*
X114046000Y-58293000D03*
X111506000Y-55753000D03*
X114046000Y-55753000D03*
X111506000Y-53213000D03*
X114046000Y-53213000D03*
X111506000Y-50673000D03*
X114046000Y-50673000D03*
X111506000Y-48133000D03*
X114046000Y-48133000D03*
X111506000Y-45593000D03*
X114046000Y-45593000D03*
X114046000Y-43053000D03*
X111506000Y-43053000D03*
X111506000Y-40513000D03*
X114046000Y-40513000D03*
%TD*%
D15*
%TO.C,C34*%
X158750000Y-50768000D03*
D16*
X158750000Y-48768000D03*
%TD*%
D17*
%TO.C,BB1*%
X110490000Y-64770000D03*
X110490000Y-67310000D03*
X110490000Y-69850000D03*
X110490000Y-72390000D03*
X110490000Y-74930000D03*
X110490000Y-77470000D03*
X110490000Y-80010000D03*
X110490000Y-82550000D03*
X110490000Y-85090000D03*
X110490000Y-87630000D03*
X110490000Y-90170000D03*
X110490000Y-92710000D03*
X110490000Y-95250000D03*
X110490000Y-97790000D03*
X110490000Y-100330000D03*
X110490000Y-102870000D03*
X110490000Y-105410000D03*
X110490000Y-107950000D03*
X110490000Y-110490000D03*
X110490000Y-113030000D03*
X170180000Y-64770000D03*
X170180000Y-67310000D03*
X170180000Y-69850000D03*
X170180000Y-72390000D03*
X170180000Y-74930000D03*
X170180000Y-77470000D03*
X170180000Y-80010000D03*
X170180000Y-82550000D03*
X170180000Y-85090000D03*
X170180000Y-87630000D03*
X170180000Y-90170000D03*
X170180000Y-92710000D03*
X170180000Y-95250000D03*
X170180000Y-97790000D03*
X170180000Y-100330000D03*
X170180000Y-102870000D03*
X170180000Y-105410000D03*
X170180000Y-107950000D03*
X170180000Y-110490000D03*
X170180000Y-113030000D03*
X161925000Y-141478000D03*
X159385000Y-141478000D03*
X156845000Y-141478000D03*
X154305000Y-141478000D03*
X126555500Y-141478000D03*
X124015500Y-141478000D03*
X121475500Y-141478000D03*
X118935500Y-141478000D03*
X118935500Y-36068000D03*
X121475500Y-36068000D03*
X124015500Y-36068000D03*
X126555500Y-36068000D03*
X154305000Y-36068000D03*
X156845000Y-36068000D03*
X159385000Y-36068000D03*
X161925000Y-36068000D03*
%TD*%
D15*
%TO.C,C33*%
X166624000Y-50768000D03*
D16*
X166624000Y-48768000D03*
%TD*%
D15*
%TO.C,C32*%
X160020000Y-78708000D03*
D16*
X160020000Y-76708000D03*
%TD*%
D15*
%TO.C,C31*%
X158750000Y-57118000D03*
D16*
X158750000Y-55118000D03*
%TD*%
D15*
%TO.C,C25*%
X151130000Y-55150000D03*
D16*
X151130000Y-57150000D03*
%TD*%
D15*
%TO.C,C23*%
X152400000Y-76740000D03*
D16*
X152400000Y-78740000D03*
%TD*%
D15*
%TO.C,C21*%
X151130000Y-48800000D03*
D16*
X151130000Y-50800000D03*
%TD*%
D15*
%TO.C,C19*%
X143510000Y-48800000D03*
D16*
X143510000Y-50800000D03*
%TD*%
D18*
%TO.C,J3*%
X158115000Y-111760000D03*
X155575000Y-111760000D03*
D13*
X153035000Y-111760000D03*
%TD*%
D18*
%TO.C,J2*%
X161925000Y-112268000D03*
D13*
X161925000Y-114808000D03*
%TD*%
D18*
%TO.C,J1*%
X158115000Y-115570000D03*
X155575000Y-115570000D03*
D13*
X153035000Y-115570000D03*
%TD*%
%TO.C,J27*%
X121920000Y-48260000D03*
D18*
X121920000Y-45720000D03*
%TD*%
D15*
%TO.C,U4*%
X110617000Y-137668000D03*
X113157000Y-137668000D03*
X115697000Y-137668000D03*
X118237000Y-137668000D03*
X120777000Y-137668000D03*
X123317000Y-137668000D03*
X125857000Y-137668000D03*
X128397000Y-137668000D03*
X130937000Y-137668000D03*
X133477000Y-137668000D03*
X136017000Y-137668000D03*
X138557000Y-137668000D03*
X141097000Y-137668000D03*
X143637000Y-137668000D03*
D16*
X110617000Y-122428000D03*
D15*
X113157000Y-122428000D03*
X115697000Y-122428000D03*
X118237000Y-122428000D03*
X120777000Y-122428000D03*
X123317000Y-122428000D03*
X125857000Y-122428000D03*
X128397000Y-122428000D03*
X130937000Y-122428000D03*
X133477000Y-122428000D03*
X136017000Y-122428000D03*
X138557000Y-122428000D03*
X141097000Y-122428000D03*
X146177000Y-137668000D03*
X148717000Y-137668000D03*
X151257000Y-137668000D03*
X153797000Y-137668000D03*
X156337000Y-137668000D03*
X158877000Y-137668000D03*
X161417000Y-137668000D03*
X163957000Y-137668000D03*
X166497000Y-137668000D03*
X169037000Y-137668000D03*
X169037000Y-122428000D03*
X166497000Y-122428000D03*
X163957000Y-122428000D03*
X161417000Y-122428000D03*
X143637000Y-122428000D03*
X146177000Y-122428000D03*
X148717000Y-122428000D03*
X158877000Y-122428000D03*
X156337000Y-122428000D03*
X153797000Y-122428000D03*
X151257000Y-122428000D03*
%TD*%
%LPD*%
M02*
