%TF.GenerationSoftware,KiCad,Pcbnew,7.0.10*%
%TF.CreationDate,2024-05-23T22:52:30+02:00*%
%TF.ProjectId,teensy-eurorack,7465656e-7379-42d6-9575-726f7261636b,rev?*%
%TF.SameCoordinates,Original*%
%TF.FileFunction,Paste,Bot*%
%TF.FilePolarity,Positive*%
%FSLAX46Y46*%
G04 Gerber Fmt 4.6, Leading zero omitted, Abs format (unit mm)*
G04 Created by KiCad (PCBNEW 7.0.10) date 2024-05-23 22:52:30*
%MOMM*%
%LPD*%
G01*
G04 APERTURE LIST*
G04 Aperture macros list*
%AMRoundRect*
0 Rectangle with rounded corners*
0 $1 Rounding radius*
0 $2 $3 $4 $5 $6 $7 $8 $9 X,Y pos of 4 corners*
0 Add a 4 corners polygon primitive as box body*
4,1,4,$2,$3,$4,$5,$6,$7,$8,$9,$2,$3,0*
0 Add four circle primitives for the rounded corners*
1,1,$1+$1,$2,$3*
1,1,$1+$1,$4,$5*
1,1,$1+$1,$6,$7*
1,1,$1+$1,$8,$9*
0 Add four rect primitives between the rounded corners*
20,1,$1+$1,$2,$3,$4,$5,0*
20,1,$1+$1,$4,$5,$6,$7,0*
20,1,$1+$1,$6,$7,$8,$9,0*
20,1,$1+$1,$8,$9,$2,$3,0*%
G04 Aperture macros list end*
%ADD10RoundRect,0.225000X0.225000X0.375000X-0.225000X0.375000X-0.225000X-0.375000X0.225000X-0.375000X0*%
%ADD11RoundRect,0.225000X-0.225000X-0.375000X0.225000X-0.375000X0.225000X0.375000X-0.225000X0.375000X0*%
%ADD12RoundRect,0.225000X-0.375000X0.225000X-0.375000X-0.225000X0.375000X-0.225000X0.375000X0.225000X0*%
%ADD13RoundRect,0.243750X0.243750X0.456250X-0.243750X0.456250X-0.243750X-0.456250X0.243750X-0.456250X0*%
%ADD14R,1.400000X1.300000*%
%ADD15RoundRect,0.075000X-0.075000X0.700000X-0.075000X-0.700000X0.075000X-0.700000X0.075000X0.700000X0*%
%ADD16RoundRect,0.075000X-0.700000X0.075000X-0.700000X-0.075000X0.700000X-0.075000X0.700000X0.075000X0*%
%ADD17R,0.900000X0.800000*%
%ADD18RoundRect,0.100000X0.675000X0.100000X-0.675000X0.100000X-0.675000X-0.100000X0.675000X-0.100000X0*%
%ADD19RoundRect,0.249999X0.395001X0.420001X-0.395001X0.420001X-0.395001X-0.420001X0.395001X-0.420001X0*%
%ADD20RoundRect,0.243750X-0.243750X-0.456250X0.243750X-0.456250X0.243750X0.456250X-0.243750X0.456250X0*%
%ADD21RoundRect,0.243750X0.456250X-0.243750X0.456250X0.243750X-0.456250X0.243750X-0.456250X-0.243750X0*%
%ADD22RoundRect,0.243750X-0.456250X0.243750X-0.456250X-0.243750X0.456250X-0.243750X0.456250X0.243750X0*%
G04 APERTURE END LIST*
D10*
%TO.C,D5*%
X122300000Y-105410000D03*
X119000000Y-105410000D03*
%TD*%
D11*
%TO.C,D4*%
X119000000Y-110490000D03*
X122300000Y-110490000D03*
%TD*%
D10*
%TO.C,D3*%
X117220000Y-111760000D03*
X113920000Y-111760000D03*
%TD*%
D11*
%TO.C,D2*%
X116600000Y-116800000D03*
X113300000Y-116800000D03*
%TD*%
D12*
%TO.C,D1*%
X165100000Y-103250000D03*
X165100000Y-99950000D03*
%TD*%
D13*
%TO.C,R4*%
X121587500Y-107950000D03*
X119712500Y-107950000D03*
%TD*%
%TO.C,R3*%
X116507500Y-114300000D03*
X114632500Y-114300000D03*
%TD*%
D14*
%TO.C,U7*%
X159900000Y-97640000D03*
X159900000Y-100180000D03*
X159900000Y-102720000D03*
X159900000Y-105260000D03*
X150360000Y-105190000D03*
X150360000Y-102650000D03*
X150360000Y-100110000D03*
X150360000Y-97570000D03*
%TD*%
D15*
%TO.C,U6*%
X121345000Y-75605000D03*
X121845000Y-75605000D03*
X122345000Y-75605000D03*
X122845000Y-75605000D03*
X123345000Y-75605000D03*
X123845000Y-75605000D03*
X124345000Y-75605000D03*
X124845000Y-75605000D03*
X125345000Y-75605000D03*
X125845000Y-75605000D03*
X126345000Y-75605000D03*
X126845000Y-75605000D03*
X127345000Y-75605000D03*
X127845000Y-75605000D03*
X128345000Y-75605000D03*
X128845000Y-75605000D03*
D16*
X130770000Y-77530000D03*
X130770000Y-78030000D03*
X130770000Y-78530000D03*
X130770000Y-79030000D03*
X130770000Y-79530000D03*
X130770000Y-80030000D03*
X130770000Y-80530000D03*
X130770000Y-81030000D03*
X130770000Y-81530000D03*
X130770000Y-82030000D03*
X130770000Y-82530000D03*
X130770000Y-83030000D03*
X130770000Y-83530000D03*
X130770000Y-84030000D03*
X130770000Y-84530000D03*
X130770000Y-85030000D03*
D15*
X128845000Y-86955000D03*
X128345000Y-86955000D03*
X127845000Y-86955000D03*
X127345000Y-86955000D03*
X126845000Y-86955000D03*
X126345000Y-86955000D03*
X125845000Y-86955000D03*
X125345000Y-86955000D03*
X124845000Y-86955000D03*
X124345000Y-86955000D03*
X123845000Y-86955000D03*
X123345000Y-86955000D03*
X122845000Y-86955000D03*
X122345000Y-86955000D03*
X121845000Y-86955000D03*
X121345000Y-86955000D03*
D16*
X119420000Y-85030000D03*
X119420000Y-84530000D03*
X119420000Y-84030000D03*
X119420000Y-83530000D03*
X119420000Y-83030000D03*
X119420000Y-82530000D03*
X119420000Y-82030000D03*
X119420000Y-81530000D03*
X119420000Y-81030000D03*
X119420000Y-80530000D03*
X119420000Y-80030000D03*
X119420000Y-79530000D03*
X119420000Y-79030000D03*
X119420000Y-78530000D03*
X119420000Y-78030000D03*
X119420000Y-77530000D03*
%TD*%
D17*
%TO.C,U5*%
X142510000Y-73975000D03*
X142510000Y-72075000D03*
X144510000Y-73025000D03*
%TD*%
D18*
%TO.C,U3*%
X159555000Y-84455000D03*
X159555000Y-85105000D03*
X159555000Y-85755000D03*
X159555000Y-86405000D03*
X159555000Y-87055000D03*
X159555000Y-87705000D03*
X159555000Y-88355000D03*
X159555000Y-89005000D03*
X159555000Y-89655000D03*
X159555000Y-90305000D03*
X159555000Y-90955000D03*
X159555000Y-91605000D03*
X153805000Y-91605000D03*
X153805000Y-90955000D03*
X153805000Y-90305000D03*
X153805000Y-89655000D03*
X153805000Y-89005000D03*
X153805000Y-88355000D03*
X153805000Y-87705000D03*
X153805000Y-87055000D03*
X153805000Y-86405000D03*
X153805000Y-85755000D03*
X153805000Y-85105000D03*
X153805000Y-84455000D03*
D19*
X157480000Y-86360000D03*
X157480000Y-88030000D03*
X157480000Y-89700000D03*
X155880000Y-86360000D03*
X155880000Y-88030000D03*
X155880000Y-89700000D03*
%TD*%
D18*
%TO.C,U2*%
X159555000Y-62465000D03*
X159555000Y-63115000D03*
X159555000Y-63765000D03*
X159555000Y-64415000D03*
X159555000Y-65065000D03*
X159555000Y-65715000D03*
X159555000Y-66365000D03*
X159555000Y-67015000D03*
X159555000Y-67665000D03*
X159555000Y-68315000D03*
X159555000Y-68965000D03*
X159555000Y-69615000D03*
X153805000Y-69615000D03*
X153805000Y-68965000D03*
X153805000Y-68315000D03*
X153805000Y-67665000D03*
X153805000Y-67015000D03*
X153805000Y-66365000D03*
X153805000Y-65715000D03*
X153805000Y-65065000D03*
X153805000Y-64415000D03*
X153805000Y-63765000D03*
X153805000Y-63115000D03*
X153805000Y-62465000D03*
D19*
X157480000Y-64370000D03*
X157480000Y-66040000D03*
X157480000Y-67710000D03*
X155880000Y-64370000D03*
X155880000Y-66040000D03*
X155880000Y-67710000D03*
%TD*%
D20*
%TO.C,R38*%
X114632500Y-101600000D03*
X116507500Y-101600000D03*
%TD*%
D21*
%TO.C,R37*%
X165100000Y-97457500D03*
X165100000Y-95582500D03*
%TD*%
D13*
%TO.C,R36*%
X116507500Y-105410000D03*
X114632500Y-105410000D03*
%TD*%
D20*
%TO.C,R7*%
X136222500Y-91440000D03*
X138097500Y-91440000D03*
%TD*%
D22*
%TO.C,R6*%
X121920000Y-63832500D03*
X121920000Y-65707500D03*
%TD*%
%TO.C,R5*%
X118110000Y-63832500D03*
X118110000Y-65707500D03*
%TD*%
%TO.C,R1*%
X128270000Y-63832500D03*
X128270000Y-65707500D03*
%TD*%
D21*
%TO.C,C44*%
X129540000Y-94917500D03*
X129540000Y-93042500D03*
%TD*%
%TO.C,C43*%
X125730000Y-94917500D03*
X125730000Y-93042500D03*
%TD*%
%TO.C,C42*%
X120650000Y-94917500D03*
X120650000Y-93042500D03*
%TD*%
%TO.C,C41*%
X120650000Y-70787500D03*
X120650000Y-68912500D03*
%TD*%
%TO.C,C40*%
X130810000Y-72057500D03*
X130810000Y-70182500D03*
%TD*%
%TO.C,C39*%
X149098000Y-88821500D03*
X149098000Y-86946500D03*
%TD*%
D22*
%TO.C,C38*%
X116840000Y-89232500D03*
X116840000Y-91107500D03*
%TD*%
D21*
%TO.C,C37*%
X145415000Y-66977500D03*
X145415000Y-65102500D03*
%TD*%
D20*
%TO.C,C36*%
X136222500Y-85090000D03*
X138097500Y-85090000D03*
%TD*%
%TO.C,C35*%
X136222500Y-81280000D03*
X138097500Y-81280000D03*
%TD*%
D21*
%TO.C,C30*%
X149225000Y-66977500D03*
X149225000Y-65102500D03*
%TD*%
%TO.C,C29*%
X145415000Y-88870000D03*
X145415000Y-86995000D03*
%TD*%
%TO.C,C28*%
X145542000Y-81074500D03*
X145542000Y-79199500D03*
%TD*%
%TO.C,C27*%
X141605000Y-81074500D03*
X141605000Y-79199500D03*
%TD*%
D20*
%TO.C,C26*%
X165467500Y-72390000D03*
X167342500Y-72390000D03*
%TD*%
%TO.C,C24*%
X165432500Y-87630000D03*
X167307500Y-87630000D03*
%TD*%
%TO.C,C22*%
X165432500Y-68580000D03*
X167307500Y-68580000D03*
%TD*%
%TO.C,C20*%
X165432500Y-91440000D03*
X167307500Y-91440000D03*
%TD*%
M02*
