M48
; DRILL file {KiCad 7.0.10} date Thursday, May 23, 2024 at 10:52:30 PM
; FORMAT={-:-/ absolute / inch / decimal}
; #@! TF.CreationDate,2024-05-23T22:52:30+02:00
; #@! TF.GenerationSoftware,Kicad,Pcbnew,7.0.10
; #@! TF.FileFunction,Plated,1,2,PTH
FMAT,2
INCH
; #@! TA.AperFunction,Plated,PTH,ViaDrill
T1C0.0080
; #@! TA.AperFunction,Plated,PTH,ComponentDrill
T2C0.0300
; #@! TA.AperFunction,Plated,PTH,ComponentDrill
T3C0.0315
; #@! TA.AperFunction,Plated,PTH,ComponentDrill
T4C0.0394
; #@! TA.AperFunction,Plated,PTH,ComponentDrill
T5C0.0433
%
G90
G05
T1
X4.28Y-4.52
X4.28Y-4.75
X4.28Y-4.89
X4.28Y-5.35
X4.34Y-4.52
X4.34Y-4.75
X4.34Y-4.89
X4.34Y-5.35
X4.4175Y-3.325
X4.4175Y-3.4175
X4.42Y-2.8625
X4.42Y-2.9175
X4.42Y-2.97
X4.42Y-3.46
X4.42Y-4.36
X4.42Y-4.46
X4.4225Y-2.7675
X4.4225Y-3.0275
X4.4225Y-3.1075
X4.4225Y-3.215
X4.4275Y-3.6975
X4.4275Y-3.815
X4.43Y-3.5925
X4.43Y-3.88
X4.4325Y-3.5425
X4.45Y-3.97
X4.45Y-4.04
X4.45Y-4.11
X4.45Y-4.19
X4.45Y-4.28
X4.47Y-5.35
X4.48Y-4.9
X4.5075Y-3.1125
X4.51Y-3.4775
X4.5225Y-3.215
X4.5325Y-3.7825
X4.55Y-4.9
X4.55Y-5.35
X4.5525Y-3.0875
X4.5572Y-4.2201
X4.5675Y-1.98
X4.5725Y-1.885
X4.5725Y-2.265
X4.5725Y-2.3275
X4.575Y-1.835
X4.5775Y-1.7675
X4.5775Y-3.825
X4.585Y-2.7475
X4.5875Y-3.435
X4.61Y-3.655
X4.61Y-3.69
X4.615Y-3.06
X4.6175Y-3.2525
X4.6375Y-2.745
X4.64Y-4.095
X4.65Y-4.56
X4.65Y-4.64
X4.66Y-4.22
X4.66Y-4.28
X4.66Y-4.38
X4.665Y-3.495
X4.67Y-4.04
X4.675Y-3.655
X4.675Y-3.69
X4.68Y-3.02
X4.68Y-4.89
X4.68Y-4.97
X4.69Y-2.64
X4.7Y-3.545
X4.705Y-4.09
X4.71Y-2.66
X4.72Y-2.6
X4.7377Y-4.7073
X4.74Y-2.62
X4.74Y-2.83
X4.74Y-2.86
X4.74Y-2.89
X4.74Y-2.92
X4.76Y-1.97
X4.76Y-2.04
X4.76Y-4.41
X4.7625Y-2.265
X4.765Y-2.3275
X4.7675Y-2.4525
X4.77Y-2.39
X4.775Y-3.495
X4.78Y-3.14
X4.78Y-3.17
X4.78Y-3.2
X4.78Y-3.23
X4.78Y-3.26
X4.78Y-3.29
X4.78Y-3.32
X4.7862Y-2.7538
X4.805Y-3.495
X4.81Y-2.8
X4.81Y-2.83
X4.81Y-2.86
X4.81Y-2.89
X4.81Y-3.03
X4.81Y-3.06
X4.81Y-3.09
X4.81Y-3.17
X4.81Y-3.2
X4.81Y-3.23
X4.81Y-3.26
X4.81Y-3.29
X4.81Y-3.32
X4.815Y-3.65
X4.83Y-2.39
X4.83Y-4.56
X4.8325Y-2.4525
X4.835Y-2.265
X4.835Y-3.63
X4.835Y-3.87
X4.835Y-3.97
X4.835Y-4.025
X4.835Y-4.105
X4.835Y-4.26
X4.8375Y-2.3275
X4.8386Y-4.4075
X4.84Y-1.97
X4.84Y-2.04
X4.84Y-3.06
X4.84Y-3.09
X4.84Y-3.12
X4.84Y-3.2
X4.84Y-3.23
X4.84Y-3.26
X4.84Y-3.29
X4.84Y-3.32
X4.84Y-4.69
X4.85Y-2.8
X4.85Y-2.83
X4.85Y-2.86
X4.85Y-2.89
X4.86Y-3.04
X4.87Y-2.69
X4.87Y-2.72
X4.8952Y-3.1796
X4.905Y-3.09
X4.905Y-3.115
X4.905Y-3.14
X4.9152Y-3.4848
X4.9175Y-3.615
X4.92Y-2.69
X4.92Y-2.72
X4.93Y-2.48
X4.93Y-2.54
X4.95Y-2.68
X4.95Y-2.72
X4.95Y-2.79
X4.9536Y-3.0228
X4.958Y-3.0979
X4.97Y-4.33
X4.97Y-4.43
X4.98Y-4.55
X4.99Y-3.815
X4.99Y-3.935
X4.99Y-4.025
X4.99Y-4.105
X4.99Y-4.26
X4.9926Y-3.0293
X5.0Y-2.68
X5.0Y-2.72
X5.0Y-2.79
X5.01Y-4.39
X5.02Y-3.79
X5.025Y-3.62
X5.025Y-3.69
X5.035Y-3.085
X5.035Y-3.115
X5.035Y-3.495
X5.035Y-3.535
X5.0361Y-3.1728
X5.0469Y-3.0483
X5.0511Y-3.3262
X5.06Y-2.91
X5.065Y-3.085
X5.065Y-3.115
X5.065Y-3.145
X5.07Y-3.85
X5.08Y-2.72
X5.08Y-2.79
X5.08Y-4.3
X5.08Y-4.45
X5.095Y-3.215
X5.095Y-3.28
X5.11Y-3.475
X5.12Y-2.91
X5.13Y-2.64
X5.14Y-3.79
X5.14Y-4.39
X5.165Y-3.4
X5.175Y-3.54
X5.18Y-2.59
X5.19Y-3.4
X5.1964Y-3.3458
X5.2Y-3.57
X5.2Y-4.62
X5.215Y-3.14
X5.23Y-2.78
X5.23Y-2.87
X5.235Y-3.205
X5.24Y-3.14
X5.24Y-3.475
X5.24Y-3.64
X5.26Y-4.68
X5.265Y-3.14
X5.265Y-3.205
X5.27Y-3.475
X5.27Y-4.76
X5.27Y-4.89
X5.275Y-3.53
X5.28Y-4.54
X5.29Y-3.14
X5.29Y-3.205
X5.3Y-2.95
X5.305Y-3.53
X5.31Y-2.71
X5.31Y-3.295
X5.31Y-3.4
X5.315Y-3.205
X5.315Y-4.085
X5.32Y-4.96
X5.33Y-1.96
X5.33Y-2.04
X5.33Y-2.26
X5.33Y-2.33
X5.33Y-2.39
X5.33Y-2.46
X5.33Y-4.59
X5.34Y-4.76
X5.35Y-3.73
X5.36Y-2.89
X5.36Y-4.04
X5.365Y-3.065
X5.365Y-3.09
X5.365Y-3.115
X5.365Y-3.135
X5.37Y-3.01
X5.37Y-4.89
X5.375Y-4.145
X5.41Y-4.075
X5.42Y-2.94
X5.42Y-3.67
X5.43Y-3.42
X5.43Y-3.45
X5.43Y-3.48
X5.43Y-3.51
X5.44Y-2.85
X5.44Y-4.96
X5.4559Y-3.0483
X5.5Y-3.29
X5.5Y-3.36
X5.51Y-4.75
X5.525Y-4.3
X5.56Y-2.85
X5.56Y-2.92
X5.56Y-5.19
X5.56Y-5.34
X5.575Y-4.24
X5.575Y-4.355
X5.58Y-3.6
X5.58Y-3.68
X5.59Y-3.96
X5.59Y-4.75
X5.61Y-4.0
X5.62Y-4.3
X5.64Y-5.19
X5.64Y-5.34
X5.65Y-3.91
X5.6525Y-2.7675
X5.6538Y-2.8302
X5.6633Y-3.2567
X5.68Y-3.88
X5.69Y-2.68
X5.69Y-4.07
X5.72Y-2.26
X5.72Y-2.32
X5.72Y-2.39
X5.72Y-2.46
X5.72Y-3.36
X5.73Y-3.83
X5.735Y-4.01
X5.74Y-5.29
X5.7575Y-2.68
X5.7575Y-2.7675
X5.7575Y-2.87
X5.77Y-4.15
X5.78Y-4.22
X5.78Y-4.75
X5.78Y-4.96
X5.78Y-5.14
X5.78Y-5.34
X5.7891Y-4.5135
X5.795Y-4.075
X5.8Y-3.36
X5.81Y-5.22
X5.82Y-4.015
X5.84Y-3.77
X5.84Y-4.23
X5.84Y-4.44
X5.84Y-4.54
X5.84Y-4.75
X5.84Y-5.14
X5.85Y-4.135
X5.85Y-4.165
X5.85Y-4.96
X5.86Y-3.7
X5.865Y-4.075
X5.8683Y-4.9244
X5.87Y-5.26
X5.8794Y-5.216
X5.88Y-4.75
X5.88Y-5.14
X5.885Y-3.99
X5.9Y-4.44
X5.9Y-4.54
X5.91Y-3.75
X5.9125Y-2.395
X5.915Y-2.3275
X5.92Y-2.77
X5.92Y-2.87
X5.92Y-2.91
X5.92Y-3.2
X5.92Y-3.31
X5.92Y-3.47
X5.92Y-3.54
X5.9275Y-2.665
X5.93Y-2.6075
X5.93Y-5.09
X5.93Y-5.26
X5.94Y-4.75
X5.94Y-4.89
X5.94Y-5.18
X5.96Y-4.56
X5.9775Y-2.3275
X5.98Y-3.27
X5.98Y-3.4
X5.98Y-3.43
X5.98Y-3.455
X5.98Y-4.01
X5.985Y-2.535
X5.985Y-2.585
X5.985Y-2.6125
X5.9875Y-2.665
X5.99Y-2.77
X5.99Y-2.87
X5.99Y-2.91
X5.9996Y-2.4431
X6.0Y-2.395
X6.002Y-2.4948
X6.01Y-4.13
X6.02Y-3.22
X6.02Y-4.205
X6.035Y-2.5875
X6.035Y-2.6125
X6.04Y-4.66
X6.04Y-4.75
X6.05Y-3.78
X6.05Y-4.205
X6.05Y-4.32
X6.055Y-2.69
X6.06Y-3.08
X6.06Y-3.92
X6.06Y-4.03
X6.0632Y-4.1625
X6.0775Y-2.5375
X6.0775Y-2.93
X6.1Y-4.635
X6.11Y-2.26
X6.11Y-2.33
X6.11Y-3.13
X6.11Y-3.27
X6.11Y-3.88
X6.11Y-3.97
X6.11Y-4.03
X6.11Y-4.12
X6.11Y-4.17
X6.11Y-4.725
X6.11Y-4.75
X6.115Y-2.74
X6.12Y-3.78
X6.14Y-4.635
X6.15Y-4.21
X6.15Y-4.28
X6.15Y-4.31
X6.1575Y-2.3925
X6.1575Y-2.465
X6.16Y-2.74
X6.16Y-2.87
X6.16Y-4.88
X6.1725Y-2.085
X6.19Y-3.28
X6.19Y-4.92
X6.1961Y-2.8612
X6.2Y-5.32
X6.205Y-4.28
X6.205Y-4.31
X6.21Y-2.93
X6.21Y-3.04
X6.21Y-3.78
X6.21Y-3.87
X6.21Y-3.965
X6.21Y-4.045
X6.21Y-4.21
X6.2164Y-2.4796
X6.235Y-4.645
X6.235Y-4.73
X6.2388Y-2.9162
X6.25Y-2.395
X6.25Y-5.27
X6.26Y-5.36
X6.265Y-2.69
X6.27Y-4.92
X6.2735Y-3.2802
X6.275Y-4.645
X6.28Y-4.24
X6.28Y-4.315
X6.3Y-5.32
X6.3265Y-4.4544
X6.328Y-3.5078
X6.3288Y-2.6876
X6.3369Y-2.6543
X6.34Y-2.395
X6.34Y-2.46
X6.34Y-2.56
X6.34Y-3.765
X6.34Y-4.63
X6.34Y-4.92
X6.3441Y-2.6251
X6.345Y-3.7
X6.3451Y-3.4848
X6.35Y-3.55
X6.355Y-4.165
X6.355Y-4.24
X6.365Y-2.395
X6.365Y-2.46
X6.3653Y-3.486
X6.38Y-2.7208
X6.385Y-4.685
X6.385Y-4.765
X6.39Y-2.395
X6.39Y-2.46
X6.395Y-2.67
X6.41Y-2.58
X6.415Y-3.345
X6.415Y-3.485
X6.42Y-2.67
X6.42Y-2.93
X6.425Y-4.645
X6.425Y-4.765
X6.43Y-2.605
X6.43Y-2.73
X6.445Y-3.025
X6.445Y-3.115
X6.445Y-3.185
X6.445Y-3.345
X6.445Y-3.485
X6.4475Y-2.96
X6.47Y-3.915
X6.48Y-4.475
X6.485Y-4.605
X6.485Y-4.645
X6.485Y-4.765
X6.495Y-2.58
X6.505Y-3.705
X6.515Y-2.605
X6.575Y-4.39
X6.58Y-3.705
X6.58Y-3.755
X6.58Y-3.78
X6.58Y-3.83
X6.58Y-3.935
X6.58Y-4.07
X6.58Y-4.125
X6.58Y-4.525
X6.59Y-4.0
X6.6Y-2.585
X6.615Y-2.9575
X6.615Y-3.025
X6.615Y-3.115
X6.615Y-3.185
X6.615Y-3.265
X6.615Y-3.305
X6.615Y-3.385
X6.62Y-2.605
X6.63Y-2.515
X6.6325Y-2.7125
X6.64Y-2.8525
X6.6575Y-2.7975
T2
X4.35Y-2.55
X4.35Y-2.65
X4.35Y-2.75
X4.35Y-2.85
X4.35Y-2.95
X4.35Y-3.05
X4.35Y-3.15
X4.35Y-3.25
X4.35Y-3.35
X4.35Y-3.45
X4.35Y-3.55
X4.35Y-3.65
X4.35Y-3.75
X4.35Y-3.85
X4.35Y-3.95
X4.35Y-4.05
X4.35Y-4.15
X4.35Y-4.25
X4.35Y-4.35
X4.35Y-4.45
X4.6825Y-1.42
X4.6825Y-5.57
X4.7825Y-1.42
X4.7825Y-5.57
X4.8825Y-1.42
X4.8825Y-5.57
X4.9825Y-1.42
X4.9825Y-5.57
X6.075Y-1.42
X6.075Y-5.57
X6.175Y-1.42
X6.175Y-5.57
X6.275Y-1.42
X6.275Y-5.57
X6.375Y-1.42
X6.375Y-5.57
X6.7Y-2.55
X6.7Y-2.65
X6.7Y-2.75
X6.7Y-2.85
X6.7Y-2.95
X6.7Y-3.05
X6.7Y-3.15
X6.7Y-3.25
X6.7Y-3.35
X6.7Y-3.45
X6.7Y-3.55
X6.7Y-3.65
X6.7Y-3.75
X6.7Y-3.85
X6.7Y-3.95
X6.7Y-4.05
X6.7Y-4.15
X6.7Y-4.25
X6.7Y-4.35
X6.7Y-4.45
T3
X5.65Y-1.9213
X5.65Y-2.0
X5.95Y-1.9213
X5.95Y-2.0
X5.95Y-2.1713
X5.95Y-2.25
X6.0Y-3.0213
X6.0Y-3.1
X6.25Y-1.92
X6.25Y-1.9987
X6.25Y-2.17
X6.25Y-2.2487
X6.3Y-3.02
X6.3Y-3.0987
X6.56Y-1.92
X6.56Y-1.9987
T4
X4.39Y-1.595
X4.39Y-1.695
X4.39Y-1.795
X4.39Y-1.895
X4.39Y-1.995
X4.39Y-2.095
X4.39Y-2.195
X4.39Y-2.295
X4.49Y-1.595
X4.49Y-1.695
X4.49Y-1.795
X4.49Y-1.895
X4.49Y-1.995
X4.49Y-2.095
X4.49Y-2.195
X4.49Y-2.295
X4.8Y-1.8
X4.8Y-1.9
X6.025Y-4.4
X6.025Y-4.55
X6.125Y-4.4
X6.125Y-4.55
X6.225Y-4.4
X6.225Y-4.55
X6.375Y-4.42
X6.375Y-4.52
T5
X4.355Y-4.82
X4.355Y-5.42
X4.455Y-4.82
X4.455Y-5.42
X4.555Y-4.82
X4.555Y-5.42
X4.655Y-4.82
X4.655Y-5.42
X4.755Y-4.82
X4.755Y-5.42
X4.855Y-4.82
X4.855Y-5.42
X4.955Y-4.82
X4.955Y-5.42
X5.055Y-4.82
X5.055Y-5.42
X5.155Y-4.82
X5.155Y-5.42
X5.255Y-4.82
X5.255Y-5.42
X5.355Y-4.82
X5.355Y-5.42
X5.455Y-4.82
X5.455Y-5.42
X5.555Y-4.82
X5.555Y-5.42
X5.655Y-4.82
X5.655Y-5.42
X5.755Y-4.82
X5.755Y-5.42
X5.855Y-4.82
X5.855Y-5.42
X5.955Y-4.82
X5.955Y-5.42
X6.055Y-4.82
X6.055Y-5.42
X6.155Y-4.82
X6.155Y-5.42
X6.255Y-4.82
X6.255Y-5.42
X6.355Y-4.82
X6.355Y-5.42
X6.455Y-4.82
X6.455Y-5.42
X6.555Y-4.82
X6.555Y-5.42
X6.655Y-4.82
X6.655Y-5.42
M30
